<svg xmlns="http://www.w3.org/2000/svg" xmlns:xlink="http://www.w3.org/1999/xlink" width="16.908" height="21.098" viewBox="0 0 16.908 21.098"><defs><clipPath id="a"><rect width="16.908" height="20.99" fill="#333a43"/></clipPath></defs><g transform="translate(-240.715 -48.064)"><g transform="translate(240.715 48.064)"><g transform="translate(0 0)"><g transform="translate(0 0)"><path d="M356.906,413.359a3.218,3.218,0,0,0,5.891,0Zm0,0" transform="translate(-351.491 -394.182)" fill="#333a43"/><g transform="translate(0 0)"><g clip-path="url(#a)"><path d="M367.92,66.035a7.241,7.241,0,0,1,2.472.433v-.1A2.376,2.376,0,0,0,368.019,64h-.2a2.376,2.376,0,0,0-2.373,2.373v.094a7.256,7.256,0,0,1,2.471-.432Zm0,0" transform="translate(-359.56 -64.205)" fill="#333a43"/><path d="M274.068,138.072h-15.6a.636.636,0,0,1-.627-.488.606.606,0,0,1,.334-.69,3.312,3.312,0,0,0,1.008-1.37,15.824,15.824,0,0,0,1.05-6.262,6.036,6.036,0,0,1,12.071-.024c0,.008,0,.016,0,.024a15.824,15.824,0,0,0,1.05,6.262,3.312,3.312,0,0,0,1.008,1.37.606.606,0,0,1,.334.69.636.636,0,0,1-.627.488Zm.3-1.173h0Zm0,0" transform="translate(-257.907 -120.146)" fill="#333a43"/></g></g></g></g></g><g transform="translate(240.715 48.064)"><path d="M356.906,413.359a3.218,3.218,0,0,0,5.891,0Zm0,0" transform="translate(-351.491 -394.182)" fill="#333a43"/><g transform="translate(0 0)"><g transform="translate(0 0)" clip-path="url(#a)"><path d="M367.92,66.035a7.241,7.241,0,0,1,2.472.433v-.1A2.376,2.376,0,0,0,368.019,64h-.2a2.376,2.376,0,0,0-2.373,2.373v.094a7.256,7.256,0,0,1,2.471-.432Zm0,0" transform="translate(-359.56 -64.205)" fill="#333a43"/><path d="M274.068,138.072h-15.6a.636.636,0,0,1-.627-.488.606.606,0,0,1,.334-.69,3.312,3.312,0,0,0,1.008-1.37,15.824,15.824,0,0,0,1.05-6.262,6.036,6.036,0,0,1,12.071-.024c0,.008,0,.016,0,.024a15.824,15.824,0,0,0,1.05,6.262,3.312,3.312,0,0,0,1.008,1.37.606.606,0,0,1,.334.69.636.636,0,0,1-.627.488Zm.3-1.173h0Zm0,0" transform="translate(-257.907 -120.146)" fill="#333a43"/></g></g></g></g></svg>