<svg xmlns="http://www.w3.org/2000/svg" xmlns:xlink="http://www.w3.org/1999/xlink" width="21.076" height="21.098" viewBox="0 0 21.076 21.098"><defs><clipPath id="a"><rect width="21.076" height="21.098" fill="#333a43"/></clipPath></defs><g transform="translate(-217.191 -29.368)"><g transform="translate(217.191 29.368)"><g transform="translate(0 0)"><g clip-path="url(#a)"><path d="M252.7,49.765a10.491,10.491,0,1,0,0,14.837,10.489,10.489,0,0,0,0-14.837Zm-6.05,11.979a1.369,1.369,0,1,1-2.738,0V56.272a1.369,1.369,0,1,1,2.738,0Zm-1.395-7.812a1.257,1.257,0,1,1,.018-2.512,1.259,1.259,0,1,1-.018,2.512Zm0,0" transform="translate(-234.786 -46.692)" fill="#333a43"/></g></g></g><g transform="translate(217.191 29.368)"><g transform="translate(0)"><g clip-path="url(#a)"><path d="M252.7,49.765a10.491,10.491,0,1,0,0,14.837,10.489,10.489,0,0,0,0-14.837Zm-6.05,11.979a1.369,1.369,0,1,1-2.738,0V56.272a1.369,1.369,0,1,1,2.738,0Zm-1.395-7.812a1.257,1.257,0,1,1,.018-2.512,1.259,1.259,0,1,1-.018,2.512Zm0,0" transform="translate(-234.786 -46.692)" fill="#333a43"/></g></g></g><g transform="translate(217.191 29.368)"><g transform="translate(0 0)"><g clip-path="url(#a)"><path d="M252.7,49.765a10.491,10.491,0,1,0,0,14.837,10.489,10.489,0,0,0,0-14.837Zm-6.05,11.979a1.369,1.369,0,1,1-2.738,0V56.272a1.369,1.369,0,1,1,2.738,0Zm-1.395-7.812a1.257,1.257,0,1,1,.018-2.512,1.259,1.259,0,1,1-.018,2.512Zm0,0" transform="translate(-234.786 -46.692)" fill="#333a43"/></g></g></g></g></svg>