<svg xmlns="http://www.w3.org/2000/svg" xmlns:xlink="http://www.w3.org/1999/xlink" width="21" height="21" viewBox="0 0 21 21"><defs><clipPath id="a"><rect width="21" height="21" transform="translate(0.133 0)" fill="#333a43"/></clipPath></defs><g transform="translate(175.115 20.968) rotate(180)"><g transform="translate(153.982 -0.032)"><g transform="translate(0)" clip-path="url(#a)"><path d="M167.2,11.446a.88.88,0,0,0-.88.88v3.52a.881.881,0,0,1-.88.88H162.8V3.527a1.773,1.773,0,0,0-1.2-1.672l-.26-.087h4.1a.881.881,0,0,1,.88.88V5.287a.88.88,0,0,0,1.76,0V2.648a2.643,2.643,0,0,0-2.64-2.64H155.98a.688.688,0,0,0-.094.019c-.042,0-.083-.019-.126-.019A1.761,1.761,0,0,0,154,1.768V17.605a1.773,1.773,0,0,0,1.2,1.672l5.3,1.765a1.823,1.823,0,0,0,.546.082,1.761,1.761,0,0,0,1.759-1.76v-.88h2.64a2.643,2.643,0,0,0,2.64-2.639v-3.52a.88.88,0,0,0-.88-.88Zm0,0" transform="translate(-153.984 0.015)" fill="#333a43"/><path d="M440.749,110.443l-3.52-3.519a.88.88,0,0,0-1.5.622v2.64h-3.519a.88.88,0,1,0,0,1.76h3.519v2.64a.88.88,0,0,0,1.5.622l3.52-3.52a.879.879,0,0,0,0-1.244Zm0,0" transform="translate(-419.874 -102.244)" fill="#333a43"/></g></g></g></svg>