<svg xmlns="http://www.w3.org/2000/svg" width="24.447" height="25" viewBox="0 0 24.447 25"><g transform="translate(-684.886 -196.584)"><g transform="translate(693.381 196.584)"><path d="M700.166,202.092h-7.458l.932-5.509h5.593Z" transform="translate(-692.709 -196.584)" fill="#333a43"/><path d="M692.709,214.532h7.458l-.932,5.509h-5.593Z" transform="translate(-692.709 -195.04)" fill="#333a43"/></g><path d="M696.887,199.432a9.407,9.407,0,1,0,9.407,9.407A9.406,9.406,0,0,0,696.887,199.432Zm0,14.491a5.085,5.085,0,1,1,5.086-5.085A5.084,5.084,0,0,1,696.887,213.923Z" transform="translate(0.223 0.245)" fill="#333a43"/><g transform="translate(693.381 196.584)"><path d="M700.166,202.092h-7.458l.932-5.509h5.593Z" transform="translate(-692.709 -196.584)" fill="#333a43"/><path d="M692.709,214.532h7.458l-.932,5.509h-5.593Z" transform="translate(-692.709 -195.04)" fill="#333a43"/></g><g transform="translate(684.886 200.412)"><path d="M692.92,202.056l-3.729,6.458-4.3-3.562,2.8-4.844Z" transform="translate(-684.886 -200.109)" fill="#333a43"/><path d="M700,214.8l3.729-6.458,4.3,3.562-2.8,4.844Z" transform="translate(-683.587 -199.401)" fill="#333a43"/></g><g transform="translate(684.886 200.412)"><path d="M689.191,208.339l3.729,6.458-5.237,1.947-2.8-4.844Z" transform="translate(-684.886 -199.401)" fill="#333a43"/><path d="M703.73,208.514,700,202.056l5.237-1.947,2.8,4.844Z" transform="translate(-683.587 -200.109)" fill="#333a43"/></g></g></svg>