<svg xmlns="http://www.w3.org/2000/svg" width="23.906" height="25.007" viewBox="0 0 23.906 25.007"><g transform="translate(-1432.155 -616.954)"><g transform="translate(1434.868 616.954)"><g transform="translate(0)"><path d="M1447.941,625.039a4.506,4.506,0,0,1-1.03-.154,5.118,5.118,0,0,1-1.877-.961,5.256,5.256,0,0,1-.4-.363,4.471,4.471,0,0,1-.359-.413,3.53,3.53,0,0,1-.543-.99,2.439,2.439,0,0,1-.111-1.205,2.09,2.09,0,0,1,.209-.6,2.212,2.212,0,0,1,.373-.506,2.731,2.731,0,0,1,.469-.376,2.339,2.339,0,0,1,.555-.268,1.781,1.781,0,0,1,.661-.082,1.706,1.706,0,0,1,.64.176,2.265,2.265,0,0,1,.506.347,3.06,3.06,0,0,1,.388.421,5.165,5.165,0,0,1,.558.92,9.868,9.868,0,0,1,.672,1.948q.118.5.2,1a9.932,9.932,0,0,1,.111,1.008A3.71,3.71,0,0,1,1447.941,625.039Zm.282-1.968a13.583,13.583,0,0,0-.877-1.745c-.083-.136-.17-.267-.261-.393a4.434,4.434,0,0,0-.285-.356,1.94,1.94,0,0,0-.641-.5.853.853,0,0,0-.651-.021,1.4,1.4,0,0,0-.169.073c-.028.014-.057.03-.085.047l-.046.028-.042.026a1.8,1.8,0,0,0-.309.252,1.221,1.221,0,0,0-.346.634,1.6,1.6,0,0,0,.049.773,2.977,2.977,0,0,0,.372.786,4.066,4.066,0,0,0,.271.366,4.319,4.319,0,0,0,.311.342,5.456,5.456,0,0,0,1.548,1.075,5.134,5.134,0,0,0,1.9.475C1448.724,624.3,1448.485,623.679,1448.224,623.071Z" transform="translate(-1440.243 -617.969)" fill="#333a43"/><path d="M1453.684,622.459a6.6,6.6,0,0,1,.459-1.458,7.441,7.441,0,0,1,2.44-3,6.574,6.574,0,0,1,.681-.426,5.171,5.171,0,0,1,1.559-.561,3.569,3.569,0,0,1,1.773.114,3.027,3.027,0,0,1,.826.441,3.232,3.232,0,0,1,.649.655,4.011,4.011,0,0,1,.438.766,3.457,3.457,0,0,1,.261.866,2.623,2.623,0,0,1-.033.976,2.5,2.5,0,0,1-.4.888,3.334,3.334,0,0,1-.62.655,4.5,4.5,0,0,1-.7.465,7.523,7.523,0,0,1-1.462.6,14.443,14.443,0,0,1-2.977.529c-.5.038-.995.059-1.491.058a14.342,14.342,0,0,1-1.487-.069A5.448,5.448,0,0,1,1453.684,622.459Zm2.788.859a19.993,19.993,0,0,0,2.73-.872c.215-.09.426-.185.628-.29a6.116,6.116,0,0,0,.582-.332,2.863,2.863,0,0,0,.867-.815,1.253,1.253,0,0,0,.179-.939,2.159,2.159,0,0,0-.066-.262c-.015-.044-.031-.089-.048-.134l-.03-.073-.029-.067a2.637,2.637,0,0,0-.3-.505,1.793,1.793,0,0,0-.84-.646,2.346,2.346,0,0,0-1.131-.1,4.353,4.353,0,0,0-1.223.36,5.764,5.764,0,0,0-.592.309,6.456,6.456,0,0,0-.567.372,8,8,0,0,0-1.912,2,7.558,7.558,0,0,0-1.122,2.639C1454.573,623.762,1455.53,623.559,1456.472,623.318Z" transform="translate(-1444.942 -616.953)" fill="#333a43"/><rect width="12.238" height="1.745" transform="matrix(0.008, -1, 1, 0.008, 7.814, 19.277)" fill="#333a43"/><path d="M1437.705,630.132l7.215.055-.033,4.246-7.613-.058.029-3.848A.4.4,0,0,1,1437.705,630.132Z" transform="translate(-1437.275 -623.15)" fill="#333a43"/><path d="M1445.583,646.78l-6.306-.049a.4.4,0,0,1-.394-.4l.053-6.948,6.7.051Z" transform="translate(-1438.031 -627.5)" fill="#333a43"/><path d="M1463.6,630.726l-.03,3.848-7.613-.059.032-4.245,7.216.055A.4.4,0,0,1,1463.6,630.726Z" transform="translate(-1446.061 -623.215)" fill="#333a43"/><path d="M1462.552,646.512a.4.4,0,0,1-.4.395l-6.306-.048.056-7.346,6.7.051Z" transform="translate(-1446.007 -627.561)" fill="#333a43"/></g></g><g transform="translate(1432.155 631.091)"><path d="M1456.053,646.8l.007-.021c-1.727,0-2.784-1.053-4.055-1.94a5.717,5.717,0,0,0-3.446-1.2c-.669,0-1.237.006-1.719.02h-3.512a.93.93,0,0,0,0,1.86h3.3a1.394,1.394,0,0,1,.447,2.6l-1.281.34c-.434.1-.847.215-1.232.326l-.084.022c-1.448.383-3.007.794-3.29.86a1.737,1.737,0,0,1-.509-.036l-5.194-3.367-.941-.68h0a1.268,1.268,0,0,0-.141-.079,1.325,1.325,0,0,0-.217-.09,1.2,1.2,0,0,0-.183-.04,1.37,1.37,0,0,0-.2-.017,1.324,1.324,0,0,0-.27.028,1.5,1.5,0,0,0-1.372,1.487,1.477,1.477,0,0,0,.446,1.056h0l.007.005a1.544,1.544,0,0,0,.368.268l.358.26,8.141,5.9v0l.1.039a1.768,1.768,0,0,0,.581.1,1.807,1.807,0,0,0,.35-.035l.04-.011c2.758-.7,8.457-2.151,11.125-2.808l.192-.071a10.839,10.839,0,0,1,2.19-.374v-.389h.007l-.007-.535V646.8Z" transform="translate(-1432.155 -643.637)" fill="#333a43"/></g></g></svg>