<svg xmlns="http://www.w3.org/2000/svg" width="28.906" height="22.024" viewBox="0 0 28.906 22.024"><g transform="translate(-1430.516 -530.541)"><g transform="translate(1439.092 530.541)"><path d="M1456.206,539.469a5.141,5.141,0,0,1-1.173-.176,5.842,5.842,0,0,1-2.137-1.094,5.977,5.977,0,0,1-.456-.413,5.137,5.137,0,0,1-.409-.471,4,4,0,0,1-.617-1.126,2.768,2.768,0,0,1-.127-1.372,2.352,2.352,0,0,1,.238-.687,2.539,2.539,0,0,1,.423-.576,3.117,3.117,0,0,1,.535-.428,2.671,2.671,0,0,1,.632-.305,2.023,2.023,0,0,1,.752-.092,1.934,1.934,0,0,1,.729.2,2.6,2.6,0,0,1,.577.4,3.511,3.511,0,0,1,.44.478,5.817,5.817,0,0,1,.636,1.048,11.2,11.2,0,0,1,.765,2.218c.089.376.166.755.225,1.135a11.044,11.044,0,0,1,.127,1.147A4.239,4.239,0,0,1,1456.206,539.469Zm.322-2.24a15.585,15.585,0,0,0-1-1.986c-.1-.155-.194-.3-.3-.447a4.792,4.792,0,0,0-.325-.406,2.222,2.222,0,0,0-.73-.566.973.973,0,0,0-.741-.024,1.661,1.661,0,0,0-.192.082c-.032.017-.064.034-.1.053l-.052.032-.048.03a2.081,2.081,0,0,0-.352.287,1.394,1.394,0,0,0-.394.722,1.827,1.827,0,0,0,.056.88,3.38,3.38,0,0,0,.424.893,4.43,4.43,0,0,0,.308.416,5.1,5.1,0,0,0,.354.39,6.214,6.214,0,0,0,1.764,1.224,5.852,5.852,0,0,0,2.157.54C1457.1,538.631,1456.826,537.921,1456.528,537.229Z" transform="translate(-1447.443 -531.42)" fill="#333a43"/><path d="M1461.459,536.809a7.548,7.548,0,0,1,.523-1.66,8.566,8.566,0,0,1,2.075-2.848,8.717,8.717,0,0,1,.7-.567,7.677,7.677,0,0,1,.776-.485,5.874,5.874,0,0,1,1.774-.638,4.062,4.062,0,0,1,2.018.13,3.448,3.448,0,0,1,.941.5,3.683,3.683,0,0,1,.739.746,4.575,4.575,0,0,1,.5.873,3.911,3.911,0,0,1,.3.985,2.979,2.979,0,0,1-.037,1.111,2.848,2.848,0,0,1-.456,1.01,3.785,3.785,0,0,1-.705.746,5.124,5.124,0,0,1-.795.529,8.568,8.568,0,0,1-1.664.682,16.371,16.371,0,0,1-3.389.6c-.567.044-1.132.068-1.7.066a16.32,16.32,0,0,1-1.692-.078A6.2,6.2,0,0,1,1461.459,536.809Zm3.174.978a22.878,22.878,0,0,0,3.108-.993c.245-.1.485-.211.716-.33a7.118,7.118,0,0,0,.662-.378,3.255,3.255,0,0,0,.987-.928,1.429,1.429,0,0,0,.2-1.069,2.466,2.466,0,0,0-.075-.3c-.017-.05-.035-.1-.055-.152l-.034-.083-.034-.076a3.015,3.015,0,0,0-.335-.576,2.047,2.047,0,0,0-.957-.735,2.679,2.679,0,0,0-1.288-.12,4.964,4.964,0,0,0-1.393.41,6.6,6.6,0,0,0-.674.352,7.348,7.348,0,0,0-.646.424,9.117,9.117,0,0,0-2.177,2.277,8.576,8.576,0,0,0-1.277,3C1462.471,538.293,1463.562,538.061,1464.633,537.787Z" transform="translate(-1451.508 -530.541)" fill="#333a43"/><rect width="13.932" height="1.987" transform="matrix(0.008, -1, 1, 0.008, 8.895, 21.945)" fill="#333a43"/><path d="M1445.365,543.85l8.214.063-.037,4.833-8.667-.066.034-4.381A.453.453,0,0,1,1445.365,543.85Z" transform="translate(-1444.875 -535.901)" fill="#333a43"/><path d="M1454.125,561.614l-7.178-.056a.453.453,0,0,1-.449-.456l.061-7.909,7.631.059Z" transform="translate(-1445.529 -539.665)" fill="#333a43"/><path d="M1472.447,544.509l-.033,4.381-8.667-.067.037-4.833,8.214.063A.453.453,0,0,1,1472.447,544.509Z" transform="translate(-1452.476 -535.958)" fill="#333a43"/><path d="M1471.264,561.292a.452.452,0,0,1-.456.449l-7.179-.055.065-8.363,7.632.059Z" transform="translate(-1452.428 -539.717)" fill="#333a43"/></g><g transform="translate(1430.516 530.541)"><path d="M1430.524,539.317l-.009.024c1.967,0,3.17,1.2,4.616,2.208a6.51,6.51,0,0,0,3.924,1.367c.761,0,1.408-.007,1.957-.023h4a1.059,1.059,0,0,0,0-2.117h-3.754a1.587,1.587,0,0,1-.509-2.96l1.459-.388c.494-.119.964-.245,1.4-.372l.1-.025c1.648-.436,3.423-.9,3.745-.979a1.97,1.97,0,0,1,.579.041l5.913,3.832,1.071.775h0a1.813,1.813,0,0,0,.407.193,1.524,1.524,0,0,0,.209.045,1.568,1.568,0,0,0,.232.019,1.538,1.538,0,0,0,.308-.031,1.7,1.7,0,0,0,1.561-1.693,1.679,1.679,0,0,0-.508-1.2l0,0-.009-.006a1.747,1.747,0,0,0-.42-.3l-.407-.3-9.268-6.719v0l-.114-.044a2,2,0,0,0-.662-.12,2.082,2.082,0,0,0-.4.04l-.046.012c-3.14.8-9.628,2.448-12.664,3.2l-.219.081a12.336,12.336,0,0,1-2.493.426v.444h-.009l.009.609v3.967Z" transform="translate(-1430.516 -530.541)" fill="#333a43"/></g><g transform="translate(1448.927 530.541)"><path d="M1461.459,536.809a7.548,7.548,0,0,1,.523-1.66,8.566,8.566,0,0,1,2.075-2.848,8.717,8.717,0,0,1,.7-.567,7.677,7.677,0,0,1,.776-.485,5.874,5.874,0,0,1,1.774-.638,4.062,4.062,0,0,1,2.018.13,3.448,3.448,0,0,1,.941.5,3.683,3.683,0,0,1,.739.746,4.575,4.575,0,0,1,.5.873,3.911,3.911,0,0,1,.3.985,2.979,2.979,0,0,1-.037,1.111,2.848,2.848,0,0,1-.456,1.01,3.785,3.785,0,0,1-.705.746,5.124,5.124,0,0,1-.795.529,8.568,8.568,0,0,1-1.664.682,16.371,16.371,0,0,1-3.389.6c-.567.044-1.132.068-1.7.066a16.32,16.32,0,0,1-1.692-.078A6.2,6.2,0,0,1,1461.459,536.809Zm3.174.978a22.878,22.878,0,0,0,3.108-.993c.245-.1.485-.211.716-.33a7.118,7.118,0,0,0,.662-.378,3.255,3.255,0,0,0,.987-.928,1.429,1.429,0,0,0,.2-1.069,2.466,2.466,0,0,0-.075-.3c-.017-.05-.035-.1-.055-.152l-.034-.083-.034-.076a3.015,3.015,0,0,0-.335-.576,2.047,2.047,0,0,0-.957-.735,2.679,2.679,0,0,0-1.288-.12,4.964,4.964,0,0,0-1.393.41,6.6,6.6,0,0,0-.674.352,7.348,7.348,0,0,0-.646.424,9.117,9.117,0,0,0-2.177,2.277,8.576,8.576,0,0,0-1.277,3C1462.471,538.293,1463.562,538.061,1464.633,537.787Z" transform="translate(-1461.343 -530.541)" fill="#333a43"/></g><g transform="translate(1450.328 538.534)"><path d="M1472.506,544.445l-.034,4.381-8.666-.067.037-4.833,8.214.063A.454.454,0,0,1,1472.506,544.445Z" transform="translate(-1463.735 -543.925)" fill="#333a43"/><path d="M1471.323,561.229a.453.453,0,0,1-.456.449l-7.179-.055.064-8.362,7.631.058Z" transform="translate(-1463.688 -547.685)" fill="#333a43"/></g></g></svg>