<svg xmlns="http://www.w3.org/2000/svg" width="28.893" height="20.852" viewBox="0 0 28.893 20.852"><g transform="translate(-1430.253 -806.046)"><path d="M1448.9,815.094c3.366,0,5.071,2.929,6.077,6.12l.83,2.535c.132.437-.393.831-.83.831h-2.841l-.393-1.356c-.875-2.666-2.272-5.332-4.765-6.338a4.373,4.373,0,0,0,1.53-1.793Zm3.5-1.748c3.234.087,4.939,2.972,5.945,6.12l.786,2.491c.133.437-.393.875-.829.875H1456.5l-.613-1.924c-.83-2.666-2.229-5.333-4.763-6.338a4.851,4.851,0,0,0,1.267-1.224Zm-19.541,9.486H1431.1c-.48,0-.961-.394-.83-.875l.787-2.491c1.005-3.148,2.711-6.033,5.945-6.12a4.088,4.088,0,0,0,1.224,1.224c-2.491,1.005-3.891,3.671-4.765,6.338Zm19.366-16.786a3.228,3.228,0,0,1,3.234,3.234,3.194,3.194,0,0,1-2.621,3.148,3.8,3.8,0,0,0,.262-1.4,4.223,4.223,0,0,0-3.148-4.065,3.166,3.166,0,0,1,2.273-.918Zm-15.038,0a3.24,3.24,0,0,1,2.273.918,4.223,4.223,0,0,0-3.148,4.065,3.753,3.753,0,0,0,.264,1.4,3.2,3.2,0,0,1-2.623-3.148,3.228,3.228,0,0,1,3.234-3.234Zm7.519,0a3.275,3.275,0,0,1,2.491,1.137,4.28,4.28,0,0,0-1.923,1.7l-.175.262h-.831l-.131-.262a4.507,4.507,0,0,0-1.923-1.7,3.277,3.277,0,0,1,2.493-1.137Zm0,11.365c3.366,0,5.07,2.93,6.119,6.12l.788,2.535c.131.437-.393.831-.832.831h-12.152c-.481,0-1.006-.394-.832-.831l.788-2.535c1.006-3.191,2.754-6.12,6.12-6.12Zm0-7.3a3.235,3.235,0,1,1-3.234,3.235,3.228,3.228,0,0,1,3.234-3.235Zm-7.476,14.47h-2.8c-.48,0-.961-.394-.83-.831l.786-2.535c1.049-3.191,2.754-6.12,6.12-6.12h.393a4.078,4.078,0,0,0,1.531,1.793c-2.491,1.006-3.934,3.671-4.765,6.338Zm3.279-16.787a3.33,3.33,0,0,1,2.8,1.574,4.27,4.27,0,0,0-2.8,3.979,6.521,6.521,0,0,0,.087.918h-.087a3.235,3.235,0,1,1,0-6.47Zm8.392,0a3.235,3.235,0,1,1,0,6.47h-.13a3.326,3.326,0,0,0,.13-.918,4.269,4.269,0,0,0-2.8-3.979,3.274,3.274,0,0,1,2.8-1.574Z" transform="translate(0)" fill="#333a43" fill-rule="evenodd"/></g></svg>