<svg xmlns="http://www.w3.org/2000/svg" width="23.145" height="25.024" viewBox="0 0 23.145 25.024"><g transform="translate(-1432.556 -708.167)"><g transform="translate(1432.556 708.167)"><path d="M1449.873,719.745a5.475,5.475,0,0,1,3.5.166,9.556,9.556,0,0,1,3.006,2.038c1.211,1.134,2.264,2.42,3.451,3.579a11.559,11.559,0,0,0,4.147,2.747,7.205,7.205,0,0,1-4.13,2.694,7.121,7.121,0,0,0-4.62,3.489,15.646,15.646,0,0,0-3.3-4.979c.271-.257.524-.532.784-.8a12.689,12.689,0,0,1,2.721,3.629,6.741,6.741,0,0,1,2.4-1.85c.868-.4,1.818-.573,2.717-.892a4.968,4.968,0,0,0,1.515-.871,12.616,12.616,0,0,1-2.994-2.312c-1.268-1.252-2.392-2.647-3.714-3.844a6.126,6.126,0,0,0-3.875-1.871A5.975,5.975,0,0,0,1449.873,719.745Z" transform="translate(-1440.83 -713.598)" fill="#333a43"/><path d="M1441.2,713.294a2.783,2.783,0,1,0,1.71-5.127h-.436a2.781,2.781,0,0,0-1.274,5.127Z" transform="translate(-1436.065 -708.167)" fill="#333a43"/><path d="M1442.157,730.08a1.335,1.335,0,0,0,.688-.418q1.2-1.249,2.4-2.489a1.98,1.98,0,0,0-.039-2.791c-.777-.759-1.553-1.519-2.34-2.268a5.4,5.4,0,0,0-3.826-1.352,5.338,5.338,0,0,0-3.6,1.4q-1.142,1.106-2.281,2.215a1.979,1.979,0,0,0-.042,2.792q1.256,1.3,2.514,2.6a1.486,1.486,0,0,0,.579.321c-.253,1.009-.466,2.028-.706,3.04-.217.941-.419,1.886-.653,2.823-.094.489-.226.972-.323,1.461a1.492,1.492,0,0,0,.426,1.357,1.513,1.513,0,0,0,2.55-.828c.125-.605,1.341-6.039,1.7-7.343.283,1.427,1.615,7.111,1.682,7.434a1.512,1.512,0,1,0,2.89-.868C1443.25,734.8,1442.688,732.444,1442.157,730.08Zm-5.9-2.847c-.45-.485-.914-.955-1.373-1.43.458-.45.92-.893,1.371-1.346C1436.261,725.381,1436.256,726.308,1436.253,727.233Zm5.846-2.778c.455.454.916.9,1.377,1.347-.464.474-.92.955-1.375,1.437C1442.1,726.311,1442.1,725.383,1442.1,724.455Z" transform="translate(-1432.556 -714.183)" fill="#333a43"/></g></g></svg>