<svg xmlns="http://www.w3.org/2000/svg" xmlns:xlink="http://www.w3.org/1999/xlink" width="25" height="25" viewBox="0 0 25 25"><defs><clipPath id="a"><rect width="25" height="25" transform="translate(0 0.46)" fill="#333a43"/></clipPath></defs><g transform="translate(-137 16.719)"><g transform="translate(137 -17.179)"><g transform="translate(0 0)"><g transform="translate(0 0)"><g clip-path="url(#a)"><path d="M179.649,11.466l0,0L168.895.711a2.426,2.426,0,0,0-3.432,0L154.715,11.458l-.011.011a2.426,2.426,0,0,0,1.615,4.134q.037,0,.075,0h.429v7.913a2.843,2.843,0,0,0,2.84,2.84h4.207a.772.772,0,0,0,.772-.772v-6.2a1.3,1.3,0,0,1,1.3-1.3h2.481a1.3,1.3,0,0,1,1.3,1.3v6.2a.772.772,0,0,0,.772.772h4.207a2.843,2.843,0,0,0,2.84-2.84V15.607h.4a2.427,2.427,0,0,0,1.717-4.142Zm0,0" transform="translate(-154.522 -0.378)" fill="#333a43"/></g></g></g></g><g transform="translate(137 -17.179)"><g transform="translate(0 0)"><g clip-path="url(#a)"><path d="M179.649,11.466l0,0L168.895.711a2.426,2.426,0,0,0-3.432,0L154.715,11.458l-.011.011a2.426,2.426,0,0,0,1.615,4.134q.037,0,.075,0h.429v7.913a2.843,2.843,0,0,0,2.84,2.84h4.207a.772.772,0,0,0,.772-.772v-6.2a1.3,1.3,0,0,1,1.3-1.3h2.481a1.3,1.3,0,0,1,1.3,1.3v6.2a.772.772,0,0,0,.772.772h4.207a2.843,2.843,0,0,0,2.84-2.84V15.607h.4a2.427,2.427,0,0,0,1.717-4.142Zm0,0" transform="translate(-154.522 -0.378)" fill="#333a43"/></g></g></g></g></svg>