<svg xmlns="http://www.w3.org/2000/svg" width="21.096" height="21.098" viewBox="0 0 21.096 21.098"><g transform="translate(-202.062 -14.256)"><g transform="translate(202.062 14.256)"><g transform="translate(0 0)"><path d="M229.824,31.445a10.549,10.549,0,1,0,10.548,10.542,10.547,10.547,0,0,0-10.548-10.542Zm.753,16.414a1.246,1.246,0,0,1-.851.328,1.291,1.291,0,0,1-.871-.324,1.134,1.134,0,0,1-.372-.9,1.162,1.162,0,0,1,.36-.867,1.217,1.217,0,0,1,.883-.353,1.2,1.2,0,0,1,1.22,1.22,1.14,1.14,0,0,1-.368.9Zm3.056-7.574a3.773,3.773,0,0,1-.673.9q-.386.381-1.394,1.28a5.955,5.955,0,0,0-.446.446,1.856,1.856,0,0,0-.248.351,1.683,1.683,0,0,0-.128.32c-.029.1-.074.292-.134.56a.911.911,0,0,1-.973.849.991.991,0,0,1-.715-.277,1.093,1.093,0,0,1-.291-.826,3.054,3.054,0,0,1,.213-1.191,3.008,3.008,0,0,1,.564-.882,13.02,13.02,0,0,1,.948-.905q.523-.456.757-.69a2.282,2.282,0,0,0,.394-.52,1.244,1.244,0,0,0,.159-.62,1.45,1.45,0,0,0-.486-1.1,1.782,1.782,0,0,0-1.257-.45,1.736,1.736,0,0,0-1.324.454,3.618,3.618,0,0,0-.719,1.338c-.186.616-.539.925-1.055.925a1.038,1.038,0,0,1-.773-.324.988.988,0,0,1-.314-.7,2.947,2.947,0,0,1,.5-1.575,3.837,3.837,0,0,1,1.456-1.322,4.58,4.58,0,0,1,2.232-.524,4.778,4.778,0,0,1,2.094.438,3.4,3.4,0,0,1,1.4,1.19,2.924,2.924,0,0,1,.494,1.637,2.53,2.53,0,0,1-.281,1.218Zm0,0" transform="translate(-219.276 -31.445)" fill="#333a43"/></g></g><g transform="translate(202.062 14.256)"><path d="M229.824,31.445a10.549,10.549,0,1,0,10.548,10.542,10.547,10.547,0,0,0-10.548-10.542Zm.753,16.414a1.246,1.246,0,0,1-.851.328,1.291,1.291,0,0,1-.871-.324,1.134,1.134,0,0,1-.372-.9,1.162,1.162,0,0,1,.36-.867,1.217,1.217,0,0,1,.883-.353,1.2,1.2,0,0,1,1.22,1.22,1.14,1.14,0,0,1-.368.9Zm3.056-7.574a3.773,3.773,0,0,1-.673.9q-.386.381-1.394,1.28a5.955,5.955,0,0,0-.446.446,1.856,1.856,0,0,0-.248.351,1.683,1.683,0,0,0-.128.32c-.029.1-.074.292-.134.56a.911.911,0,0,1-.973.849.991.991,0,0,1-.715-.277,1.093,1.093,0,0,1-.291-.826,3.054,3.054,0,0,1,.213-1.191,3.008,3.008,0,0,1,.564-.882,13.02,13.02,0,0,1,.948-.905q.523-.456.757-.69a2.282,2.282,0,0,0,.394-.52,1.244,1.244,0,0,0,.159-.62,1.45,1.45,0,0,0-.486-1.1,1.782,1.782,0,0,0-1.257-.45,1.736,1.736,0,0,0-1.324.454,3.618,3.618,0,0,0-.719,1.338c-.186.616-.539.925-1.055.925a1.038,1.038,0,0,1-.773-.324.988.988,0,0,1-.314-.7,2.947,2.947,0,0,1,.5-1.575,3.837,3.837,0,0,1,1.456-1.322,4.58,4.58,0,0,1,2.232-.524,4.778,4.778,0,0,1,2.094.438,3.4,3.4,0,0,1,1.4,1.19,2.924,2.924,0,0,1,.494,1.637,2.53,2.53,0,0,1-.281,1.218Zm0,0" transform="translate(-219.276 -31.445)" fill="#333a43"/></g></g></svg>