<svg xmlns="http://www.w3.org/2000/svg" xmlns:xlink="http://www.w3.org/1999/xlink" width="354.574" height="168.883" viewBox="0 0 354.574 168.883"><defs><linearGradient id="a" x1="0.2" y1="0.031" x2="0.626" y2="0.688" gradientUnits="objectBoundingBox"><stop offset="0" stop-color="#5982bd"/><stop offset="1" stop-color="#5982bd" stop-opacity="0"/></linearGradient><linearGradient id="b" x1="0.5" y1="1" x2="0.5" gradientUnits="objectBoundingBox"><stop offset="0" stop-color="#5d94fd"/><stop offset="1" stop-color="#ff1863"/></linearGradient><linearGradient id="d" x1="0.124" y1="0.856" x2="0.937" y2="0.071" gradientUnits="objectBoundingBox"><stop offset="0" stop-color="#ff1863"/><stop offset="1" stop-color="#5d94fd"/></linearGradient><linearGradient id="e" x1="0.5" y1="1" x2="0.5" gradientUnits="objectBoundingBox"><stop offset="0" stop-color="#636284"/><stop offset="1" stop-color="#100f2e"/></linearGradient><clipPath id="f"><path d="M1529.63,322.818c-.3-.055-.741-.5-1.045-.4a4.558,4.558,0,0,0-2.607,3.191,80.134,80.134,0,0,1-2.455,7.746c-.838,1.96.3,4.276,2.172,6.041a5.408,5.408,0,0,0,4.217,1.725c.765-.027.9-1.009,2.025-.854s2.611.9,3.8-.314,3-3.3,2.662-5.74c-.361-2.615-4.214-4.407-4.713-5.6-.447-1.064-.36-4.666-3.114-5.927C1530.253,322.539,1530.033,322.894,1529.63,322.818Z" fill="#bcb23f"/></clipPath><clipPath id="g"><path d="M1519.027,326.232c-.9-.1-2.831-2.552-5.443-2.71s-6.617,2.757-6.394,7.441,3.594,8.716,5.641,9.331a4.533,4.533,0,0,0,3.257-.059c.431-.054.917,1,2.533,1.261s6.456-2.971,7.876-6.769-.739-7.429-2.813-8.125S1520.238,326.365,1519.027,326.232Z" fill="#bf2201"/></clipPath></defs><g transform="translate(-1237.734 -259.744)"><rect width="354.574" height="168.883" rx="8.91" transform="translate(1237.734 259.744)" fill="#353445"/><path d="M1572.027,259.744a5.252,5.252,0,0,1,5.068,6.654c-4.287,15.4-17.568,54.693-48.471,87.39-40.412,42.759-109.993,74.839-152.284,74.839H1247.234a9.5,9.5,0,0,1-9.5-9.5V269.4a9.656,9.656,0,0,1,9.656-9.656h324.637Z" opacity="0.41" fill="url(#a)"/><path d="M1533.215,410.3c37.851-1.2,53.635-40.083,49.991-84.061-2.216-26.747-14.2-51.488-36.017-65.716h-91.343a96.6,96.6,0,0,0-22.242,20.065c-22.543,27-25.4,72.625-5.025,96S1489.594,411.683,1533.215,410.3Z" opacity="0.25" fill="url(#b)" style="mix-blend-mode:multiply;isolation:isolate"/><path d="M1496.927,418.644c32.021,13.634,76.192,3.265,92.651-22.746q1.453-2.3,2.73-4.757V287.768c-.079-.242-.157-.484-.238-.726-4.237-12.728-12.269-21.387-22.707-26.521h-62.281q-4.5,1.445-9.018,3.22c-36.643,14.433-63.106,47.838-53.2,92.535C1453.516,395.35,1478.112,410.633,1496.927,418.644Z" opacity="0.25" fill="url(#b)" style="mix-blend-mode:multiply;isolation:isolate"/><path d="M1591.545,360.513q.387-1.077.763-2.172V305.016c-4.2-6.847-10.94-12.823-21.129-17.3-34.544-15.175-117.939-4.509-142.127,42.818-19.6,38.358,8.878,83.035,43.847,98.091h51.141C1556.618,416.3,1582.84,384.741,1591.545,360.513Z" opacity="0.25" fill="url(#d)" style="mix-blend-mode:multiply;isolation:isolate"/><ellipse cx="46.233" cy="3.54" rx="46.233" ry="3.54" transform="translate(1474.827 395.988)" opacity="0.25" fill="url(#e)" style="mix-blend-mode:hard-light;isolation:isolate"/><path d="M1529.1,328.961l-2.513,26.725-2.9,30.815a11.688,11.688,0,1,1-23.274-2.188l1.67-17.764,3.743-39.778c.6-6.4,6.607-14.08,13.007-13.478C1518.833,313.293,1529.428,315.523,1529.1,328.961Z" fill="#f7b284"/><path d="M1508.484,334.955s4.063-5.643,17.281-7C1525.765,327.958,1520.675,335.687,1508.484,334.955Z" fill="#e8a070"/><path d="M1506.029,345.459s4.781-6.64,20.331-8.233C1526.36,337.226,1520.371,346.319,1506.029,345.459Z" fill="#e8a070"/><path d="M1505.084,355.515s4.78-6.64,20.33-8.233C1525.414,347.282,1519.425,356.375,1505.084,355.515Z" fill="#e8a070"/><path d="M1511.259,325.235s2.849-3.957,12.117-4.906C1523.376,320.329,1519.807,325.748,1511.259,325.235Z" fill="#e8a070"/><path d="M1526.586,355.686l-2.9,30.815a11.688,11.688,0,1,1-23.274-2.188l1.67-17.764a8.186,8.186,0,0,1,5.826-2.327C1515.8,364.53,1523.441,358.476,1526.586,355.686Z" fill="#efa97a"/><path d="M1533.975,331.384c-.006.12-.011.183-.011.183s-.019-.061-.057-.178c-.314-.966-1.845-5.735-3.238-11.044-1.927-7.346-3.59-15.727-1.4-16.5,4.146-1.468,4.911,10.269,4.922,18.93C1534.2,327.039,1534.019,330.558,1533.975,331.384Z" fill="#a8d29f"/><path d="M1538.032,321.846c-1.5,3.323-2.8,6.119-3.544,7.794-.325.73-.544,1.246-.629,1.5.072-.414.268-1.524.547-3.1v0c.419-2.367,1.027-5.786,1.695-9.5,1.619-9.023,3.591-19.773,4.051-21.311.812-2.711,4.555-8.482,7.073-3.461C1548.862,297.03,1542.547,311.829,1538.032,321.846Z" fill="#a8d29f"/><path d="M1538.334,326.587c-1.549,1.635-2.85,2.96-3.577,3.692-.4.4-.623.625-.623.625s.4-.845,1.072-2.195c.638-1.275,1.524-3,2.561-4.888,3.4-6.188,8.4-14.119,11.495-13.661C1552.8,310.683,1543.946,320.664,1538.334,326.587Z" fill="#a8d29f"/><path d="M1533.975,331.384l-.068.005c-.314-.966-1.845-5.735-3.238-11.044a5.011,5.011,0,0,0,3.52,2.428C1534.2,327.039,1534.019,330.558,1533.975,331.384Z" fill="#82b378"/><path d="M1538.032,321.846c-1.5,3.323-2.8,6.119-3.544,7.794a13.525,13.525,0,0,1-.082-1.6v0c.419-2.367,1.027-5.786,1.695-9.5C1536.361,319.834,1536.9,321.27,1538.032,321.846Z" fill="#82b378"/><path d="M1538.334,326.587c-1.549,1.635-2.85,2.96-3.577,3.692a9.866,9.866,0,0,1,.449-1.57c.638-1.275,1.524-3,2.561-4.888A6.753,6.753,0,0,0,1538.334,326.587Z" fill="#82b378"/><path d="M1533.858,331.143c-.021.116-.031.177-.031.177C1533.811,331.312,1533.822,331.251,1533.858,331.143Z" fill="#a8d29f"/><path d="M1535.937,343.073c-2.6,7.359-5.832,15.383-5.832,15.383l-7.307-2.19s.856-5.45,2.111-11.515c1.465-7.071,3.473-14.98,5.306-16.062a5.92,5.92,0,0,1,2.593-.812,6.337,6.337,0,0,1,1.308.039c.1.013.2.029.3.046a7.083,7.083,0,0,1,.745.177c.1.027.19.057.283.09a7.155,7.155,0,0,1,.934.393,5.615,5.615,0,0,1,2.683,2.657C1539.5,332.332,1537.9,337.514,1535.937,343.073Z" fill="#ed7d2b"/><path d="M1528.436,345.711a43.681,43.681,0,0,0,1,18.868,3.768,3.768,0,0,0,3.456,2.8c1.1-.164,2.994-2.482,3.873-5.221a9.756,9.756,0,0,0,.458-2.32c.4-6.1,1.692-13.566,4.039-17.622,2.4-4.147,5.713-9.169,10.707-13.011l0,0c.481-.375,11.522-11.115,11.522-11.115,1.042-1.472-.619-2.717-.619-2.717a34.01,34.01,0,0,1-4.3,3.762c-3.277,2.567-9.893,1.055-9.9,1.055a6.041,6.041,0,0,0-5.521,1.131,44.645,44.645,0,0,0-8.454,9.21A38.872,38.872,0,0,0,1528.436,345.711Z" fill="#ffb93e"/><path d="M1537.224,359.834c.4-6.1,1.692-13.566,4.039-17.622,2.4-4.147,5.713-9.169,10.707-13.011l0,0c.084-.082,3.372-3.318-1.053-5.189-4.33-1.831-18.041,18.389-14.153,38.144A9.756,9.756,0,0,0,1537.224,359.834Z" fill="#ffa412"/><path d="M1509.748,334.721a13.236,13.236,0,0,1-1.89,2.323,17.933,17.933,0,0,1-12.952,4.787,16.86,16.86,0,0,1-3.554-5.185h0c-.805-2.014-1.393-4.98,0-7.181a5.531,5.531,0,0,1,3.218-2.443c1.987-.6,4.017-.293,4.905-1.177a8.816,8.816,0,0,1,3.488-2.059c.223-.071.449-.134.679-.186h0c.1-.023.189-.043.286-.062h.006a5.921,5.921,0,0,1,5.926,1.871,6.723,6.723,0,0,1,.973,1.6C1511.837,329.257,1511.406,332.117,1509.748,334.721Z" fill="#a8d29f"/><path d="M1493.165,329.138s-1.882,1.477-1.305,3.111,2.063.879,2.529-.253S1494.4,328.589,1493.165,329.138Z" fill="#d1f2c9"/><path d="M1509.86,325.407a6.693,6.693,0,0,1,.974,1.6c1,2.255,2.381,8.236.723,10.84l-2.224,2.035c-2.821,2.779-8.726,2.008-14.427,1.954a16.879,16.879,0,0,1-3.554-5.185h0a13.892,13.892,0,0,0,13.7-3.035A14.575,14.575,0,0,0,1509.86,325.407Z" fill="#95c38b"/><path d="M1499.1,322.432c-1.164-.693-2.342.281-3.709.815a14.349,14.349,0,0,1-4,.525,19.124,19.124,0,0,1,2.857-3.106C1496.025,319.118,1499.1,322.432,1499.1,322.432Z" fill="#a8d29f"/><path d="M1499.1,322.432a5.016,5.016,0,0,0-4.1-1.009,29.779,29.779,0,0,0-3.6,2.349,19.124,19.124,0,0,1,2.857-3.106C1496.025,319.118,1499.1,322.432,1499.1,322.432Z" fill="#82b378"/><path d="M1499.475,325.844a8.816,8.816,0,0,1,3.488-2.059c-2.326.872-3.608,3.819-4.491,3.478a15.578,15.578,0,0,0-3.9-.242C1496.557,326.417,1498.587,326.728,1499.475,325.844Z" fill="#95c38b"/><path d="M1503.929,323.537c-.074.021-.168.041-.286.062C1503.738,323.576,1503.832,323.556,1503.929,323.537Z" fill="#95c38b"/><path d="M1498.637,327.2h0a7.378,7.378,0,0,1,.126-5.116,32.478,32.478,0,0,1,1.443-3.392.19.19,0,0,1,.351.024l.141.43a1.547,1.547,0,0,1-.144,1.288c-.721,1.191-2.168,3.977-1.516,6.269C1499.111,326.965,1498.769,327.5,1498.637,327.2Z" fill="#82b378"/><path d="M1535.937,343.073c-2.6,7.359-5.832,15.383-5.832,15.383l-7.307-2.19s.856-5.45,2.111-11.515l0-.006a5.678,5.678,0,0,0,5,3.263C1531.915,347.968,1534.277,345.334,1535.937,343.073Z" fill="#db6f26"/><path d="M1510.029,367.526c-5.214,1.348-10.015-10.234-12.519-17.419s-9.58-30.808-6.532-34.945,10.778,3.593,12.084,10.56a16.883,16.883,0,0,1,3.919,10.015s3.375,2.613,3.048,9.036c0,0,2.831,4.464,1.96,9.145C1511.989,353.918,1516.343,365.893,1510.029,367.526Z" fill="#efa154"/><path d="M1502.8,325.986a6.736,6.736,0,0,0-4.79-.98c-2.613.545-4.246,4.137-4.246,4.137S1498.008,325.442,1502.8,325.986Z" fill="#f7ce80"/><path d="M1506.717,336a6.751,6.751,0,0,0-5.141-.98c-3.242.544-4.33,4.9-4.33,4.9S1501.056,335.457,1506.717,336Z" fill="#f7ce80"/><path d="M1509.765,345.037s-6.532-3.592-9.362,3.266C1500.4,348.3,1503.342,345.473,1509.765,345.037Z" fill="#f7ce80"/><path d="M1511.989,353.918s-5.552-1.845-6.641,2.779C1505.348,356.7,1507.417,354.462,1511.989,353.918Z" fill="#f7ce80"/><path d="M1493.762,326.1c-1.279,1.691-2.8-8.106-1.714-9.848s4.517-.435,6.232,1.9,3.783,5.531,2.477,5.841S1496.473,322.51,1493.762,326.1Z" fill="#fcad65"/><path d="M1496.422,337.083c-1.2.238-1.817-6.9.824-8.589s4.88-1.846,6.432,0c1.694,2.015,2.14,4.845,1.406,4.954a29.178,29.178,0,0,0-4.646.623C1498.906,334.536,1497.858,336.8,1496.422,337.083Z" fill="#fcad65"/><path d="M1500.068,346.2c-1.481.176-2.809-2.693-1.788-5.382s6.836-5.092,8.806-3.594,2.309,4.552,1.582,5.559-3.9-.462-5.2,0S1501.774,346,1500.068,346.2Z" fill="#fcad65"/><path d="M1503.47,354.8c-1.083.045-3.067-6.829,1.614-8.3s5.529.877,5.663,2.945-.43,3.446-1.727,3.029S1505.639,354.711,1503.47,354.8Z" fill="#fcad65"/><path d="M1511.589,365.619c-1.79,1.274-7.363-4.629-7.036-6.479s4.536-4.566,6.655-3.679S1513.04,364.588,1511.589,365.619Z" fill="#fcad65"/><path d="M1497.246,323.013c-2.16.206-2.355-2.513-.824-2.789S1500.212,322.73,1497.246,323.013Z" fill="#ffbb71"/><path d="M1494.443,318.93c-1.3.56,1.074,3.045,1.878,2.2A1.486,1.486,0,0,0,1494.443,318.93Z" fill="#ffbb71"/><path d="M1497.246,319.754c-1.076.029-.871-1.027,0-.824S1498.416,319.722,1497.246,319.754Z" fill="#ffbb71"/><path d="M1494.427,321.43a.309.309,0,0,0-.3,0,.356.356,0,0,0-.2.315.347.347,0,1,0,.694,0A.355.355,0,0,0,1494.427,321.43Z" fill="#ffbb71"/><path d="M1501.42,329.334c-.2-.782-1.341-1.7-2.081-1.02a1.11,1.11,0,0,0-.278.747.711.711,0,0,0,.1.434.547.547,0,0,0-.158.094.672.672,0,0,0-.047.789.436.436,0,0,0,.382.219,1.184,1.184,0,0,0,.2-.028.435.435,0,0,0,.3-.529l0-.008a1.274,1.274,0,0,0,1.144.078A.643.643,0,0,0,1501.42,329.334Z" fill="#ffbb71"/><path d="M1498.921,333.54c-.15-.011.24.042,0,0Z" fill="#ffbb71"/><path d="M1500.217,332.257l-.011-.031a.939.939,0,0,0-.019-.34c-.13-.544-.749-.86-1.223-1.042a1.036,1.036,0,0,0-1.124.175,1.174,1.174,0,0,0-.422.538c-.235.578.26,1.258.687,1.594a1.814,1.814,0,0,0,.621.352.946.946,0,0,0,.192.037h0l.152.015c.052.006.1.009.156.011a1.1,1.1,0,0,0,.4-.064A.979.979,0,0,0,1500.217,332.257Z" fill="#ffbb71"/><path d="M1501.375,331.35c0-.012,0-.024.005-.037a.405.405,0,0,0-.81,0,.532.532,0,0,0,.231.456.4.4,0,0,0,.467-.056A.365.365,0,0,0,1501.375,331.35Z" fill="#ffbb71"/><path d="M1506.695,339.054a1.561,1.561,0,0,0-.7-.548c-.7-.839-2.343-1.144-2.555.238a2.006,2.006,0,0,0-.021.279c-.036-.048-.074-.093-.112-.135a.5.5,0,0,0-.6-.077.824.824,0,0,0-.1.077l-.072.094-.005.007a.4.4,0,0,0-.049.114l-.009.029,0,.018a.43.43,0,0,0-.007.062v.043a.513.513,0,0,0,.04.177.385.385,0,0,0,.209.3.5.5,0,0,0,.388.2.468.468,0,0,0,.424-.273,1.917,1.917,0,0,0,.979,1.127c.668.319,1.76.417,2.2-.323A1.319,1.319,0,0,0,1506.695,339.054Z" fill="#ffbb71"/><path d="M1502.82,341.566a1.194,1.194,0,0,0-.566-.7,1.106,1.106,0,0,0-.629-.183.664.664,0,0,0-.143-.072.914.914,0,0,0-1.075,1.137,1.327,1.327,0,0,0,.94.753,1.412,1.412,0,0,0,1.1-.011A.829.829,0,0,0,1502.82,341.566Z" fill="#ffbb71"/><path d="M1506.622,347.986a1.424,1.424,0,0,0-1.217.714.933.933,0,0,0-.708-.619,1,1,0,0,0-.993.424,1.379,1.379,0,0,0-.164.2,1.752,1.752,0,0,0-.232.5c-.032.077-.062.153-.09.226a1.334,1.334,0,0,0,.169,1.424,1.655,1.655,0,0,0,.207.364.852.852,0,0,0,1.286-.081,2.117,2.117,0,0,0,.392-.619c.431.969,1.716.466,2.2-.233A1.431,1.431,0,0,0,1506.622,347.986Z" fill="#ffbb71"/><path d="M1508.078,349.123a.3.3,0,0,0-.152.561.275.275,0,0,0,.3,0A.3.3,0,0,0,1508.078,349.123Z" fill="#ffbb71"/><path d="M1510.746,358.02a1.45,1.45,0,0,0-.095-.288,1.977,1.977,0,0,0-.148-.475,1.866,1.866,0,0,0-.576-.687,1.554,1.554,0,0,0-.719-.539,1.379,1.379,0,0,0-1.524.564,1.006,1.006,0,0,0,.084,1.052.535.535,0,0,0-.1,0,.35.35,0,1,0,0,.7.383.383,0,0,0,.287-.076.254.254,0,0,0,.041-.032l.006-.005,0,0a.317.317,0,0,0,.1-.177,3.091,3.091,0,0,0,.854.583,2.151,2.151,0,0,0,.787.367A.8.8,0,0,0,1510.746,358.02Z" fill="#ffbb71"/><path d="M1538.892,308.792a2.978,2.978,0,0,0-2.97.622c-.773.618-2.854,6.075-4.305,8.752s-4.773,11.047-4.95,15.406.644,8.339,1.613,9.247a8.277,8.277,0,0,0,3.81,1.875c1.129.166,4.757-.193,5.235-1.9s.073-13.04.748-15.713,5.324-14.07,4.955-15.114A5.488,5.488,0,0,0,1538.892,308.792Z" fill="#24630d"/><path d="M1539.432,310.941c-1.487-.632-2.61.257-4.536,3.822s-5.225,13.624-5.317,15.229-.322,9.853,0,10.862,3.668,1.964,4.462,1.3,1.075-13.168,1.086-14.732,1.867-6.143,3.108-8.839S1541.212,311.7,1539.432,310.941Z" fill="#327214"/><path d="M1533.166,343.442s2.4-.609,2.6-1.4.529-12.685,1-15.265,3.5-9.493,3.853-10.571,1.419-3.058,1.2-3.886l-1.283-2.014s2.337.874,2.489,1.661-4.962,14.179-5.111,16.026-.056,14.625-.829,15.279-3.731,1.781-4.893,1.44S1533.166,343.442,1533.166,343.442Z" fill="#21540b"/><path d="M1539.669,306.882s-1.488-.626-1.8-.366a16.119,16.119,0,0,0-1.281,2.444,18.02,18.02,0,0,0,2.126.7,2.645,2.645,0,0,0,.771-.3,4.967,4.967,0,0,0,.749.766,13.751,13.751,0,0,0,1.71.8c.155.032.368-.178.368-.178a1.365,1.365,0,0,0,.121.633,1.211,1.211,0,0,0,.461.259,4.278,4.278,0,0,0,.422-.628,5.988,5.988,0,0,0,.336-1.644,2.647,2.647,0,0,0-.626-.418,1.759,1.759,0,0,0-.128-.641,1.194,1.194,0,0,0-.409-.212,3.349,3.349,0,0,0,.09-.919,8.342,8.342,0,0,0-1.964-.982C1540.355,306.214,1539.669,306.882,1539.669,306.882Z" fill="#85d348"/><path d="M1540.623,310.922a4.676,4.676,0,0,1,.657,2.008,17.1,17.1,0,0,1-1.126,2.9,12.531,12.531,0,0,0,.828-3.03A13.285,13.285,0,0,0,1540.623,310.922Z" fill="#194705"/><path d="M1538.714,309.984a4.9,4.9,0,0,0-1.965.6,15.09,15.09,0,0,0-1.581,2.844,18.158,18.158,0,0,1,1.8-2.669A14.4,14.4,0,0,1,1538.714,309.984Z" fill="#194705"/><path d="M1538.7,319.3s-1.7,4.306-2.1,6.018-.862,6.368-.862,6.368a47.743,47.743,0,0,1,.48-6.4C1536.61,323.869,1538.7,319.3,1538.7,319.3Z" fill="#194705"/><path d="M1528.34,333.525s.242,6.552.857,7.687c.389.719,2.49,1.574,2.49,1.574a14.434,14.434,0,0,1-2.7-1.276C1528.332,340.7,1528.3,335.844,1528.34,333.525Z" fill="#194705"/><path d="M1533.219,343.1a3.392,3.392,0,0,0,1.762-1.968,24.894,24.894,0,0,0,.419-5.391,19.155,19.155,0,0,1-.186,5.439C1534.666,343.151,1533.219,343.1,1533.219,343.1Z" fill="#194705"/><path d="M1532.421,343.9c-1.364-.158-2.32-.237-2.187.181,0,0,.238.79.922.676,0,0,.565.677,1.7.1,0,0,1.1.521,1.325-.255C1534.319,344.143,1533.269,344,1532.421,343.9Z" fill="#ace298"/><path d="M1539.919,307.127s.486.39.482.745a3.908,3.908,0,0,1-.562,1.2l-.289-.439S1539.877,307.377,1539.919,307.127Z" fill="#518e1b"/><path d="M1543.014,309.179a1.49,1.49,0,0,1-.539,1.377c-.717.662-.162.2-.162.2Z" fill="#518e1b"/><path d="M1541.995,311.463a1.651,1.651,0,0,1,.409,1.147,13.826,13.826,0,0,1-.534,1.862A5.451,5.451,0,0,0,1541.995,311.463Z" fill="#194705"/><path d="M1538.851,311.463c-1.483-.555-3.955,3.3-6.636,11.115-2.978,8.682-2.339,10.743-.923,10.846s2.528-6.749,2.906-8.2C1535.517,320.138,1540.729,312.167,1538.851,311.463Z" fill="#448c1e"/><path d="M1529.63,322.818c-.3-.055-.741-.5-1.045-.4a4.558,4.558,0,0,0-2.607,3.191,80.134,80.134,0,0,1-2.455,7.746c-.838,1.96.3,4.276,2.172,6.041a5.408,5.408,0,0,0,4.217,1.725c.765-.027.9-1.009,2.025-.854s2.611.9,3.8-.314,3-3.3,2.662-5.74c-.361-2.615-4.214-4.407-4.713-5.6-.447-1.064-.36-4.666-3.114-5.927C1530.253,322.539,1530.033,322.894,1529.63,322.818Z" fill="#bcb23f"/><g clip-path="url(#f)"><path d="M1528.388,322.484a5.842,5.842,0,0,0-2.042,3.469c-.715,2.649-1.563,7.687-.808,9.475s2.7,3.4,3.709,3.386,2.763-.112,3.456.389a3.475,3.475,0,0,0,4.479-.944,6.092,6.092,0,0,1-2.005,2.773c-1.382.926-3.1-.131-3.947.437s-3.071,1.07-6.156-1.533-3.73-3.877-2.825-6.452,2.747-5.279,2.908-6.839S1527.146,322.151,1528.388,322.484Z" fill="#a89d35"/></g><path d="M1532.294,324.541c-.493-.754-1.029-1.241-1.427-1.032s-.8,1.367-2.3.285c-.84-.608-1.856,1.928-2.1,3.86s-.334,6.526,1.587,8.163,3.342.735,4.518,1.508a3.232,3.232,0,0,0,5.152-1.656,4.94,4.94,0,0,0-2.375-4.988c-1.872-1.105-2.264-2.051-2.286-3.309A5.646,5.646,0,0,0,1532.294,324.541Z" fill="#e5d96a"/><path d="M1531.356,324.235c-.642-.292-1.987.343-2.662,1.677s.1,4.045,1.372,6.519,5.346,5.106,6.522,4.033.942-3.708-.694-4.766-2.374-1.354-2.965-2.2S1533.209,325.078,1531.356,324.235Z" fill="#f4e782"/><path d="M1532.134,325.791c-.535-1.066-1.279-1.235-2.014-.649s-.433,4.034.827,4.7S1532.77,327.059,1532.134,325.791Z" fill="#fff7ae"/><path d="M1536.73,334.034a2.71,2.71,0,0,0-1.78-2.605c-1.085-.474-2.584.74-2.6,2.22S1536.837,337.664,1536.73,334.034Z" fill="#fff7ae"/><path d="M1530.825,323.09c-.062-.2-.179-.241-.383-.251-.357-.018-.577.218-.954.054-.254-.111-.825-.4-1.076-.176-.087.076.005.2.1.183.332-.063.792.327,1.1.427a1.007,1.007,0,0,0,.514-.016c.091-.02.181-.057.271-.081s.234.024.342,0A.114.114,0,0,0,1530.825,323.09Z" fill="#e5d96a"/><path d="M1530.64,323.089c-.019-.276-.561-.268-.721-.146-.065.049-.079.177.024.2a1.652,1.652,0,0,0,.344-.007c.1,0,.208.056.3.023A.07.07,0,0,0,1530.64,323.089Z" fill="#f4e782"/><path d="M1530.618,322.958a.236.236,0,0,0-.207-.115c-.072-.009-.2.022-.227.1s.094.1.157.1a2.126,2.126,0,0,1,.213.02A.073.073,0,0,0,1530.618,322.958Z" fill="#fff7ae"/><path d="M1530.572,322.985a.364.364,0,0,0-.31-.093.518.518,0,0,0-.352.124.042.042,0,0,0,.018.069.662.662,0,0,0,.3-.02,1.9,1.9,0,0,1,.311.007A.051.051,0,0,0,1530.572,322.985Z" fill="#f4e782"/><path d="M1529.408,323.564a4.087,4.087,0,0,0,.294-2.763,5.352,5.352,0,0,0-1.563-2.764s-.788,0-.845.221a7.916,7.916,0,0,1,1.912,2.732,5.063,5.063,0,0,1-.02,2.683C1529.116,323.846,1529.289,323.814,1529.408,323.564Z" fill="#141e08"/><path d="M1528.253,323.316a1.278,1.278,0,0,1,.849.2.775.775,0,0,0,1.058-.146s-.189.733-.729.622S1529.082,323.506,1528.253,323.316Z" fill="#8e852d"/><path d="M1519.027,326.232c-.9-.1-2.831-2.552-5.443-2.71s-6.617,2.757-6.394,7.441,3.594,8.716,5.641,9.331a4.533,4.533,0,0,0,3.257-.059c.431-.054.917,1,2.533,1.261s6.456-2.971,7.876-6.769-.739-7.429-2.813-8.125S1520.238,326.365,1519.027,326.232Z" fill="#bf2201"/><g clip-path="url(#g)"><path d="M1523.684,326.6c-.222-.016,1.72,1.184,2.11,3.376.434,2.442-.547,5.466-3.806,7.457-5.277,3.224-9.829,3.4-14.09-1.547,0,0,.63,5.827,7.563,7.263s9.913-3.6,11.577-7.079S1526.565,326.8,1523.684,326.6Z" fill="#ad1800"/></g><path d="M1513.143,338.851c-1.249-.085-3.44-.988-4.76-5.112s.444-6.894,1.383-7.778a3.765,3.765,0,0,1,4.24-1.085c1.883.79,2.029,2.783,4.053,3.863a5.722,5.722,0,0,0,4.9-.122c.8-.315,2.294,1.173,1.246,4.4C1522.787,337.392,1516.734,339.094,1513.143,338.851Z" fill="#dd2a12"/><path d="M1521.907,332.189c-.414,1.24-3.928,4.816-7.355,4.188s-6.025-3.294-6.076-5.83,1.33-5.511,3.641-5.3a5.954,5.954,0,0,1,4.177,2.428C1518.964,331.3,1523.116,328.568,1521.907,332.189Z" fill="#f22f20"/><path d="M1518.285,331.992c1.221-.879.8-1.751-.623-2.4s-2.155-.938-2.508-2.526a2.238,2.238,0,0,0-3.125-1.556c-1.13.513-2.149,2.83.708,5.059S1517.656,332.445,1518.285,331.992Z" fill="#ff8b7b"/><path d="M1510.2,326.966c.063-.163.073-.342.149-.5a.179.179,0,0,0-.193-.241.516.516,0,0,0-.326.23.715.715,0,0,0-.1.46A.247.247,0,0,0,1510.2,326.966Z" fill="#ff8b7b"/><path d="M1523.065,327c-.761-.756-2.09-.506-3.055-.462-1.483.069-2.347-.961-3.426-1.8a5.317,5.317,0,0,0-2.163-.919c-.46-.1-1.439-.442-1.759.083a.055.055,0,0,0,.052.085,6.017,6.017,0,0,1,4.422,1.985,3.839,3.839,0,0,0,2.521,1.236,13.416,13.416,0,0,0,1.417-.074,13.539,13.539,0,0,1,1.807.2C1523.045,327.35,1523.2,327.139,1523.065,327Z" fill="#dd2a12"/><path d="M1517.336,325.516c-.134-.436-.682-.754-1.068-.95a2.963,2.963,0,0,0-1.436-.485.069.069,0,0,0-.03.123,10.548,10.548,0,0,1,1.3.671c.343.258.67.69,1.09.8A.117.117,0,0,0,1517.336,325.516Z" fill="#ff8b7b"/><path d="M1518.77,328.279a2.542,2.542,0,0,1-1.3-.94c-.467-.524-.564-.824-.511-.972s.68.182,1.013.5a2.029,2.029,0,0,0,1.63.688c.847-.037,2-.327,2-.008S1519.434,328.4,1518.77,328.279Z" fill="#ad1800"/><path d="M1518.653,328.064a7.99,7.99,0,0,0-1.33-6.244l.887-.835s2.27,5.03.712,7.213C1518.922,328.2,1518.523,328.458,1518.653,328.064Z" fill="#2c4711"/><path d="M1518.918,323.966a4.323,4.323,0,0,0-1.08-2.209c-.05-.036-.133.021-.1.08a9.2,9.2,0,0,1,.879,2.215,10.476,10.476,0,0,1,.239,1.161,10.586,10.586,0,0,0,.125,1.363.083.083,0,0,0,.158.018A3.928,3.928,0,0,0,1518.918,323.966Z" fill="#557a25"/><path d="M1516.1,325.492a3.444,3.444,0,0,1,1.338,1.366,1.988,1.988,0,0,0,2.389,1.19c1-.39,1.947-.806,2.36-.645,0,0-1.354.647-2.246,1.089s-2.071-.253-2.74-1.339S1516.513,325.653,1516.1,325.492Z" fill="#931602"/><path d="M1536.544,328.33s-1.328-.059-1.54.616.589,3.488,5.107,6.463,7.725,3.3,9.525,3.274c1.361-.018,1.307-1.224.6-1.769S1536.544,328.33,1536.544,328.33Z" fill="#b7b7b7"/><path d="M1538.886,324.7s-1.964,2.954-2.858,4.251c-.951,1.38,6.26,8.8,14.044,8.8.317,0,2.863-4.723,2.863-4.723S1542.478,330.518,1538.886,324.7Z" fill="#335d8c"/><path d="M1536.877,331.1l3.07-4.982s8.333,5.649,11.662,6.747l-2.663,4.832S1542.414,337.915,1536.877,331.1Z" fill="#19415e"/><path d="M1553.986,332.777c-.758,1.158-4.731.133-9-2.37s-7.253-5.552-6.471-6.694c1.266-1.853,4.73-.133,9,2.37S1554.916,331.357,1553.986,332.777Z" fill="#b7b7b7"/><path d="M1547.333,326.393c-3.66-2.144-7.018-3.215-7.5-2.392a.428.428,0,0,0-.056.206c.732-.352,3.791.835,7.184,2.822s5.923,4.075,5.974,4.885a.438.438,0,0,0,.153-.149C1553.57,330.942,1550.993,328.537,1547.333,326.393Z" fill="#898989"/><path d="M1546.961,327.029c-3.393-1.987-6.452-3.174-7.184-2.822-.041.968,2.419,3.178,5.811,5.165s6.523,3.052,7.347,2.542C1552.884,331.1,1550.353,329.016,1546.961,327.029Z" fill="#e5e5e5"/><path d="M1542.07,325.81c.671-.92,8.72,3.33,8,4.7C1549.582,331.45,1541.4,326.731,1542.07,325.81Z" fill="#b7b7b7"/><path d="M1542.031,334.7c-3.645-2.424-4.914-5.485-4.315-6.372s4.052.544,6.571,2.305,5.528,3.734,4.7,5.333C1548.349,337.187,1543.768,335.857,1542.031,334.7Z" fill="#71a5d3"/><path d="M1538.641,329.128s5.511.382,7.627,5.255l2.081.157-1.707,1.667-.568-1.023S1539.4,333.861,1538.641,329.128Z" fill="#e5e5e5"/><line x1="0.136" y2="0.852" transform="translate(1540.492 329.784)" fill="none" stroke="#383838" stroke-miterlimit="10" stroke-width="1"/><line x2="1.007" transform="translate(1539.947 330.21)" fill="none" stroke="#383838" stroke-miterlimit="10" stroke-width="1"/><path d="M1550.623,331.874c-1.1-.469-2.235-.79-3.314-1.329a27.587,27.587,0,0,1-3.244-1.943c-.894-.614-1.778-1.269-2.626-1.947a9.078,9.078,0,0,1-2.1-2.489.185.185,0,0,0-.336.142c.417,1.973,2.749,3.408,4.259,4.511a24.358,24.358,0,0,0,3.482,2.121,8.906,8.906,0,0,0,3.812,1.181C1550.678,332.12,1550.751,331.928,1550.623,331.874Z" fill="#d0d5d8"/><path d="M1540.158,323.22a.579.579,0,0,0-.6-.061,2,2,0,0,0-.272.109c-.11.052-.141.143-.219.226a.159.159,0,0,0,.192.248c.036-.015.123.006.167-.005a1.176,1.176,0,0,1,.2-.039c.182-.017.4.012.526-.141A.243.243,0,0,0,1540.158,323.22Z" fill="#d0d5d8"/><path d="M1540.531,334.978a4.082,4.082,0,0,0-1.137-1.047,18.377,18.377,0,0,1-1.537-1.349,10.3,10.3,0,0,1-2.336-3.209c-.05-.117-.244-.033-.2.087a8.565,8.565,0,0,0,1.963,3.34,14.782,14.782,0,0,0,1.526,1.359,4.078,4.078,0,0,0,1.6.988A.116.116,0,0,0,1540.531,334.978Z" fill="#d0d5d8"/><path d="M1541.656,327.292c-.278-.421-.658-.741-.963-1.141a4.426,4.426,0,0,0-1-1.009c-.033-.023-.087.016-.071.055a2.6,2.6,0,0,0,.823,1.145,9.867,9.867,0,0,0,1.168.992C1541.64,327.348,1541.674,327.318,1541.656,327.292Z" fill="#edeeef"/><path d="M1542.617,327.843a2.977,2.977,0,0,1-.377-.213c-.129-.1-.243.1-.158.2a2.32,2.32,0,0,0,.276.277c.107.1.266.243.419.186a.157.157,0,0,0,.111-.147C1542.893,327.991,1542.741,327.911,1542.617,327.843Z" fill="#edeeef"/><path d="M1537.851,332.944c-.021-.12-.085-.162-.181-.237a5.062,5.062,0,0,1-.419-.382,3.975,3.975,0,0,1-.748-.907.052.052,0,0,0-.094.04,2.887,2.887,0,0,0,.559,1.01c.176.2.519.645.821.586A.09.09,0,0,0,1537.851,332.944Z" fill="#edeeef"/><path d="M1539.753,323.248a1.1,1.1,0,0,0-.288.044.157.157,0,0,0,0,.3c.147.025.292.046.4-.084A.155.155,0,0,0,1539.753,323.248Z" fill="#edeeef"/><path d="M1553.654,327.457l8.194,58.367a12.032,12.032,0,0,1-11.915,13.7h-12.345a10.471,10.471,0,0,1-10.408-11.61l6.934-54.294Z" fill="#fcecdb"/><path d="M1510.624,327.457a78.041,78.041,0,0,0,43.03,0l-6.827,72.255H1503.59Z" fill="#fcecdb"/><path d="M1510.624,327.457l8.194,58.367a12.032,12.032,0,0,1-11.915,13.7h-12.345a10.471,10.471,0,0,1-10.409-11.61l5.869-60.461s2.746,1.986,9.779,1.986C1506.764,329.443,1510.624,327.457,1510.624,327.457Z" fill="#f9ddbf"/><path d="M1534.7,351.819a19.5,19.5,0,0,1-3.1-.26c-8.737-1.41-11.431-16.823-11.541-17.479l1.734-.292h0a40.135,40.135,0,0,0,2.282,7.717c1.443,3.453,3.968,7.7,7.805,8.318,4.363.7,7.9-.17,10.238-2.527,2.765-2.792,3.747-7.485,2.765-13.213l1.733-.3c1.081,6.3-.073,11.541-3.248,14.748A11.773,11.773,0,0,1,1534.7,351.819Z" fill="#f9ddbf"/><path d="M1519.522,333.964a1.539,1.539,0,1,1,1.538,1.538A1.539,1.539,0,0,1,1519.522,333.964Z" fill="#f9ddbf"/><path d="M1544.3,333.964a1.538,1.538,0,1,1,1.539,1.538A1.539,1.539,0,0,1,1544.3,333.964Z" fill="#f9ddbf"/></g></svg>