<svg xmlns="http://www.w3.org/2000/svg" xmlns:xlink="http://www.w3.org/1999/xlink" width="405.914" height="859.026" viewBox="0 0 405.914 859.026"><defs><clipPath id="a"><rect width="405.914" height="859.026" rx="24.048" transform="translate(97.728 211.099)" fill="none"/></clipPath><linearGradient id="b" y1="0.5" x2="1" y2="0.5" gradientUnits="objectBoundingBox"><stop offset="0" stop-color="#5982bd"/><stop offset="1" stop-color="#5982bd" stop-opacity="0"/></linearGradient></defs><g transform="translate(-97.728 -211.099)" clip-path="url(#a)"><path d="M3.58,234.681s108.482-65.838,174.757,3.414c66.891,69.9,130.787,76.886,190.536,50.036s51.293-137.023-14.982-172.755-319.54-71.965-356.228,0S-46.126,234.681,3.58,234.681Z" opacity="0.41" fill="url(#b)"/><path d="M224.613,625.518c65.825,22.205,128.853-21.925,154.374-91.423,11.3-30.781,13.262-59.641-6.816-89.991-46.4-70.14-122.571-16.636-200.164-116.171S-53.585,288.071-42.619,413.217s187.479,140.1,220.937,179.7C185.288,601.173,212.542,621.445,224.613,625.518Z" opacity="0.41" fill="url(#b)"/><path d="M423.03,135.537s48.6,87.431-3.954,155.091-148.776,56.781-194.4,24.988c-29.558-20.6-122.5-93.683-184.96-65.578" fill="none" stroke="#e8e6fe" stroke-miterlimit="10" stroke-width="1" opacity="0.1"/></g></svg>