<svg xmlns="http://www.w3.org/2000/svg" width="107.754" height="93.351" viewBox="0 0 107.754 93.351">
  <g id="Group_439" data-name="Group 439" transform="translate(-1495.369 -1325.741)">
    <path id="Path_1198" data-name="Path 1198" d="M1591.66,1337.309h-22.834v-.586a11.059,11.059,0,0,0-11.134-10.982H1540.8a11.059,11.059,0,0,0-11.134,10.982v.586h-22.834a11.385,11.385,0,0,0-11.463,11.306v59.171a11.385,11.385,0,0,0,11.463,11.306h84.828a11.385,11.385,0,0,0,11.463-11.306v-59.171A11.385,11.385,0,0,0,1591.66,1337.309Zm-42.414,64.57a23.681,23.681,0,1,1,24.007-23.678A23.845,23.845,0,0,1,1549.246,1401.879Zm38.063-54.827h-11.926a2.1,2.1,0,1,1,0-4.2h11.926a2.1,2.1,0,1,1,0,4.2Zm-22.858,31.069a15.206,15.206,0,1,1-15.205-15A15.1,15.1,0,0,1,1564.451,1378.121Z" fill="#a7a9ac"/>
  </g>
</svg>
