<svg xmlns="http://www.w3.org/2000/svg" xmlns:xlink="http://www.w3.org/1999/xlink" width="267.193" height="68.266" viewBox="0 0 267.193 68.266"><defs><linearGradient id="a" y1="0.5" x2="1" y2="0.5" gradientUnits="objectBoundingBox"><stop offset="0" stop-color="#5982bd"/><stop offset="1" stop-color="#5982bd" stop-opacity="0"/></linearGradient></defs><g transform="translate(-1408.27 -697.994)"><rect width="267.193" height="68.266" rx="3.653" transform="translate(1408.27 697.994)" fill="#353445"/><path d="M1609.567,697.994s-10.748,68.266-82.386,68.266H1411.854a3.585,3.585,0,0,1-3.584-3.585v-61.04a3.641,3.641,0,0,1,3.642-3.641h197.655Z" opacity="0.41" fill="url(#a)"/><line y2="43.163" transform="translate(1495.623 710.545)" fill="none" stroke="#71dfe2" stroke-miterlimit="10" stroke-width="4"/><path d="M1449.873,719.938a10.484,10.484,0,0,1,6.7.317,18.3,18.3,0,0,1,5.756,3.9c2.319,2.171,4.336,4.635,6.608,6.854a22.132,22.132,0,0,0,7.942,5.261,13.8,13.8,0,0,1-7.908,5.158,13.636,13.636,0,0,0-8.847,6.681c-1.629-3.453-3.477-6.912-6.317-9.534.519-.493,1-1.018,1.5-1.533a24.3,24.3,0,0,1,5.21,6.949,12.908,12.908,0,0,1,4.59-3.542c1.662-.773,3.482-1.1,5.2-1.708a9.512,9.512,0,0,0,2.9-1.667,24.156,24.156,0,0,1-5.733-4.427c-2.429-2.4-4.58-5.068-7.112-7.361-2.044-1.872-4.555-3.526-7.42-3.582A11.435,11.435,0,0,0,1449.873,719.938Z" fill="#fff"/><path d="M1442.391,717.985a5.329,5.329,0,1,0,3.274-9.818h-.835a5.326,5.326,0,0,0-2.439,9.818Z" fill="#fff"/><path d="M1450.941,738.608a2.557,2.557,0,0,0,1.317-.8q2.289-2.391,4.592-4.767a3.791,3.791,0,0,0-.075-5.345c-1.487-1.454-2.974-2.908-4.481-4.343a10.344,10.344,0,0,0-7.326-2.589,10.221,10.221,0,0,0-6.9,2.686q-2.187,2.118-4.368,4.241a3.79,3.79,0,0,0-.08,5.347q2.406,2.494,4.814,4.985a2.845,2.845,0,0,0,1.109.614c-.485,1.932-.892,3.883-1.352,5.821-.416,1.8-.8,3.611-1.25,5.4-.181.937-.432,1.861-.618,2.8a2.857,2.857,0,0,0,.815,2.6,2.9,2.9,0,0,0,4.883-1.585c.239-1.159,2.568-11.565,3.25-14.062.542,2.733,3.093,13.617,3.221,14.235a2.895,2.895,0,1,0,5.534-1.662C1453.035,747.652,1451.958,743.135,1450.941,738.608Zm-11.306-5.451c-.861-.929-1.751-1.828-2.63-2.739.876-.861,1.761-1.709,2.625-2.578C1439.651,729.611,1439.641,731.385,1439.635,733.157Zm11.194-5.32c.871.869,1.754,1.723,2.636,2.579-.888.907-1.762,1.828-2.634,2.751C1450.824,731.39,1450.827,729.614,1450.829,727.837Z" fill="#fff"/></g></svg>