<svg xmlns="http://www.w3.org/2000/svg" xmlns:xlink="http://www.w3.org/1999/xlink" width="360.574" height="174.883" viewBox="0 0 360.574 174.883">
  <defs>
    <filter id="Rectangle_16" x="0" y="0" width="360.574" height="174.883" filterUnits="userSpaceOnUse">
      <feOffset dx="2" dy="2" input="SourceAlpha"/>
      <feGaussianBlur stdDeviation="1" result="blur"/>
      <feFlood flood-opacity="0.349"/>
      <feComposite operator="in" in2="blur"/>
      <feComposite in="SourceGraphic"/>
    </filter>
    <linearGradient id="linear-gradient" x1="0.2" y1="0.031" x2="0.626" y2="0.688" gradientUnits="objectBoundingBox">
      <stop offset="0" stop-color="#5982bd"/>
      <stop offset="1" stop-color="#5982bd" stop-opacity="0"/>
    </linearGradient>
    <clipPath id="clip-path">
      <path id="Rectangle_17" data-name="Rectangle 17" d="M0,0H273.124a0,0,0,0,1,0,0V160.507a8.376,8.376,0,0,1-8.376,8.376H0a0,0,0,0,1,0,0V0A0,0,0,0,1,0,0Z" transform="translate(927.54 701.036)" fill="none"/>
    </clipPath>
    <linearGradient id="linear-gradient-2" x1="0.5" y1="1" x2="0.5" gradientUnits="objectBoundingBox">
      <stop offset="0" stop-color="#5d94fd"/>
      <stop offset="1" stop-color="#ff1863"/>
    </linearGradient>
    <linearGradient id="linear-gradient-4" x1="0.124" y1="0.856" x2="0.937" y2="0.071" gradientUnits="objectBoundingBox">
      <stop offset="0" stop-color="#ff1863"/>
      <stop offset="1" stop-color="#5d94fd"/>
    </linearGradient>
  </defs>
  <g id="Group_232" data-name="Group 232" transform="translate(-845.09 -700.036)">
    <g id="Group_68" data-name="Group 68">
      <g transform="matrix(1, 0, 0, 1, 845.09, 700.04)" filter="url(#Rectangle_16)">
        <rect id="Rectangle_16-2" data-name="Rectangle 16" width="354.574" height="168.883" rx="8.91" transform="translate(1 1)" fill="#353445"/>
      </g>
      <path id="Path_456" data-name="Path 456" d="M1180.382,701.036a5.253,5.253,0,0,1,5.069,6.654c-4.287,15.4-17.569,54.693-48.471,87.39-40.413,42.759-109.994,74.839-152.284,74.839H855.59a9.5,9.5,0,0,1-9.5-9.5V710.692a9.656,9.656,0,0,1,9.656-9.656h324.636Z" opacity="0.41" fill="url(#linear-gradient)"/>
    </g>
    <g id="Group_71" data-name="Group 71">
      <g id="Group_70" data-name="Group 70" clip-path="url(#clip-path)">
        <g id="Group_69" data-name="Group 69">
          <path id="Path_457" data-name="Path 457" d="M1123.69,897.434c50.356-1.6,71.354-53.326,66.507-111.833-2.948-35.583-18.894-68.5-47.916-87.427h-121.52c-12.592,8-22.131,17.763-29.59,26.694-29.99,35.914-33.79,96.618-6.686,127.712S1065.658,899.275,1123.69,897.434Z" opacity="0.25" fill="url(#linear-gradient-2)" style="mix-blend-mode: multiply;isolation: isolate"/>
          <path id="Path_458" data-name="Path 458" d="M1075.413,908.537c42.6,18.138,101.364,4.344,123.261-30.262q1.934-3.054,3.633-6.327V734.423c-.106-.322-.21-.644-.317-.966-5.637-16.934-16.324-28.452-30.209-35.283h-82.858q-5.989,1.922-12,4.284c-48.749,19.2-83.956,63.642-70.782,123.106C1017.662,877.546,1050.383,897.879,1075.413,908.537Z" opacity="0.25" fill="url(#linear-gradient-2)" style="mix-blend-mode: multiply;isolation: isolate"/>
          <path id="Path_459" data-name="Path 459" d="M1201.291,831.2q.515-1.433,1.016-2.89V757.369c-5.594-9.109-14.555-17.059-28.11-23.013-45.957-20.187-156.9-6-189.082,56.965-26.08,51.03,11.81,110.467,58.333,130.5h68.036C1154.824,905.414,1189.71,863.433,1201.291,831.2Z" opacity="0.25" fill="url(#linear-gradient-4)" style="mix-blend-mode: multiply;isolation: isolate"/>
        </g>
      </g>
    </g>
    <text id="Create_a_Team..." data-name="Create
a Team..." transform="translate(857.875 808.673)" fill="#fff" font-size="37" font-family="PlaytimeWithHotToddies, Playtime With Hot Toddies"><tspan x="0" y="0">Create</tspan><tspan x="0" y="44.4">a Team...</tspan></text>
    <g id="Group_151" data-name="Group 151" opacity="0.15">
      <g id="Group_79" data-name="Group 79">
        <g id="Group_72" data-name="Group 72">
          <path id="Path_460" data-name="Path 460" d="M1161.064,757.2c1.894,1.475.542,6.375-3.018,10.944s-7.981,7.079-9.873,5.6-.542-6.374,3.019-10.943S1159.173,755.727,1161.064,757.2Z"/>
          <path id="Path_461" data-name="Path 461" d="M1154.053,764c-3.027,3.885-4.449,8-3.647,10.056,2.18-.492,5.123-2.684,7.64-5.915,3.028-3.884,4.45-8,3.646-10.055C1159.512,758.581,1156.569,760.774,1154.053,764Z"/>
        </g>
        <g id="Group_73" data-name="Group 73">
          <path id="Path_462" data-name="Path 462" d="M1139.691,738.826c1.619,1.771-.534,6.375-4.809,10.284s-9.053,5.644-10.672,3.872.533-6.375,4.809-10.284S1138.071,737.055,1139.691,738.826Z"/>
          <path id="Path_463" data-name="Path 463" d="M1123.677,751.192c2.186.29,5.84-2.1,8.876-5.993a19.726,19.726,0,0,0,3.6-6.818,18.674,18.674,0,0,0-7.132,4.317C1125.805,745.636,1123.792,748.967,1123.677,751.192Z"/>
        </g>
        <path id="Path_464" data-name="Path 464" d="M1140.23,744.335a5.277,5.277,0,1,1-5.259-4.827A5.056,5.056,0,0,1,1140.23,744.335Z"/>
        <path id="Path_465" data-name="Path 465" d="M1160.874,763.849a5.731,5.731,0,1,1-5.711-5.241A5.491,5.491,0,0,1,1160.874,763.849Z"/>
        <path id="Path_466" data-name="Path 466" d="M1096,782.839c-.19.656-.552,2.347-.708,3.085l-.476.8a.857.857,0,1,0,1.473.877l.159-.264.212.175-.315.721a.858.858,0,1,0,1.572.687l.139-.323c.115-.145.226-.119.3-.058a.331.331,0,0,1,.1.39l-.361.823a.858.858,0,1,0,1.571.69l.241-.548a.77.77,0,0,1,.335-.366c.195-.067.36.176.44.4l-.086.837a.859.859,0,0,0,1.708.178l.092-.9a.339.339,0,0,0,.042-.062,8.119,8.119,0,0,1,1.794-3.32l.077.285-.112.378-.128.413-.06.2-.025.079a.324.324,0,0,1,.077-.1.829.829,0,0,0-.148.251.875.875,0,0,0-.048.324.835.835,0,0,0,.26.56.764.764,0,0,0,.68.212.958.958,0,0,0,.588-.429l.083-.113.14-.2.262-.375.509-.744a.728.728,0,0,0,.1-.6l-.036-.135-.843-3.126a7.731,7.731,0,0,0-.55-3.389.881.881,0,0,0-.06-.107c-.148-.229.024-.936-.319-1.187-1.856-1.356-6.436-2.427-6.436-2.427S1096.474,781.2,1096,782.839Zm8.2,4.95-.04.029C1104.175,787.808,1104.187,787.8,1104.2,787.789Zm1.226.883a.8.8,0,0,0,.041-.3v.006A.759.759,0,0,1,1105.427,788.672Z"/>
        <path id="Path_467" data-name="Path 467" d="M1168.1,768.053s-3.069-2.233-4.877-2.65c-.334-.077-.675.4-.894.431a.738.738,0,0,0-.1.02,6.248,6.248,0,0,0-2.361,1.451l-2.353,1.136-.1.048a.591.591,0,0,0-.314.381l-.185.7-.092.357-.045.19-.027.111a.774.774,0,0,0,.049.585.613.613,0,0,0,.488.3.666.666,0,0,0,.479-.137.686.686,0,0,0,.173-.2.637.637,0,0,0,.075-.222.255.255,0,0,1-.022.1l.036-.057.087-.139.185-.3.172-.268.214-.1a6.531,6.531,0,0,1-1.081,2.847.5.5,0,0,0-.016.059l-.5.533a.693.693,0,0,0,1.009.95l.467-.495c.175-.067.41-.094.474.059a.634.634,0,0,1-.047.4l-.207.435a.692.692,0,0,0,1.25.6l.312-.655a.266.266,0,0,1,.292-.143c.076.014.152.067.123.213l-.124.256a.692.692,0,1,0,1.249.6l.274-.573.219.037-.078.237a.692.692,0,1,0,1.314.436l.237-.712c.367-.484,1.209-1.6,1.509-2.06C1166.115,771.666,1168.1,768.053,1168.1,768.053Zm-10.08,2.408c0-.013,0-.027,0-.04Zm-1.031-.505.005,0a.683.683,0,0,0-.164.185A.6.6,0,0,1,1156.989,769.956Z"/>
        <g id="Group_77" data-name="Group 77">
          <path id="Path_468" data-name="Path 468" d="M1129.905,739.138c1.493,5.093,5.26,11.434,10.7,17.415s11.406,10.325,16.336,12.287c2.95,7.073,4.819,11.614,9.311,7.523,6.713-6.112,5.411-18.86-2.4-30.546-1.388-2.078-3.586-3.57-5.376-5.536s-3.074-4.3-5.013-5.873c-10.9-8.868-23.471-11.355-30.184-5.243C1118.792,733.254,1123.14,735.539,1129.905,739.138Z"/>
          <g id="Group_74" data-name="Group 74">
            <path id="Path_469" data-name="Path 469" d="M1136.392,741.694c1.455-1.324,2.969-2.026,3.384-1.569s-.426,1.9-1.879,3.219-2.969,2.027-3.383,1.57S1134.941,743.015,1136.392,741.694Z"/>
            <path id="Path_470" data-name="Path 470" d="M1155.008,762.14c1.453-1.323,2.294-2.764,1.879-3.22s-1.93.246-3.383,1.569-2.3,2.765-1.88,3.221S1153.555,763.463,1155.008,762.14Z"/>
            <path id="Path_471" data-name="Path 471" d="M1135.989,743.116c6.23-5.672,15.216-5.952,20.065-.625s3.728,14.246-2.5,19.919a16.07,16.07,0,0,1-13.227,4.265c-1.3-.213-2.178-2.019-3.326-2.616-1.166-.607-2.6-.014-3.514-1.022-.933-1.026-.437-2.221-.933-3.465-.439-1.1-1.92-2.22-2.028-3.414A16.03,16.03,0,0,1,1135.989,743.116Z"/>
          </g>
          <g id="Group_76" data-name="Group 76">
            <g id="Group_75" data-name="Group 75">
              <path id="Path_472" data-name="Path 472" d="M1134.982,740.9l-21.091,14.979,1.368-2.067-8.947,26.455-9.188-3.108,8.948-26.455a4.469,4.469,0,0,1,.9-1.55l.468-.518,17.31-19.224Z"/>
            </g>
          </g>
        </g>
        <g id="Group_78" data-name="Group 78">
          <rect id="Rectangle_18" data-name="Rectangle 18" width="1.192" height="9.755" transform="translate(1097.064 777.334) rotate(-71.515)"/>
        </g>
      </g>
      <g id="Group_97" data-name="Group 97">
        <g id="Group_81" data-name="Group 81">
          <g id="Group_80" data-name="Group 80">
            <path id="Path_473" data-name="Path 473" d="M1031.146,777.928c-.275-1.664,3.7-4.821,8.873-7.05s9.592-2.688,9.865-1.024-3.7,4.82-8.874,7.05S1031.418,779.592,1031.146,777.928Z"/>
            <path id="Path_474" data-name="Path 474" d="M1039.942,775.141c4.4-1.9,7.921-4.458,8.712-6.207-1.705-.318-4.977.368-8.635,1.944-4.4,1.9-7.92,4.458-8.711,6.207C1033.013,777.4,1036.285,776.717,1039.942,775.141Z"/>
          </g>
          <path id="Path_475" data-name="Path 475" d="M1038.305,774.441c-.363-.823.682-2.079,2.333-2.807s3.284-.65,3.647.171-.682,2.079-2.334,2.807S1038.667,775.263,1038.305,774.441Z"/>
        </g>
        <g id="Group_83" data-name="Group 83">
          <g id="Group_82" data-name="Group 82">
            <path id="Path_476" data-name="Path 476" d="M1036.848,797.094c.092,1.684,4.656,3.9,10.191,4.96s9.947.544,9.852-1.14-4.656-3.9-10.191-4.959S1036.754,795.41,1036.848,797.094Z"/>
            <path id="Path_477" data-name="Path 477" d="M1046.04,797.909c4.706.9,8.7,2.635,9.85,4.171-1.6.679-4.938.719-8.851-.026-4.706-.9-8.7-2.636-9.85-4.173C1038.785,797.2,1042.127,797.162,1046.04,797.909Z"/>
          </g>
          <path id="Path_478" data-name="Path 478" d="M1044.593,798.946c-.175.882,1.116,1.882,2.887,2.234s3.346-.076,3.522-.957-1.116-1.882-2.887-2.234S1044.769,798.066,1044.593,798.946Z"/>
        </g>
        <g id="Group_90" data-name="Group 90">
          <g id="Group_84" data-name="Group 84">
            <path id="Path_479" data-name="Path 479" d="M1031.745,761.882s3.086-1.037,4.144-1.289c.549-.131,2.233-.374,2.233-.374s.774,1.035,1.591,2.252a.153.153,0,0,0-.044.241.226.226,0,0,0,.268.1c.25.379.492.762.7,1.118-.066.034-.246.129-.281.259-.059.221.365.448.459.407.676.158.118,1.2-.116,1.266a4.106,4.106,0,0,0-2.406,1.422c-.745.952-2.988.551-3.959-.064a.657.657,0,0,1-.072-.052c-.153-.125-.611-.04-.782-.313A22.282,22.282,0,0,1,1031.745,761.882Z"/>
          </g>
          <g id="Group_85" data-name="Group 85">
            <path id="Path_480" data-name="Path 480" d="M1038.068,761.507a.6.6,0,0,1-.31-1.113l.636-.383a.6.6,0,1,1,.618,1.028l-.635.382A.592.592,0,0,1,1038.068,761.507Z"/>
          </g>
          <g id="Group_86" data-name="Group 86">
            <path id="Path_481" data-name="Path 481" d="M1038.444,762.9a.6.6,0,0,1-.229-1.154l1.221-.5a.6.6,0,1,1,.457,1.109l-1.22.5A.6.6,0,0,1,1038.444,762.9Z"/>
          </g>
          <g id="Group_87" data-name="Group 87">
            <path id="Path_482" data-name="Path 482" d="M1039.481,764.306a.6.6,0,0,1-.229-1.153l1.218-.505a.6.6,0,0,1,.459,1.108l-1.219.505A.6.6,0,0,1,1039.481,764.306Z"/>
          </g>
          <g id="Group_88" data-name="Group 88">
            <path id="Path_483" data-name="Path 483" d="M1040.2,765.8a.6.6,0,0,1-.014-1.2l1.054-.026a.611.611,0,0,1,.614.585.6.6,0,0,1-.585.614l-1.054.026Z"/>
          </g>
          <g id="Group_89" data-name="Group 89">
            <path id="Path_484" data-name="Path 484" d="M1036.392,766.142c.458.145.9.321,1.349.5s.884.371,1.32.571l-.583.013c.172-.065.347-.127.525-.177.088-.028.178-.05.267-.07l.128-.025a.169.169,0,0,1,.046,0l-.012.014-.006.009a.387.387,0,0,0-.044.035.631.631,0,0,0-.069.075.545.545,0,0,0-.095.2.563.563,0,0,0,.585.713l.049-.006,0,0,.009,0a.212.212,0,0,0,.034-.014.557.557,0,0,1-.326-1.065l.068-.023.017-.005.009,0,.051-.007a.575.575,0,0,1,.433.151.575.575,0,0,1,.169.294.521.521,0,0,1-.007.274.6.6,0,0,1-.1.2.7.7,0,0,1-.073.078l-.047.038-.021.018-.042.033-.077.063-.123.1c-.08.062-.159.121-.24.174a5.458,5.458,0,0,1-.5.294.641.641,0,0,1-.5.04l-.079-.027c-.454-.156-.905-.317-1.35-.495s-.89-.357-1.322-.567a.751.751,0,0,1,.555-1.392Z"/>
          </g>
        </g>
        <path id="Path_485" data-name="Path 485" d="M1101.75,786.167a.824.824,0,0,0-1.048-.508l-.281.1-.047-.26.677-.335a.823.823,0,0,0-.732-1.475l-.323.16a.181.181,0,0,1-.235-.153.321.321,0,0,1,.165-.348l.776-.384a.824.824,0,1,0-.731-1.476l-.543.269a.718.718,0,0,1-.444.047c-.178-.07-.163-.34-.092-.549l.594-.575c.327-.317-.826-1.133-1.153-.817l-.6.226a.319.319,0,0,0-.082.033,7.671,7.671,0,0,1-3.382,1.361l.133-.287.316-.207.35-.226.168-.107c.023-.015.047-.029.06-.04a.728.728,0,0,0,.145-.066c.023-.013.027-.013.063-.035l.027-.018a.433.433,0,0,0,.062-.047c.019-.017.037-.035.055-.054l.026-.028c.017-.032-.02.056.111-.17a.776.776,0,0,0-.261-.972.845.845,0,0,0-.077-.046.793.793,0,0,0-.371-.089.658.658,0,0,0-.089.006h-.015l-.017,0-.034.006-.058.013-.044.011-.052.014-.133.034-.222.057-.423.114-.835.232h0a1.027,1.027,0,0,0-.505.5l-1.3,2.793a7.476,7.476,0,0,0-1.7,2.851.989.989,0,0,0-.022.116c-.033.26-.6.673-.5,1.07.525,2.142,3.229,5.754,3.229,5.754s4.264-2.418,5.617-3.33c.543-.364,1.852-1.38,2.424-1.828l.844-.293A.824.824,0,0,0,1101.75,786.167Zm-7.129-6.916.016-.011c.022-.012.01,0,.017-.006a.72.72,0,0,0-.113.084c.009-.009.018-.019.029-.028A.3.3,0,0,1,1094.621,779.251Zm-.134.123-.006.007Zm-.48,2.077h0Z"/>
        <g id="Group_92" data-name="Group 92">
          <g id="Group_91" data-name="Group 91">
            <path id="Path_486" data-name="Path 486" d="M1045.15,806.642l21.759-5.943-1.236.625,23.579-16.827,5.334,7.473-23.58,16.827a4.409,4.409,0,0,1-.956.519l-.28.107-21.052,8.1Z"/>
          </g>
        </g>
        <g id="Group_95" data-name="Group 95">
          <path id="Path_487" data-name="Path 487" d="M1045.818,804.226a17.49,17.49,0,0,0,2.624-8.566c.041-3.643-1.026-4.836-2.062-9.116-.915-4.3-.469-5.841-2.079-9.108a18.845,18.845,0,0,0-5.716-6.658c.933-8.03,1.987-13.365-3.992-12.006-8.378,1.9-10.6,12.413-9.619,25.682.182,2.358,1.293,4.613,1.851,7.064s.531,4.974,1.392,7.177c4.846,12.388,11.389,20.906,19.768,19C1054.229,816.277,1050.4,811.589,1045.818,804.226Z"/>
          <g id="Group_94" data-name="Group 94">
            <g id="Group_93" data-name="Group 93">
              <path id="Path_488" data-name="Path 488" d="M1043.027,801.258c-1.815.412-3.387.288-3.517-.284s1.234-1.361,3.049-1.775,3.391-.284,3.52.282S1044.842,800.846,1043.027,801.258Z"/>
              <path id="Path_489" data-name="Path 489" d="M1037.227,775.738c-1.815.412-3.179,1.2-3.049,1.776s1.7.7,3.517.284,3.18-1.212,3.051-1.778S1039.042,775.325,1037.227,775.738Z"/>
              <path id="Path_490" data-name="Path 490" d="M1044.025,800.274c-7.779,1.77-15.311-2.189-16.823-8.841s3.571-13.474,11.349-15.241c6.348-1.442,12.53.925,15.412,5.456.651,1.027-.32,3.775-.32,3.775s2.075,2.944,1.687,4.547C1054.175,794.778,1049.861,798.949,1044.025,800.274Z"/>
            </g>
          </g>
          <path id="Path_491" data-name="Path 491" d="M1030.813,795.207c-2.064.47-4.241-1.33-4.852-4.023s.573-5.25,2.638-5.72,4.24,1.33,4.85,4.019S1032.882,794.737,1030.813,795.207Z"/>
          <path id="Path_492" data-name="Path 492" d="M1030.028,795.385c-2.064.469-4.234-1.332-4.846-4.023s.568-5.25,2.632-5.719,4.241,1.329,4.852,4.018S1032.1,794.915,1030.028,795.385Z"/>
        </g>
        <g id="Group_96" data-name="Group 96">
          <rect id="Rectangle_19" data-name="Rectangle 19" width="1.192" height="9.201" transform="matrix(0.813, -0.582, 0.582, 0.813, 1088.352, 785.131)"/>
        </g>
      </g>
      <g id="Group_117" data-name="Group 117">
        <g id="Group_115" data-name="Group 115">
          <g id="Group_104" data-name="Group 104">
            <path id="Path_493" data-name="Path 493" d="M1138.031,843.2s-2.095-.662-2.763-.973c-.347-.162-1.334-.786-1.334-.786s.107-1.227.278-2.621c.1-.006.129-.1.139-.176a.185.185,0,0,0-.09-.212c.056-.432.117-.865.182-1.26a.323.323,0,0,0,.272-.074.511.511,0,0,0-.04-.557c-.271-.459.523-1.04.678-.98a2.089,2.089,0,0,0,1.932.012c.847-.413,1.809,1.012,2.01,1.99,0,.024.008.05.011.078.018.177.295.331.251.639A31.638,31.638,0,0,1,1138.031,843.2Z"/>
            <g id="Group_98" data-name="Group 98">
              <path id="Path_494" data-name="Path 494" d="M1133.784,841.388a.487.487,0,0,1,0-.974l.514,0h0a.487.487,0,0,1,0,.974l-.514,0Z"/>
            </g>
            <g id="Group_99" data-name="Group 99">
              <path id="Path_495" data-name="Path 495" d="M1134.782,840.063a.483.483,0,0,1-.1-.01l-.874-.184a.487.487,0,1,1,.2-.953l.874.183a.487.487,0,0,1-.1.964Z"/>
            </g>
            <g id="Group_100" data-name="Group 100">
              <path id="Path_496" data-name="Path 496" d="M1134.934,838.4a.566.566,0,0,1-.1-.01l-.875-.182a.487.487,0,0,1,.2-.954l.875.181a.488.488,0,0,1-.1.965Z"/>
            </g>
            <g id="Group_101" data-name="Group 101">
              <path id="Path_497" data-name="Path 497" d="M1135.291,836.832a.49.49,0,0,1-.325-.123l-.556-.5a.487.487,0,1,1,.649-.727l.556.5a.487.487,0,0,1-.324.85Z"/>
            </g>
            <g id="Group_103" data-name="Group 103">
              <g id="Group_102" data-name="Group 102">
                <path id="Path_498" data-name="Path 498" d="M1137.626,837.223c-.17-.353-.313-.715-.456-1.079-.071-.182-.133-.366-.2-.55s-.136-.366-.191-.554l.464.372c-.122-.029-.243-.064-.361-.1-.06-.021-.119-.039-.174-.064l-.076-.033c-.013-.006-.016-.01-.018-.015l.028-.005.021-.005a.449.449,0,0,0,.266-.136.458.458,0,0,0,.016-.617.45.45,0,0,0-.112-.094l-.006,0-.011-.005a.235.235,0,0,0-.049-.017.452.452,0,1,1-.3.852.463.463,0,0,1-.07-.027l-.017-.007-.009,0a.462.462,0,0,1-.114-.1.476.476,0,0,1-.094-.445.424.424,0,0,1,.108-.18.478.478,0,0,1,.278-.14l.033-.005.051-.006.079-.009.115-.013c.071-.01.139-.012.207-.016a3.729,3.729,0,0,1,.4.009.516.516,0,0,1,.418.28l.046.092c.088.175.157.357.237.536s.157.357.229.539c.143.364.285.727.4,1.1a.611.611,0,0,1-1.134.445Z"/>
              </g>
            </g>
          </g>
          <g id="Group_106" data-name="Group 106">
            <g id="Group_105" data-name="Group 105">
              <path id="Path_499" data-name="Path 499" d="M1155.925,809.122c-1.133,1.249-6.075.093-11.036-2.578s-8.063-5.85-6.927-7.1,6.076-.093,11.036,2.578S1157.061,807.875,1155.925,809.122Z"/>
              <path id="Path_500" data-name="Path 500" d="M1148.278,803.957c-4.217-2.272-8.412-3.442-10.273-2.975.808,1.533,3.378,3.672,6.884,5.562,4.218,2.271,8.413,3.44,10.274,2.974C1154.354,807.984,1151.785,805.845,1148.278,803.957Z"/>
            </g>
            <path id="Path_501" data-name="Path 501" d="M1148.888,804.381c-.358.825-1.989.912-3.645.193s-2.706-1.97-2.349-2.794,1.989-.91,3.645-.192S1149.246,803.557,1148.888,804.381Z"/>
          </g>
          <g id="Group_108" data-name="Group 108">
            <g id="Group_107" data-name="Group 107">
              <path id="Path_502" data-name="Path 502" d="M1149.421,831.559c-.481,1.617-5.436,2.715-11.065,2.454s-9.8-1.782-9.317-3.4,5.436-2.714,11.065-2.453S1149.9,829.944,1149.421,831.559Z"/>
              <path id="Path_503" data-name="Path 503" d="M1140.292,830.214c-4.786-.222-9.073.54-10.55,1.766,1.394,1.033,4.635,1.848,8.614,2.033,4.786.223,9.073-.539,10.55-1.767C1147.512,831.215,1144.271,830.4,1140.292,830.214Z"/>
            </g>
            <path id="Path_504" data-name="Path 504" d="M1141.458,831.56c-.035.9-1.523,1.571-3.327,1.5s-3.237-.853-3.2-1.752,1.523-1.57,3.326-1.5S1141.492,830.662,1141.458,831.56Z"/>
          </g>
          <path id="Path_505" data-name="Path 505" d="M1103.492,781.47c-.6-.2-2.184-.608-2.819-.769l-1.565-.859a.777.777,0,1,0-.748,1.363l1,.549-.134.149-1.641-.776a.778.778,0,1,0-.665,1.406l1.34.634a.164.164,0,0,1-.018.224.3.3,0,0,1-.372.075l-.037.045-1.767-.74a.778.778,0,1,0-.6,1.435l1.725.723a.343.343,0,0,1,.086.136c.046.157-.123.289-.3.363l-1.825-.352a.778.778,0,0,0-.3,1.527l1.819.351a.4.4,0,0,0,.12.083,7.248,7.248,0,0,1,2.968,1.741l-.293.066-.336-.115-.371-.132-.176-.064a.511.511,0,0,0-.064-.021.682.682,0,0,0-.137-.072.585.585,0,0,0-.063-.027l-.029-.01-.015,0-.064-.015a.617.617,0,0,0-.075-.01l-.037,0h-.037a.726.726,0,0,0-.282.064.732.732,0,0,0-.431.6.884.884,0,0,0,0,.117l0,.039c0,.026.009.054.016.081a.73.73,0,0,0,.157.3.857.857,0,0,0,.158.145l.04.031.1.079.171.133.329.251.655.489h0a.964.964,0,0,0,.665.088l2.841-.641a7.027,7.027,0,0,0,3.109-.377.675.675,0,0,0,.1-.05c.212-.125.847.056,1.086-.245,1.3-1.63,2.437-5.739,2.437-5.739S1104.955,781.958,1103.492,781.47Zm-5.59,8.334-.009,0-.018-.006c-.023-.01-.01-.006-.016-.01a.65.65,0,0,0,.127.036l-.027,0Z"/>
          <path id="Path_506" data-name="Path 506" d="M1153.585,787.4c-6.259-1.844-5.187,4.225-4.77,13.059a17.776,17.776,0,0,0-6.595,6.308c-1.848,3.219-1.494,4.812-2.7,9.132-1.327,4.284-2.489,5.429-2.681,9.137a19.116,19.116,0,0,0,1.779,8.755c-4.832,6.678-8.427,10.9-2.431,12.668,8.4,2.475,15.6-5.766,21.327-18.053,1.017-2.186,1.146-4.745,1.871-7.2s2.006-4.687,2.334-7.074C1163.568,800.7,1161.984,789.875,1153.585,787.4Z"/>
          <g id="Group_110" data-name="Group 110">
            <g id="Group_109" data-name="Group 109">
              <path id="Path_507" data-name="Path 507" d="M1149.819,804.481c1.818.535,3.154,1.432,2.987,2s-1.777.6-3.595.063-3.155-1.432-2.988-2S1148,803.946,1149.819,804.481Z"/>
              <path id="Path_508" data-name="Path 508" d="M1142.282,830.065c1.817.535,3.427.508,3.595-.063s-1.169-1.468-2.987-2-3.427-.509-3.595.062S1140.464,829.529,1142.282,830.065Z"/>
              <path id="Path_509" data-name="Path 509" d="M1148.442,804.859c7.8,2.3,12.528,9.565,10.565,16.231S1149.128,831.3,1141.33,829c-6.361-1.874-10.679-7.056-10.99-12.518-.069-1.234,2.163-3.2,2.163-3.2s-.38-3.649.759-4.881C1136.682,804.7,1142.595,803.136,1148.442,804.859Z"/>
            </g>
          </g>
          <g id="Group_113" data-name="Group 113">
            <g id="Group_112" data-name="Group 112">
              <g id="Group_111" data-name="Group 111">
                <path id="Path_510" data-name="Path 510" d="M1152.75,799.309l-5.357-1.77-5.366-1.738-10.746-3.425.891.148-12.715-1.25-6.36-.6-6.361-.566.539-7.958,6.379.3,6.383.264,12.768.477a2.855,2.855,0,0,1,.485.06l.406.088,11.022,2.391,7.039,1.343,3.386,1.629Z"/>
              </g>
            </g>
          </g>
          <g id="Group_114" data-name="Group 114">
            <path id="Path_511" data-name="Path 511" d="M1158.745,817.485c1.995.744,2.832,3.456,1.861,6.057s-3.376,4.1-5.371,3.354-2.83-3.455-1.862-6.052S1156.748,816.74,1158.745,817.485Z"/>
            <path id="Path_512" data-name="Path 512" d="M1159.5,817.768c1.993.744,2.826,3.454,1.855,6.054s-3.371,4.1-5.365,3.356-2.831-3.455-1.863-6.051S1157.5,817.022,1159.5,817.768Z"/>
          </g>
        </g>
        <g id="Group_116" data-name="Group 116">
          <rect id="Rectangle_20" data-name="Rectangle 20" width="8.061" height="1.192" transform="matrix(0.049, -0.999, 0.999, 0.049, 1106.751, 790.161)"/>
        </g>
      </g>
      <g id="Group_135" data-name="Group 135">
        <g id="Group_133" data-name="Group 133">
          <g id="Group_119" data-name="Group 119">
            <g id="Group_118" data-name="Group 118">
              <path id="Path_513" data-name="Path 513" d="M1064.134,735.79c2.089-1.181,6.094,1.949,8.944,6.992s3.469,10.089,1.38,11.269-6.093-1.95-8.944-6.993S1062.046,736.97,1064.134,735.79Z"/>
              <path id="Path_514" data-name="Path 514" d="M1072.594,754.168c.773-2.065-.734-6.161-3.85-9.993a19.725,19.725,0,0,0-5.837-5.036,18.677,18.677,0,0,0,2.607,7.919C1067.657,750.848,1070.451,753.558,1072.594,754.168Z"/>
            </g>
            <path id="Path_515" data-name="Path 515" d="M1069.611,736.555a5.221,5.221,0,1,1-5.82,4A5,5,0,0,1,1069.611,736.555Z"/>
          </g>
          <g id="Group_121" data-name="Group 121">
            <g id="Group_120" data-name="Group 120">
              <path id="Path_516" data-name="Path 516" d="M1087.37,720.712c-1.743,1.649.07,6.4,4.05,10.606s8.62,6.285,10.363,4.636-.07-6.4-4.05-10.606S1089.114,719.064,1087.37,720.712Z"/>
              <path id="Path_517" data-name="Path 517" d="M1102.444,734.207c-2.2.131-5.672-2.516-8.416-6.621a19.7,19.7,0,0,1-3.095-7.061,18.655,18.655,0,0,1,6.8,4.823C1100.725,728.511,1102.491,731.98,1102.444,734.207Z"/>
            </g>
            <path id="Path_518" data-name="Path 518" d="M1086.3,726.158a5.41,5.41,0,1,0,5.735-4.544A5.183,5.183,0,0,0,1086.3,726.158Z"/>
          </g>
          <g id="Group_128" data-name="Group 128">
            <path id="Path_519" data-name="Path 519" d="M1102.28,715.894s2.52,3.13,3.275,4.234c.394.573,1.435,2.382,1.435,2.382s-.7,1.193-1.574,2.489c-.139-.112-.22-.044-.268.027a.265.265,0,0,0,.024.331c-.273.4-.555.791-.822,1.139-.066-.063-.249-.233-.4-.232-.255,0-.291.55-.2.642.154.807-1.18.509-1.36.268a5.8,5.8,0,0,0-2.6-2.245c-1.331-.536-1.971-3.173-1.792-4.453a.572.572,0,0,1,.019-.1c.057-.211-.246-.7-.045-.974C1099.054,717.9,1102.28,715.894,1102.28,715.894Z"/>
            <g id="Group_122" data-name="Group 122">
              <path id="Path_520" data-name="Path 520" d="M1106.947,723.941a.678.678,0,0,1-.443-.164l-.693-.591a.684.684,0,1,1,.888-1.04l.693.591a.684.684,0,0,1-.445,1.2Z"/>
            </g>
            <g id="Group_123" data-name="Group 123">
              <path id="Path_521" data-name="Path 521" d="M1106.091,725.416a.678.678,0,0,1-.507-.225l-1.093-1.208a.684.684,0,0,1,1.014-.918l1.093,1.208a.683.683,0,0,1-.507,1.143Z"/>
            </g>
            <g id="Group_124" data-name="Group 124">
              <path id="Path_522" data-name="Path 522" d="M1105.126,727.018a.678.678,0,0,1-.506-.224l-1.093-1.206a.684.684,0,0,1,1.013-.919l1.093,1.206a.684.684,0,0,1-.507,1.143Z"/>
            </g>
            <g id="Group_125" data-name="Group 125">
              <path id="Path_523" data-name="Path 523" d="M1103.354,728.257a.683.683,0,0,1-.625-.406l-.522-1.172a.684.684,0,1,1,1.25-.556l.521,1.172a.683.683,0,0,1-.624.962Z"/>
            </g>
            <g id="Group_127" data-name="Group 127">
              <g id="Group_126" data-name="Group 126">
                <path id="Path_524" data-name="Path 524" d="M1100.078,722.3a31.27,31.27,0,0,1,.156,3.325l-.237-.551c.147.174.293.35.426.536.068.091.132.186.194.28.029.048.061.095.085.14a.3.3,0,0,1,.028.057l-.014,0-.009,0a.781.781,0,0,0-.135-.074.609.609,0,0,0-.239-.045.593.593,0,0,0-.114.012l-.057.014a.591.591,0,0,0-.113.041.64.64,0,0,0-.292.282.639.639,0,0,0-.01.571.252.252,0,0,0,.03.052l0,0,.005.007.024.022a.635.635,0,0,1,1.008-.774l.049.058.012.015.006.007c-.005-.008.01.016.029.055a.674.674,0,0,1,.048.134.662.662,0,0,1-.055.445.654.654,0,0,1-.29.287.571.571,0,0,1-.172.057.743.743,0,0,1-.118.01.688.688,0,0,1-.249-.051.865.865,0,0,1-.144-.079l-.026-.016-.047-.03-.1-.059-.164-.1c-.1-.069-.2-.137-.295-.21a6.769,6.769,0,0,1-.538-.459.723.723,0,0,1-.229-.464l-.007-.086a31.04,31.04,0,0,1-.157-3.325.857.857,0,0,1,1.708-.081Z"/>
              </g>
            </g>
          </g>
          <path id="Path_525" data-name="Path 525" d="M1102.246,785.566l-.661-.48a.285.285,0,0,0-.044-.072,7.366,7.366,0,0,1-1.841-2.966l.293.079.248.263.27.293.128.14c.017.019.035.038.046.048a.711.711,0,0,0,.09.132.525.525,0,0,0,.044.053l.021.023a.519.519,0,0,0,.056.05.665.665,0,0,0,.06.044l.031.02.016.009.008,0a.68.68,0,0,0,.1.045.74.74,0,0,0,.691-.1.752.752,0,0,0,.2-.219.459.459,0,0,0,.034-.066l.017-.039a.758.758,0,0,0,.045-.367.724.724,0,0,0-.032-.142l-.011-.033-.023-.056-.019-.041-.021-.049-.055-.12-.09-.2-.178-.382-.358-.749h0a.987.987,0,0,0-.554-.391l-2.851-.769a7.131,7.131,0,0,0-2.967-1.132.71.71,0,0,0-.113,0c-.25.011-.732-.451-1.09-.294-1.935.848-4.9,3.993-4.9,3.993s2.984,3.624,4.065,4.752c.433.453,1.607,1.519,2.124,1.986l.416.748a.789.789,0,0,0,.69.406.776.776,0,0,0,.382-.1.787.787,0,0,0,.306-1.072l-.137-.248.236-.086.427.582a.788.788,0,1,0,1.272-.932l-.2-.278a.171.171,0,0,1,.1-.248.306.306,0,0,1,.358.1l.486.665a.788.788,0,0,0,1.272-.932l-.343-.469a.7.7,0,0,1-.117-.41c.037-.18.3-.21.506-.177l.638.464a.788.788,0,1,0,.928-1.275Zm-.387-3.552.013.013c.016.019.006.01.01.017a.736.736,0,0,0-.1-.094l.031.022C1101.861,782.012,1101.854,782.009,1101.859,782.014Z"/>
          <g id="Group_130" data-name="Group 130">
            <path id="Path_526" data-name="Path 526" d="M1061.256,746.119c5.446-.361,12.654-2.728,19.875-6.86s12.917-9.149,15.988-13.662c7.758-1.384,12.736-2.245,9.632-7.671-4.639-8.105-17.731-9.646-31.21-4.412-2.4.93-4.385,2.806-6.76,4.164s-5,2.127-7.016,3.724c-11.338,8.968-16.642,21.034-12,29.137C1052.864,755.965,1056.129,752.11,1061.256,746.119Z"/>
            <g id="Group_129" data-name="Group 129">
              <path id="Path_527" data-name="Path 527" d="M1065.27,740.175c-1.005-1.755-1.372-3.431-.822-3.747s1.811.851,2.815,2.606,1.372,3.431.82,3.747S1066.272,741.93,1065.27,740.175Z"/>
              <path id="Path_528" data-name="Path 528" d="M1089.957,726.046c-1-1.754-2.264-2.921-2.814-2.606s-.184,1.994.819,3.748,2.266,2.921,2.817,2.605S1090.96,727.8,1089.957,726.046Z"/>
              <path id="Path_529" data-name="Path 529" d="M1066.608,740.9c-4.306-7.524,3.877-20.245,3.877-20.245s15.113-.609,19.419,6.914a16.543,16.543,0,0,1,1.33,14.238,23.6,23.6,0,0,1-5.181,6.054c-1.239.709-2.328-.058-3.687.165-1.2.195-2.659,1.43-3.882,1.272A16.483,16.483,0,0,1,1066.608,740.9Z"/>
            </g>
          </g>
          <g id="Group_132" data-name="Group 132">
            <g id="Group_131" data-name="Group 131">
              <path id="Path_530" data-name="Path 530" d="M1062.964,740.909l13.369,23.2-.886-.856,19.1,13.9-5.246,7.2-19.1-13.9-.886-.856-19.3-18.558Z"/>
            </g>
          </g>
        </g>
        <g id="Group_134" data-name="Group 134">
          <rect id="Rectangle_21" data-name="Rectangle 21" width="8.997" height="1.192" transform="translate(1088.354 783.712) rotate(-54.146)"/>
        </g>
      </g>
      <g id="Group_150" data-name="Group 150">
        <g id="Group_136" data-name="Group 136">
          <path id="Path_531" data-name="Path 531" d="M1059.484,827.236c2.234-.877,5.759,2.786,7.874,8.178s2.018,10.476-.216,11.351-5.759-2.786-7.873-8.179S1057.251,828.111,1059.484,827.236Z"/>
          <path id="Path_532" data-name="Path 532" d="M1061.759,836.736c1.8,4.585,4.613,7.909,6.789,8.266.689-2.125.305-5.775-1.19-9.588-1.8-4.585-4.613-7.908-6.789-8.265C1059.879,829.275,1060.264,832.925,1061.759,836.736Z"/>
        </g>
        <g id="Group_137" data-name="Group 137">
          <path id="Path_533" data-name="Path 533" d="M1100.488,826.333c-2.234-.877-5.759,2.785-7.873,8.178s-2.019,10.476.216,11.351,5.758-2.786,7.873-8.179S1102.722,827.208,1100.488,826.333Z"/>
          <path id="Path_534" data-name="Path 534" d="M1098.213,835.833c-1.8,4.585-4.612,7.908-6.789,8.267-.689-2.127-.3-5.776,1.191-9.589,1.8-4.585,4.612-7.908,6.788-8.264C1100.093,828.371,1099.708,832.021,1098.213,835.833Z"/>
        </g>
        <ellipse id="Ellipse_1" data-name="Ellipse 1" cx="4.876" cy="4.476" rx="4.876" ry="4.476" transform="translate(1090.951 833.863)"/>
        <ellipse id="Ellipse_2" data-name="Ellipse 2" cx="5.57" cy="5.112" rx="5.57" ry="5.112" transform="translate(1057.743 834.372)"/>
        <path id="Path_535" data-name="Path 535" d="M1105.353,791.027a.786.786,0,0,1-.306.06.774.774,0,0,1,0-1.548.646.646,0,0,1,.078.008c-.242-1.547-.542-3.373-.744-4.271-.151-.676-.639-2.32-.864-3.067l.033-.93a1.3,1.3,0,0,0-1.252-1.3h-.063a1.282,1.282,0,0,0-.877.344,1.3,1.3,0,0,0-1.221-.835c-.036,0-.072,0-.112.005a1.219,1.219,0,0,1-2.2-.509,1.151,1.151,0,0,0-.117.005,1.3,1.3,0,0,0-1.189,1.3c0,.022,0,.044,0,.065l-.416-1.33a.7.7,0,0,1-.726-.2,1.153,1.153,0,0,0-.511-.241,2.123,2.123,0,0,0-.687-.067.669.669,0,0,1-.582-.245,1.286,1.286,0,0,0-.128,1.058l.812,2.6a.916.916,0,0,0-.016.168.737.737,0,0,0,.011.127,13.206,13.206,0,0,1,.244,1.712l-.008-.014a1.252,1.252,0,0,0-.988-.585l-.073,0a1.245,1.245,0,0,0-.524.115,1.2,1.2,0,0,0-.193.111l-.054.04a1.2,1.2,0,0,0-.1.088,1.288,1.288,0,0,0-.322.524,1.512,1.512,0,0,0-.059.284l-.107.935-.095.952,0,.034a1.522,1.522,0,0,0,.42.963l2.224,2.32a9.318,9.318,0,0,0,.744,1.246c.222-.113.431-.248.646-.373a.781.781,0,0,1,1.059.277.757.757,0,0,1,.093.492.8.8,0,0,1-.078,1.4c.029.043.059.092.084.131a1.341,1.341,0,0,0,.9.758,6.815,6.815,0,0,0,.865.05h0a29.4,29.4,0,0,0,6.257-1.045l.363-.1-.055-.373C1105.513,792.1,1105.449,791.664,1105.353,791.027Z"/>
        <g id="Group_144" data-name="Group 144">
          <path id="Path_536" data-name="Path 536" d="M1051.449,841.174s.043-3.224.154-4.3c.057-.558.379-2.22.379-2.22s1.208-.419,2.6-.826a.144.144,0,0,0,.208.114.229.229,0,0,0,.178-.224c.432-.122.864-.235,1.261-.327.011.072.04.271.149.342.185.122.532-.21.525-.31.364-.59,1.146.247,1.131.488a4.028,4.028,0,0,0,.535,2.7c.637.99-.461,2.986-1.344,3.717-.022.017-.047.035-.072.051-.164.107-.235.566-.543.645A21.615,21.615,0,0,1,1051.449,841.174Z"/>
          <g id="Group_138" data-name="Group 138">
            <path id="Path_537" data-name="Path 537" d="M1052.6,835.507a.591.591,0,0,1-.577-.471l-.148-.714a.59.59,0,1,1,1.156-.239l.148.715a.59.59,0,0,1-.458.7A.627.627,0,0,1,1052.6,835.507Z"/>
          </g>
          <g id="Group_139" data-name="Group 139">
            <path id="Path_538" data-name="Path 538" d="M1054.007,835.569a.59.59,0,0,1-.589-.559l-.069-1.3a.59.59,0,1,1,1.179-.063l.069,1.3a.591.591,0,0,1-.558.621Z"/>
          </g>
          <g id="Group_140" data-name="Group 140">
            <path id="Path_539" data-name="Path 539" d="M1055.645,835.013a.591.591,0,0,1-.589-.558l-.071-1.3a.59.59,0,0,1,1.179-.064l.071,1.3a.59.59,0,0,1-.557.621Z"/>
          </g>
          <g id="Group_141" data-name="Group 141">
            <path id="Path_540" data-name="Path 540" d="M1057.257,834.784a.58.58,0,0,1-.179-.028.59.59,0,0,1-.384-.741l.319-1a.59.59,0,0,1,1.125.358l-.319,1A.59.59,0,0,1,1057.257,834.784Z"/>
          </g>
          <g id="Group_143" data-name="Group 143">
            <g id="Group_142" data-name="Group 142">
              <path id="Path_541" data-name="Path 541" d="M1056.882,838.063c.282-.389.589-.757.9-1.123s.631-.722.958-1.073l-.17.537c0-.182-.005-.366.006-.549,0-.091.013-.182.023-.271l.018-.128a.209.209,0,0,1,.011-.046l.01.016.005.008c0-.01.006.02.019.053a.664.664,0,0,0,.048.092.547.547,0,0,0,.154.153.563.563,0,0,0,.256.092.551.551,0,0,0,.558-.309c.072-.2.036-.137.045-.151v-.008a.211.211,0,0,0,0-.035.548.548,0,1,1-1.095-.043v-.087c.009-.015-.026.041.047-.158a.561.561,0,0,1,.561-.318.505.505,0,0,1,.261.094.592.592,0,0,1,.157.162.625.625,0,0,1,.05.095l.02.056.01.026.016.05.033.091.054.147c.032.1.06.188.083.281a5.178,5.178,0,0,1,.111.557.619.619,0,0,1-.119.471l-.05.066c-.291.382-.586.76-.9,1.125s-.619.732-.954,1.077a.739.739,0,0,1-1.128-.95Z"/>
            </g>
          </g>
        </g>
        <path id="Path_542" data-name="Path 542" d="M1103.492,781.47c-.429-.143-1.356-.391-2.084-.58l-.1-.207h0a.987.987,0,0,0-.554-.391l-1.628-.439-.019-.01a.761.761,0,0,0-.361-.093l-.843-.227a8.091,8.091,0,0,0-1.105-.6c-.086.064-.349-.145-.349-.145a5.6,5.6,0,0,0-1.513-.39.71.71,0,0,0-.113,0c-.25.011-.732-.451-1.09-.294a5.774,5.774,0,0,0-.64.341,1.72,1.72,0,0,0-.077.5,1.689,1.689,0,0,0,.077.505s.786,2.79.8,2.865c.042.221.088.466.13.726a1.632,1.632,0,0,0-.493-.1l-.076,0a1.649,1.649,0,0,0-.689.151,1.6,1.6,0,0,0-.264.153l-.062.045c-.046.037-.091.076-.132.116a1.7,1.7,0,0,0-.43.708,1.648,1.648,0,0,0-.072.358l-.054.452-.052.475-.008.091c.478.554.915,1.049,1.209,1.356.433.453,1.607,1.519,2.124,1.986l.416.748a.789.789,0,0,0,.69.406.776.776,0,0,0,.382-.1.787.787,0,0,0,.306-1.072l-.137-.248.236-.086.427.582.007.007a.923.923,0,0,0,0,.094l0,.039c0,.026.009.054.016.081a.73.73,0,0,0,.157.3.857.857,0,0,0,.158.145l.04.031.1.079.171.133.329.251.655.489h0a.964.964,0,0,0,.665.088l2.841-.641a7.083,7.083,0,0,0,3.074-.364c-.253-1.631-.581-3.646-.8-4.6-.139-.622-.536-1.977-.853-3.032l.019-.532C1103.769,781.565,1103.619,781.512,1103.492,781.47Zm-5.533,8.347-.057-.013-.009,0-.018-.006c-.023-.01-.01-.006-.016-.01a.65.65,0,0,0,.127.036Zm1.51-.973-.336-.115-.366-.13a.78.78,0,0,0-.15-.475l-.2-.278a.208.208,0,0,1-.015-.108,5.719,5.719,0,0,1,1.363,1.04Z"/>
        <path id="Path_543" data-name="Path 543" d="M1103.964,785.369c-.151-.677-.653-2.362-.877-3.105l.035-.954a.877.877,0,0,0-.844-.907.864.864,0,0,0-.907.844l-.012.315-.275-.054-.071-.8a.875.875,0,1,0-1.744.156l.033.378a.191.191,0,0,1-.241.178c-.074-.011-.217-.051-.282-.3l-.081-.919a.876.876,0,0,0-1.745.155l.057.641a.767.767,0,0,1-.126.459c-.112.122-.307.064-.473-.043l-.857-2.741a.876.876,0,1,0-1.672.522l.846,2.708a.584.584,0,0,0-.027.234,8.16,8.16,0,0,1,.044,3.877l-.233-.244-.085-.392-.088-.434-.041-.207c-.006-.029-.011-.059-.016-.075a.85.85,0,0,0-.01-.174c0-.027,0-.03-.011-.077l-.008-.034,0-.017-.024-.071a.779.779,0,0,0-.034-.078l-.019-.038-.017-.028a.819.819,0,0,0-.652-.388.829.829,0,0,0-.394.074.781.781,0,0,0-.118.067l-.041.03a.8.8,0,0,0-.07.062.835.835,0,0,0-.206.327,1,1,0,0,0-.05.243l-.006.056-.018.146-.029.242-.051.464-.091.917h0a1.093,1.093,0,0,0,.3.693l2.27,2.369a7.909,7.909,0,0,0,2.17,2.782.928.928,0,0,0,.108.067c.243.133.436.85.867.906,2.327.3,6.952-.983,6.952-.983S1104.345,787.065,1103.964,785.369Zm0,0c-.151-.677-.653-2.362-.877-3.105l.035-.954a.877.877,0,0,0-.844-.907.864.864,0,0,0-.907.844l-.012.315-.275-.054-.071-.8a.875.875,0,1,0-1.744.156l.033.378a.191.191,0,0,1-.241.178c-.074-.011-.217-.051-.282-.3l-.081-.919a.876.876,0,0,0-1.745.155l.057.641a.767.767,0,0,1-.126.459c-.112.122-.307.064-.473-.043l-.857-2.741a.876.876,0,1,0-1.672.522s.809,2.885.819,2.942a8.16,8.16,0,0,1,.044,3.877l-.233-.244-.085-.392-.088-.434-.041-.207c-.006-.029-.011-.059-.016-.075a.85.85,0,0,0-.01-.174c0-.027,0-.03-.011-.077l-.008-.034,0-.017-.024-.071a.779.779,0,0,0-.034-.078l-.019-.038-.017-.028a.819.819,0,0,0-.652-.388.829.829,0,0,0-.394.074.781.781,0,0,0-.118.067l-.041.03a.8.8,0,0,0-.07.062.835.835,0,0,0-.206.327,1,1,0,0,0-.05.243l-.006.056-.018.146-.029.242-.051.464-.091.917h0a1.093,1.093,0,0,0,.3.693l2.27,2.369a7.909,7.909,0,0,0,2.17,2.782.928.928,0,0,0,.108.067c.243.133.436.85.867.906,2.327.3,6.952-.983,6.952-.983S1104.345,787.065,1103.964,785.369Zm-11.29-.551,0-.011,0-.02c-.005-.028,0-.013,0-.022a.773.773,0,0,0,.04.146l-.013-.03Z"/>
        <g id="Group_148" data-name="Group 148">
          <path id="Path_544" data-name="Path 544" d="M1101.005,837.115c-4.869-2.374-12.245-3.888-20.5-3.888s-15.633,1.514-20.5,3.888c-7.368-2.634-12.079-4.345-12.079,1.857,0,9.271,10.518,17.049,24.708,19.186,2.522.379,5.16-.254,7.874-.254s5.359.633,7.88.253c14.188-2.138,24.7-9.918,24.7-19.185C1113.085,832.77,1108.373,834.481,1101.005,837.115Z"/>
          <g id="Group_145" data-name="Group 145">
            <path id="Path_545" data-name="Path 545" d="M1094.617,840.257c0,2.007-.51,3.631-1.139,3.631s-1.141-1.624-1.141-3.631.511-3.631,1.141-3.631S1094.617,838.251,1094.617,840.257Z"/>
            <path id="Path_546" data-name="Path 546" d="M1066.388,840.257c0,2.007.511,3.631,1.14,3.631s1.139-1.624,1.139-3.631-.51-3.631-1.139-3.631S1066.388,838.251,1066.388,840.257Z"/>
            <path id="Path_547" data-name="Path 547" d="M1093.82,838.972c0,8.6-5.963,15.58-13.318,15.58s-13.317-6.976-13.317-15.58,5.962-15.578,13.317-15.578S1093.82,830.37,1093.82,838.972Z"/>
          </g>
          <g id="Group_147" data-name="Group 147">
            <g id="Group_146" data-name="Group 146">
              <path id="Path_548" data-name="Path 548" d="M1098.1,838.839l4.66-22.038.139,1.756-6.777-25.7,9.575-2.525,6.778,25.7a4.039,4.039,0,0,1,.133.967l.005.79.472,21.356Z"/>
            </g>
          </g>
        </g>
        <g id="Group_149" data-name="Group 149">
          <rect id="Rectangle_22" data-name="Rectangle 22" width="9.958" height="1.192" transform="matrix(0.968, -0.25, 0.25, 0.968, 1096.087, 792.675)"/>
        </g>
      </g>
    </g>
    <g id="Group_231" data-name="Group 231">
      <g id="Group_159" data-name="Group 159">
        <g id="Group_152" data-name="Group 152">
          <path id="Path_549" data-name="Path 549" d="M1166.737,761.121c1.894,1.474.542,6.374-3.017,10.944s-7.981,7.079-9.874,5.6-.541-6.375,3.019-10.944S1164.846,759.646,1166.737,761.121Z" fill="#655353"/>
          <path id="Path_550" data-name="Path 550" d="M1159.726,767.923c-3.027,3.885-4.449,8-3.646,10.056,2.18-.492,5.122-2.683,7.64-5.914,3.027-3.885,4.449-8,3.645-10.056C1165.186,762.5,1162.242,764.693,1159.726,767.923Z" fill="#362c2c"/>
        </g>
        <g id="Group_153" data-name="Group 153">
          <path id="Path_551" data-name="Path 551" d="M1145.364,742.746c1.62,1.77-.533,6.375-4.808,10.283s-9.054,5.644-10.673,3.873.534-6.376,4.81-10.284S1143.745,740.975,1145.364,742.746Z" fill="#655353"/>
          <path id="Path_552" data-name="Path 552" d="M1129.351,755.112c2.186.29,5.84-2.1,8.875-5.994a19.728,19.728,0,0,0,3.6-6.818,18.673,18.673,0,0,0-7.132,4.318C1131.479,749.556,1129.466,752.886,1129.351,755.112Z" fill="#362c2c"/>
        </g>
        <path id="Path_553" data-name="Path 553" d="M1145.9,748.254a5.277,5.277,0,1,1-5.258-4.826A5.055,5.055,0,0,1,1145.9,748.254Z"/>
        <path id="Path_554" data-name="Path 554" d="M1166.547,767.769a5.731,5.731,0,1,1-5.71-5.242A5.491,5.491,0,0,1,1166.547,767.769Z"/>
        <path id="Path_555" data-name="Path 555" d="M1101.678,786.759c-.191.656-.553,2.346-.708,3.084l-.477.8a.857.857,0,1,0,1.473.877l.159-.265.213.175-.316.721a.858.858,0,1,0,1.573.687l.139-.323c.114-.145.225-.119.3-.057a.328.328,0,0,1,.1.389l-.361.824a.858.858,0,1,0,1.571.689l.242-.548a.757.757,0,0,1,.335-.365c.2-.067.359.175.439.395l-.085.837a.858.858,0,0,0,1.707.178l.093-.9a.483.483,0,0,0,.042-.061,8.11,8.11,0,0,1,1.794-3.321l.077.285-.112.378-.129.414-.06.194-.024.079a.327.327,0,0,1,.076-.1.841.841,0,0,0-.148.251.884.884,0,0,0-.047.324.833.833,0,0,0,.259.56.761.761,0,0,0,.68.212.955.955,0,0,0,.588-.429l.083-.113.14-.2.262-.375.51-.745a.731.731,0,0,0,.1-.6l-.037-.135-.842-3.126a7.734,7.734,0,0,0-.551-3.389.9.9,0,0,0-.06-.107c-.147-.228.024-.935-.319-1.186-1.856-1.357-6.435-2.427-6.435-2.427S1102.147,785.124,1101.678,786.759Zm8.2,4.949c-.014.011-.028.019-.041.029C1109.848,791.727,1109.86,791.717,1109.875,791.708Zm1.226.883a.809.809,0,0,0,.04-.3v.006A.758.758,0,0,1,1111.1,792.591Z" fill="#8c675e"/>
        <path id="Path_556" data-name="Path 556" d="M1173.773,771.972s-3.069-2.232-4.877-2.65c-.334-.077-.675.4-.893.432a.587.587,0,0,0-.1.019,6.241,6.241,0,0,0-2.36,1.452l-2.353,1.135-.1.048a.6.6,0,0,0-.314.381l-.185.7-.091.358-.046.189-.027.111a.778.778,0,0,0,.049.585.613.613,0,0,0,.488.3.659.659,0,0,0,.479-.137.71.71,0,0,0,.174-.2.617.617,0,0,0,.074-.223.266.266,0,0,1-.021.1l.035-.057.087-.14.186-.3.171-.268.215-.1a6.549,6.549,0,0,1-1.081,2.848.347.347,0,0,0-.016.059l-.5.533a.693.693,0,0,0,1.009.949l.466-.494c.176-.067.411-.094.474.059a.63.63,0,0,1-.047.4l-.207.435a.692.692,0,0,0,1.25.6l.312-.655a.268.268,0,0,1,.292-.143c.076.014.152.068.123.214l-.123.255a.692.692,0,1,0,1.248.6l.274-.572.219.037-.078.236a.692.692,0,1,0,1.314.437l.237-.713c.367-.484,1.209-1.6,1.509-2.059C1171.788,775.585,1173.773,771.972,1173.773,771.972Zm-10.08,2.408c0-.013,0-.026,0-.04Zm-1.03-.5,0,0a.672.672,0,0,0-.163.184A.59.59,0,0,1,1162.663,773.876Z" fill="#8c675e"/>
        <g id="Group_157" data-name="Group 157">
          <path id="Path_557" data-name="Path 557" d="M1135.579,743.058c1.492,5.092,5.259,11.433,10.7,17.414s11.407,10.326,16.336,12.288c2.95,7.072,4.819,11.613,9.311,7.523,6.714-6.113,5.412-18.861-2.4-30.546-1.388-2.078-3.586-3.57-5.377-5.536s-3.074-4.3-5.013-5.874c-10.9-8.868-23.471-11.355-30.184-5.243C1124.466,737.173,1128.813,739.459,1135.579,743.058Z" fill="#465e8f"/>
          <g id="Group_154" data-name="Group 154">
            <path id="Path_558" data-name="Path 558" d="M1142.065,745.613c1.455-1.323,2.969-2.026,3.384-1.569s-.426,1.9-1.879,3.22-2.968,2.026-3.382,1.569S1140.615,746.935,1142.065,745.613Z" fill="#8c675e"/>
            <path id="Path_559" data-name="Path 559" d="M1160.681,766.059c1.454-1.322,2.294-2.764,1.879-3.219s-1.929.245-3.383,1.569-2.3,2.764-1.88,3.22S1159.228,767.383,1160.681,766.059Z" fill="#8c675e"/>
            <path id="Path_560" data-name="Path 560" d="M1141.662,747.036c6.231-5.673,15.216-5.952,20.065-.626s3.728,14.246-2.5,19.919A16.07,16.07,0,0,1,1146,770.595c-1.3-.214-2.178-2.02-3.326-2.617-1.165-.607-2.595-.014-3.513-1.021-.934-1.026-.437-2.222-.934-3.465-.438-1.1-1.92-2.22-2.027-3.415A16.024,16.024,0,0,1,1141.662,747.036Z" fill="#190f28"/>
          </g>
          <g id="Group_156" data-name="Group 156">
            <g id="Group_155" data-name="Group 155">
              <path id="Path_561" data-name="Path 561" d="M1140.655,744.817l-21.09,14.978,1.368-2.067-8.948,26.455-9.188-3.108,8.948-26.455a4.467,4.467,0,0,1,.9-1.549l.467-.518,17.31-19.225Z" fill="#465e8f"/>
            </g>
          </g>
        </g>
        <g id="Group_158" data-name="Group 158">
          <rect id="Rectangle_23" data-name="Rectangle 23" width="1.192" height="9.755" transform="translate(1102.737 781.253) rotate(-71.515)" fill="#c9c9c9"/>
        </g>
      </g>
      <g id="Group_177" data-name="Group 177">
        <g id="Group_161" data-name="Group 161">
          <g id="Group_160" data-name="Group 160">
            <path id="Path_562" data-name="Path 562" d="M1036.819,781.847c-.275-1.663,3.7-4.82,8.874-7.05s9.591-2.688,9.864-1.023-3.7,4.82-8.873,7.05S1037.092,783.512,1036.819,781.847Z" fill="#655353"/>
            <path id="Path_563" data-name="Path 563" d="M1045.616,779.06c4.4-1.9,7.921-4.458,8.711-6.207-1.705-.318-4.976.368-8.634,1.944-4.4,1.9-7.921,4.458-8.712,6.207C1038.686,781.322,1041.958,780.637,1045.616,779.06Z" fill="#362c2c"/>
          </g>
          <path id="Path_564" data-name="Path 564" d="M1043.978,778.36c-.363-.823.682-2.079,2.333-2.807s3.284-.65,3.647.172-.682,2.079-2.333,2.806S1044.34,779.182,1043.978,778.36Z" fill="#a87c71"/>
        </g>
        <g id="Group_163" data-name="Group 163">
          <g id="Group_162" data-name="Group 162">
            <path id="Path_565" data-name="Path 565" d="M1042.522,801.013c.092,1.684,4.655,3.905,10.19,4.96s9.947.544,9.852-1.139-4.656-3.9-10.19-4.959S1042.427,799.329,1042.522,801.013Z" fill="#655353"/>
            <path id="Path_566" data-name="Path 566" d="M1051.713,801.828c4.706.9,8.7,2.635,9.85,4.171-1.595.679-4.938.72-8.851-.026-4.706-.9-8.7-2.635-9.85-4.172C1044.458,801.121,1047.8,801.081,1051.713,801.828Z" fill="#362c2c"/>
          </g>
          <path id="Path_567" data-name="Path 567" d="M1050.266,802.865c-.175.883,1.117,1.883,2.887,2.235s3.346-.076,3.522-.958-1.116-1.881-2.886-2.234S1050.442,801.985,1050.266,802.865Z" fill="#a87c71"/>
        </g>
        <g id="Group_170" data-name="Group 170">
          <g id="Group_164" data-name="Group 164">
            <path id="Path_568" data-name="Path 568" d="M1037.418,765.8s3.087-1.036,4.144-1.288c.549-.132,2.233-.375,2.233-.375s.775,1.036,1.591,2.252a.153.153,0,0,0-.044.241.226.226,0,0,0,.268.1c.25.379.492.762.7,1.118-.066.035-.246.13-.281.26-.058.22.365.448.459.406.676.158.119,1.2-.116,1.266a4.1,4.1,0,0,0-2.405,1.423c-.746.952-2.988.55-3.959-.065a.668.668,0,0,1-.072-.052c-.153-.125-.611-.04-.783-.312A22.284,22.284,0,0,1,1037.418,765.8Z" fill="#a87c71"/>
          </g>
          <g id="Group_165" data-name="Group 165">
            <path id="Path_569" data-name="Path 569" d="M1043.741,765.427a.6.6,0,0,1-.309-1.114l.635-.382a.6.6,0,0,1,.618,1.028l-.635.382A.6.6,0,0,1,1043.741,765.427Z" fill="#a87c71"/>
          </g>
          <g id="Group_166" data-name="Group 166">
            <path id="Path_570" data-name="Path 570" d="M1044.117,766.817a.6.6,0,0,1-.229-1.153l1.221-.5a.6.6,0,0,1,.458,1.108l-1.221.5A.6.6,0,0,1,1044.117,766.817Z" fill="#a87c71"/>
          </g>
          <g id="Group_167" data-name="Group 167">
            <path id="Path_571" data-name="Path 571" d="M1045.155,768.226a.6.6,0,0,1-.23-1.154l1.219-.505a.6.6,0,0,1,.458,1.108l-1.218.505A.6.6,0,0,1,1045.155,768.226Z" fill="#a87c71"/>
          </g>
          <g id="Group_168" data-name="Group 168">
            <path id="Path_572" data-name="Path 572" d="M1045.871,769.718a.6.6,0,0,1-.014-1.2l1.054-.025a.61.61,0,0,1,.614.585.6.6,0,0,1-.585.613l-1.054.026Z" fill="#a87c71"/>
          </g>
          <g id="Group_169" data-name="Group 169">
            <path id="Path_573" data-name="Path 573" d="M1042.065,770.061c.458.146.9.321,1.349.5s.884.372,1.32.571l-.582.013c.172-.065.346-.127.524-.177.089-.027.179-.049.267-.07l.128-.024a.146.146,0,0,1,.047-.005l-.012.015-.007.008c.009-.006-.016.012-.043.036a.511.511,0,0,0-.07.075.566.566,0,0,0-.1.464.558.558,0,0,0,.165.293.566.566,0,0,0,.312.148.555.555,0,0,0,.114,0l.049-.006h.005l.009,0a.188.188,0,0,0,.033-.015.556.556,0,1,1-.326-1.064l.068-.023.018-.006.008,0,.051-.007a.61.61,0,0,1,.117,0,.559.559,0,0,1,.316.148.567.567,0,0,1,.169.294.5.5,0,0,1-.007.273.584.584,0,0,1-.1.2.549.549,0,0,1-.073.078l-.046.039-.022.017-.042.034-.076.062-.124.1c-.079.062-.158.121-.24.174a5,5,0,0,1-.5.294.635.635,0,0,1-.505.04l-.079-.027c-.453-.155-.905-.317-1.35-.495s-.889-.357-1.322-.567a.751.751,0,0,1,.555-1.392Z" fill="#a87c71"/>
          </g>
        </g>
        <path id="Path_574" data-name="Path 574" d="M1107.423,790.087a.822.822,0,0,0-1.048-.508l-.28.1c-.015-.084-.031-.171-.047-.259l.676-.336a.823.823,0,1,0-.732-1.475l-.323.16a.18.18,0,0,1-.234-.153.317.317,0,0,1,.164-.347l.776-.384a.823.823,0,1,0-.73-1.476l-.544.269a.717.717,0,0,1-.444.046c-.178-.069-.162-.34-.092-.549l.6-.575c.327-.316-.827-1.132-1.154-.816l-.6.225a.335.335,0,0,0-.082.033,7.671,7.671,0,0,1-3.382,1.362l.134-.287.315-.208.351-.226.167-.106c.024-.015.047-.03.06-.04a.762.762,0,0,0,.146-.067.586.586,0,0,0,.062-.035l.027-.017a.606.606,0,0,0,.062-.048c.019-.017.037-.034.055-.053l.026-.028c.017-.033-.02.055.111-.171a.775.775,0,0,0-.069-.782.746.746,0,0,0-.192-.189.707.707,0,0,0-.077-.046.792.792,0,0,0-.37-.09.639.639,0,0,0-.089.006l-.015,0-.018,0-.034.006-.057.012-.045.012-.052.013-.132.034-.222.058-.424.113-.835.233h0a1.033,1.033,0,0,0-.505.5l-1.3,2.794a7.441,7.441,0,0,0-1.7,2.85,1.074,1.074,0,0,0-.023.116c-.033.26-.595.673-.5,1.071.525,2.141,3.23,5.754,3.23,5.754s4.263-2.419,5.617-3.33c.542-.364,1.851-1.381,2.424-1.829l.843-.293A.822.822,0,0,0,1107.423,790.087Zm-7.129-6.917.016-.01c.022-.013.01,0,.018-.007a.75.75,0,0,0-.114.085l.029-.028A.29.29,0,0,1,1100.294,783.17Zm-.134.124-.006.006Zm-.479,2.077h0Z" fill="#a87c71"/>
        <g id="Group_172" data-name="Group 172">
          <g id="Group_171" data-name="Group 171">
            <path id="Path_575" data-name="Path 575" d="M1050.824,810.561l21.758-5.943-1.236.625,23.579-16.827,5.334,7.474-23.58,16.827a4.382,4.382,0,0,1-.956.519l-.279.107-21.052,8.1Z" fill="#a8e1fe"/>
          </g>
        </g>
        <g id="Group_175" data-name="Group 175">
          <path id="Path_576" data-name="Path 576" d="M1051.491,808.145a17.484,17.484,0,0,0,2.624-8.566c.041-3.642-1.026-4.836-2.062-9.116-.915-4.3-.468-5.841-2.079-9.108a18.832,18.832,0,0,0-5.716-6.657c.934-8.03,1.988-13.366-3.991-12.007-8.379,1.905-10.6,12.413-9.619,25.682.181,2.358,1.293,4.613,1.85,7.065s.532,4.973,1.392,7.177c4.847,12.387,11.39,20.905,19.768,19C1059.9,820.2,1056.077,815.508,1051.491,808.145Z" fill="#a8e1fe"/>
          <g id="Group_174" data-name="Group 174">
            <g id="Group_173" data-name="Group 173">
              <path id="Path_577" data-name="Path 577" d="M1048.7,805.178c-1.816.412-3.388.288-3.518-.284s1.234-1.362,3.05-1.776,3.391-.284,3.519.282S1050.516,804.765,1048.7,805.178Z" fill="#a87c71"/>
              <path id="Path_578" data-name="Path 578" d="M1042.9,779.657c-1.815.412-3.178,1.2-3.049,1.776s1.7.7,3.517.284,3.18-1.212,3.052-1.777S1044.715,779.244,1042.9,779.657Z" fill="#a87c71"/>
              <path id="Path_579" data-name="Path 579" d="M1049.7,804.193c-7.779,1.77-15.312-2.189-16.824-8.841s3.571-13.473,11.35-15.241c6.348-1.442,12.529.926,15.411,5.457.651,1.026-.319,3.774-.319,3.774s2.074,2.944,1.687,4.547C1059.848,798.7,1055.534,802.868,1049.7,804.193Z" fill="#6f3533"/>
            </g>
          </g>
          <path id="Path_580" data-name="Path 580" d="M1036.487,799.126c-2.065.47-4.242-1.33-4.853-4.023s.574-5.25,2.638-5.72,4.24,1.331,4.851,4.019S1038.556,798.656,1036.487,799.126Z" fill="#42201e"/>
          <path id="Path_581" data-name="Path 581" d="M1035.7,799.3c-2.064.469-4.235-1.332-4.847-4.024s.568-5.25,2.633-5.719,4.24,1.33,4.851,4.018S1037.772,798.835,1035.7,799.3Z" fill="#5e2d2b"/>
        </g>
        <g id="Group_176" data-name="Group 176">
          <rect id="Rectangle_24" data-name="Rectangle 24" width="1.192" height="9.201" transform="matrix(0.813, -0.582, 0.582, 0.813, 1094.025, 789.05)" fill="#c9c9c9"/>
        </g>
      </g>
      <g id="Group_197" data-name="Group 197">
        <g id="Group_195" data-name="Group 195">
          <g id="Group_184" data-name="Group 184">
            <path id="Path_582" data-name="Path 582" d="M1143.7,847.114s-2.095-.662-2.763-.972c-.346-.162-1.333-.787-1.333-.787s.106-1.226.277-2.621c.1-.006.129-.1.14-.175a.187.187,0,0,0-.09-.212c.056-.433.117-.865.181-1.26a.326.326,0,0,0,.272-.074.511.511,0,0,0-.039-.557c-.272-.459.522-1.04.677-.98a2.086,2.086,0,0,0,1.932.011c.848-.413,1.809,1.012,2.01,1.991.005.024.008.05.011.077.018.177.3.332.251.64A31.651,31.651,0,0,1,1143.7,847.114Z" fill="#f1bfbe"/>
            <g id="Group_178" data-name="Group 178">
              <path id="Path_583" data-name="Path 583" d="M1139.458,845.307a.487.487,0,0,1,0-.974l.515,0h0a.487.487,0,0,1,0,.975l-.515,0Z" fill="#f6bfba"/>
            </g>
            <g id="Group_179" data-name="Group 179">
              <path id="Path_584" data-name="Path 584" d="M1140.456,843.982a.5.5,0,0,1-.1-.01l-.874-.184a.487.487,0,1,1,.2-.953l.874.184a.487.487,0,0,1-.1.963Z" fill="#f6bfba"/>
            </g>
            <g id="Group_180" data-name="Group 180">
              <path id="Path_585" data-name="Path 585" d="M1140.608,842.322a.493.493,0,0,1-.1-.01l-.875-.181a.487.487,0,1,1,.2-.954l.875.181a.487.487,0,0,1-.1.964Z" fill="#f6bfba"/>
            </g>
            <g id="Group_181" data-name="Group 181">
              <path id="Path_586" data-name="Path 586" d="M1140.964,840.752a.484.484,0,0,1-.324-.124l-.556-.5a.487.487,0,1,1,.648-.727l.556.5a.487.487,0,0,1-.324.851Z" fill="#f6bfba"/>
            </g>
            <g id="Group_183" data-name="Group 183">
              <g id="Group_182" data-name="Group 182">
                <path id="Path_587" data-name="Path 587" d="M1143.3,841.143c-.17-.353-.313-.716-.456-1.08-.07-.182-.132-.366-.2-.55s-.136-.365-.19-.554l.463.372c-.122-.029-.243-.064-.361-.1-.059-.022-.119-.04-.174-.065l-.076-.033c-.013-.006-.016-.009-.017-.015l.028-.005.021,0a.445.445,0,0,0,.265-.136.477.477,0,0,0,.107-.178.467.467,0,0,0-.09-.44.5.5,0,0,0-.113-.094h-.005l-.012-.006a.275.275,0,0,0-.048-.017.453.453,0,0,1-.3.853.537.537,0,0,1-.071-.027l-.017-.008-.009,0a.462.462,0,0,1-.207-.539.411.411,0,0,1,.107-.18.486.486,0,0,1,.278-.141l.033-.005.052-.006.078-.009.115-.013c.071-.01.139-.012.207-.016.135,0,.266,0,.4.009a.512.512,0,0,1,.418.281l.046.092c.088.175.158.357.237.536s.157.357.23.538c.142.364.284.728.4,1.1a.611.611,0,0,1-1.134.446Z" fill="#f6bfba"/>
              </g>
            </g>
          </g>
          <g id="Group_186" data-name="Group 186">
            <g id="Group_185" data-name="Group 185">
              <path id="Path_588" data-name="Path 588" d="M1161.6,813.041c-1.134,1.249-6.076.094-11.036-2.578s-8.064-5.85-6.928-7.1,6.076-.092,11.037,2.579S1162.734,811.794,1161.6,813.041Z" fill="#655353"/>
              <path id="Path_589" data-name="Path 589" d="M1153.952,807.876c-4.218-2.272-8.413-3.441-10.274-2.975.808,1.534,3.378,3.672,6.885,5.562,4.218,2.272,8.412,3.441,10.274,2.975C1160.028,811.9,1157.459,809.765,1153.952,807.876Z" fill="#362c2c"/>
            </g>
            <path id="Path_590" data-name="Path 590" d="M1154.561,808.3c-.357.825-1.989.912-3.644.193s-2.707-1.97-2.35-2.794,1.989-.91,3.645-.192S1154.919,807.477,1154.561,808.3Z" fill="#f1bfbe"/>
          </g>
          <g id="Group_188" data-name="Group 188">
            <g id="Group_187" data-name="Group 187">
              <path id="Path_591" data-name="Path 591" d="M1155.094,835.479c-.481,1.616-5.436,2.715-11.064,2.453s-9.8-1.782-9.317-3.4,5.436-2.714,11.064-2.454S1155.578,833.863,1155.094,835.479Z" fill="#655353"/>
              <path id="Path_592" data-name="Path 592" d="M1145.965,834.133c-4.785-.222-9.073.54-10.549,1.766,1.393,1.033,4.635,1.849,8.614,2.033,4.786.223,9.073-.539,10.549-1.766C1153.186,835.134,1149.944,834.318,1145.965,834.133Z" fill="#362c2c"/>
            </g>
            <path id="Path_593" data-name="Path 593" d="M1147.131,835.48c-.034.9-1.523,1.571-3.327,1.5s-3.237-.853-3.2-1.751,1.524-1.57,3.326-1.5S1147.166,834.581,1147.131,835.48Z" fill="#f1bfbe"/>
          </g>
          <path id="Path_594" data-name="Path 594" d="M1109.165,785.389c-.6-.2-2.184-.608-2.819-.769l-1.565-.859a.778.778,0,0,0-.748,1.364l1,.549-.134.148-1.641-.776a.778.778,0,1,0-.665,1.406l1.341.634a.167.167,0,0,1-.018.225.3.3,0,0,1-.373.074l-.037.046-1.767-.74a.777.777,0,1,0-.6,1.434l1.726.723a.374.374,0,0,1,.086.136c.046.158-.124.289-.3.364l-1.825-.353a.778.778,0,1,0-.294,1.528l1.818.351a.415.415,0,0,0,.121.082,7.252,7.252,0,0,1,2.967,1.741l-.292.067-.337-.116-.37-.132-.177-.063c-.024-.009-.049-.018-.064-.022a.762.762,0,0,0-.136-.072c-.022-.009-.024-.012-.063-.026l-.03-.01-.015-.005-.063-.015c-.025,0-.05-.008-.076-.01l-.037,0h-.036a.725.725,0,0,0-.282.064.735.735,0,0,0-.432.722l0,.04c0,.026.009.053.016.081a.76.76,0,0,0,.157.3.835.835,0,0,0,.159.144l.04.031.1.079.171.133.329.251.656.489h0a.965.965,0,0,0,.665.088l2.841-.641a7.047,7.047,0,0,0,3.11-.376,1.031,1.031,0,0,0,.1-.05c.212-.126.847.056,1.086-.246,1.3-1.63,2.438-5.738,2.438-5.738S1110.628,785.877,1109.165,785.389Zm-5.59,8.335-.009,0-.018-.007c-.023-.009-.01-.005-.016-.009a.749.749,0,0,0,.127.035l-.026,0Z" fill="#f6bfba"/>
          <path id="Path_595" data-name="Path 595" d="M1159.258,791.32c-6.258-1.843-5.187,4.225-4.77,13.059a17.791,17.791,0,0,0-6.6,6.308c-1.848,3.219-1.493,4.813-2.7,9.133-1.327,4.284-2.489,5.428-2.681,9.137a19.124,19.124,0,0,0,1.779,8.754c-4.832,6.678-8.427,10.9-2.431,12.668,8.4,2.475,15.6-5.765,21.328-18.052,1.016-2.187,1.146-4.745,1.871-7.205s2.005-4.688,2.333-7.075C1169.241,804.619,1167.658,793.794,1159.258,791.32Z" fill="#4a848f"/>
          <g id="Group_190" data-name="Group 190">
            <g id="Group_189" data-name="Group 189">
              <path id="Path_596" data-name="Path 596" d="M1155.492,808.4c1.818.535,3.154,1.431,2.988,2s-1.778.6-3.6.064-3.155-1.433-2.987-2S1153.675,807.866,1155.492,808.4Z" fill="#414042"/>
              <path id="Path_597" data-name="Path 597" d="M1147.955,833.984c1.818.536,3.428.508,3.6-.063s-1.169-1.468-2.986-2-3.427-.509-3.6.063S1146.137,833.449,1147.955,833.984Z" fill="#414042"/>
              <path id="Path_598" data-name="Path 598" d="M1154.115,808.779c7.8,2.3,12.529,9.565,10.565,16.231s-9.879,10.207-17.677,7.908c-6.36-1.874-10.678-7.055-10.989-12.518-.07-1.234,2.162-3.2,2.162-3.2s-.38-3.649.76-4.881C1142.355,808.619,1148.269,807.056,1154.115,808.779Z" fill="#414042"/>
            </g>
          </g>
          <g id="Group_193" data-name="Group 193">
            <g id="Group_192" data-name="Group 192">
              <g id="Group_191" data-name="Group 191">
                <path id="Path_599" data-name="Path 599" d="M1158.423,803.228l-5.357-1.769-5.366-1.738-10.746-3.425.891.148-12.715-1.251-6.359-.6-6.362-.566.54-7.958,6.379.3,6.383.265,12.767.477a2.883,2.883,0,0,1,.486.059l.405.088,11.022,2.391,7.039,1.344,3.386,1.628Z" fill="#4a848f"/>
              </g>
            </g>
          </g>
          <g id="Group_194" data-name="Group 194">
            <path id="Path_600" data-name="Path 600" d="M1164.418,821.4c1.995.745,2.832,3.456,1.861,6.057s-3.376,4.1-5.371,3.355-2.83-3.456-1.862-6.053S1162.421,820.66,1164.418,821.4Z" fill="#41353e"/>
            <path id="Path_601" data-name="Path 601" d="M1165.176,821.687c1.993.744,2.826,3.455,1.856,6.054s-3.371,4.1-5.366,3.357-2.83-3.455-1.863-6.052S1163.177,820.942,1165.176,821.687Z" fill="#41393e"/>
          </g>
        </g>
        <g id="Group_196" data-name="Group 196">
          <rect id="Rectangle_25" data-name="Rectangle 25" width="8.061" height="1.192" transform="matrix(0.049, -0.999, 0.999, 0.049, 1112.425, 794.08)" fill="#c9c9c9"/>
        </g>
      </g>
      <g id="Group_215" data-name="Group 215">
        <g id="Group_213" data-name="Group 213">
          <g id="Group_199" data-name="Group 199">
            <g id="Group_198" data-name="Group 198">
              <path id="Path_602" data-name="Path 602" d="M1069.808,739.709c2.089-1.181,6.093,1.95,8.943,6.992s3.47,10.089,1.38,11.269-6.093-1.95-8.943-6.993S1067.719,740.89,1069.808,739.709Z" fill="#655353"/>
              <path id="Path_603" data-name="Path 603" d="M1078.267,758.088c.773-2.065-.734-6.162-3.85-9.993a19.717,19.717,0,0,0-5.837-5.037,18.662,18.662,0,0,0,2.608,7.919C1073.33,754.768,1076.124,757.477,1078.267,758.088Z" fill="#362c2c"/>
            </g>
            <path id="Path_604" data-name="Path 604" d="M1075.285,740.474a5.221,5.221,0,1,1-5.82,4A5,5,0,0,1,1075.285,740.474Z"/>
          </g>
          <g id="Group_201" data-name="Group 201">
            <g id="Group_200" data-name="Group 200">
              <path id="Path_605" data-name="Path 605" d="M1093.044,724.632c-1.744,1.648.069,6.4,4.05,10.6s8.62,6.286,10.363,4.636-.07-6.4-4.051-10.606S1094.787,722.983,1093.044,724.632Z" fill="#655353"/>
              <path id="Path_606" data-name="Path 606" d="M1108.117,738.126c-2.2.131-5.671-2.515-8.416-6.62a19.718,19.718,0,0,1-3.1-7.062,18.681,18.681,0,0,1,6.8,4.823C1106.4,732.431,1108.165,735.9,1108.117,738.126Z" fill="#362c2c"/>
            </g>
            <path id="Path_607" data-name="Path 607" d="M1091.975,730.077a5.41,5.41,0,1,0,5.734-4.544A5.183,5.183,0,0,0,1091.975,730.077Z"/>
          </g>
          <g id="Group_208" data-name="Group 208">
            <path id="Path_608" data-name="Path 608" d="M1107.954,719.814s2.519,3.129,3.275,4.233c.393.573,1.435,2.382,1.435,2.382s-.7,1.193-1.574,2.49c-.139-.112-.221-.044-.269.027a.264.264,0,0,0,.025.33c-.274.4-.555.791-.822,1.139-.067-.062-.25-.233-.4-.232-.256,0-.291.55-.2.642.155.807-1.18.509-1.36.269a5.8,5.8,0,0,0-2.6-2.246c-1.331-.535-1.971-3.172-1.792-4.453a.588.588,0,0,1,.02-.1c.056-.211-.247-.7-.046-.975A20.124,20.124,0,0,1,1107.954,719.814Z" fill="#f1bfbe"/>
            <g id="Group_202" data-name="Group 202">
              <path id="Path_609" data-name="Path 609" d="M1112.621,727.861a.683.683,0,0,1-.444-.164l-.692-.592a.684.684,0,0,1,.888-1.04l.692.591a.685.685,0,0,1-.444,1.205Z" fill="#f6bfba"/>
            </g>
            <g id="Group_203" data-name="Group 203">
              <path id="Path_610" data-name="Path 610" d="M1111.764,729.336a.683.683,0,0,1-.507-.225l-1.093-1.208a.684.684,0,0,1,1.015-.918l1.092,1.208a.684.684,0,0,1-.507,1.143Z" fill="#f6bfba"/>
            </g>
            <g id="Group_204" data-name="Group 204">
              <path id="Path_611" data-name="Path 611" d="M1110.8,730.938a.682.682,0,0,1-.507-.225l-1.093-1.206a.684.684,0,0,1,1.014-.918l1.092,1.205a.684.684,0,0,1-.506,1.144Z" fill="#f6bfba"/>
            </g>
            <g id="Group_205" data-name="Group 205">
              <path id="Path_612" data-name="Path 612" d="M1109.027,732.177a.683.683,0,0,1-.625-.406l-.522-1.173a.684.684,0,0,1,1.25-.556l.522,1.172a.684.684,0,0,1-.625.963Z" fill="#f6bfba"/>
            </g>
            <g id="Group_207" data-name="Group 207">
              <g id="Group_206" data-name="Group 206">
                <path id="Path_613" data-name="Path 613" d="M1105.752,726.224a31.282,31.282,0,0,1,.155,3.325l-.236-.55c.147.173.293.349.426.535.068.091.132.187.194.28.028.049.06.095.084.14a.394.394,0,0,1,.029.058l-.015,0-.008,0a.829.829,0,0,0-.135-.074.636.636,0,0,0-.24-.045.672.672,0,0,0-.113.012l-.058.014a.581.581,0,0,0-.112.041.64.64,0,0,0-.348.722.626.626,0,0,0,.046.131.464.464,0,0,0,.029.053l0,0,.006.006.024.022a.635.635,0,1,1,1.007-.773l.049.057.012.015.006.008a.415.415,0,0,1,.03.055.673.673,0,0,1,.047.133.656.656,0,0,1-.345.733.589.589,0,0,1-.171.057.748.748,0,0,1-.119.009.67.67,0,0,1-.249-.05.783.783,0,0,1-.144-.08l-.025-.015-.048-.031-.1-.059-.163-.1c-.1-.068-.2-.137-.3-.21a7.008,7.008,0,0,1-.539-.458.725.725,0,0,1-.228-.465l-.008-.086a31.048,31.048,0,0,1-.157-3.325.857.857,0,0,1,1.709-.081Z" fill="#f6bfba"/>
              </g>
            </g>
          </g>
          <path id="Path_614" data-name="Path 614" d="M1107.919,789.486l-.66-.48a.333.333,0,0,0-.044-.072,7.371,7.371,0,0,1-1.842-2.966l.293.079.249.263.269.293.128.139c.017.019.035.039.046.049a.712.712,0,0,0,.09.131c.016.019.016.023.044.054l.021.023c.009.007.005.007.056.05.019.015.04.03.06.043l.031.02.017.009.007.005a.782.782,0,0,0,.1.045.745.745,0,0,0,.888-.324c.022-.038.03-.057.034-.065l.016-.04a.742.742,0,0,0,.045-.366.636.636,0,0,0-.032-.143l-.011-.033-.023-.056-.018-.041-.022-.048-.054-.121-.091-.2-.178-.381-.357-.75h0a1,1,0,0,0-.555-.392l-2.851-.768a7.149,7.149,0,0,0-2.966-1.133.872.872,0,0,0-.114,0c-.25.011-.732-.451-1.089-.293-1.935.847-4.9,3.992-4.9,3.992s2.983,3.624,4.065,4.753c.433.452,1.606,1.518,2.124,1.985l.416.748a.788.788,0,1,0,1.378-.766l-.138-.247.237-.087.427.582a.788.788,0,1,0,1.271-.932l-.2-.277a.172.172,0,0,1,.1-.249.305.305,0,0,1,.358.1l.486.665a.789.789,0,1,0,1.273-.931l-.344-.469a.706.706,0,0,1-.116-.411c.036-.18.3-.209.505-.177l.639.465a.788.788,0,1,0,.927-1.275Zm-.387-3.553.013.014c.016.019.006.01.01.016a.681.681,0,0,0-.1-.094l.032.023C1107.534,785.932,1107.528,785.928,1107.532,785.933Z" fill="#f6bfba"/>
          <g id="Group_210" data-name="Group 210">
            <path id="Path_615" data-name="Path 615" d="M1066.929,750.038c5.447-.36,12.655-2.727,19.876-6.86s12.916-9.148,15.987-13.661c7.758-1.385,12.736-2.246,9.633-7.671-4.64-8.106-17.731-9.646-31.211-4.413-2.4.93-4.384,2.806-6.759,4.164s-5,2.127-7.017,3.724c-11.337,8.968-16.642,21.034-12,29.138C1058.537,759.884,1061.8,756.029,1066.929,750.038Z" fill="#437356"/>
            <g id="Group_209" data-name="Group 209">
              <path id="Path_616" data-name="Path 616" d="M1070.943,744.095c-1.005-1.756-1.371-3.432-.822-3.747s1.811.851,2.816,2.606,1.371,3.431.82,3.746S1071.945,745.849,1070.943,744.095Z" fill="#e8baab"/>
              <path id="Path_617" data-name="Path 617" d="M1095.631,729.965c-1.005-1.754-2.265-2.92-2.815-2.605s-.183,1.993.819,3.747,2.266,2.921,2.817,2.606S1096.634,731.72,1095.631,729.965Z" fill="#e8baab"/>
              <path id="Path_618" data-name="Path 618" d="M1072.281,744.818c-4.306-7.523,3.877-20.244,3.877-20.244s15.113-.61,19.419,6.914a16.534,16.534,0,0,1,1.33,14.237,23.6,23.6,0,0,1-5.18,6.054c-1.24.709-2.329-.058-3.688.165-1.2.2-2.659,1.43-3.881,1.272A16.48,16.48,0,0,1,1072.281,744.818Z" fill="#190f28"/>
            </g>
          </g>
          <g id="Group_212" data-name="Group 212">
            <g id="Group_211" data-name="Group 211">
              <path id="Path_619" data-name="Path 619" d="M1068.637,744.829l13.369,23.2-.886-.856,19.095,13.9-5.246,7.2-19.1-13.9-.886-.856-19.3-18.558Z" fill="#437356"/>
            </g>
          </g>
        </g>
        <g id="Group_214" data-name="Group 214">
          <rect id="Rectangle_26" data-name="Rectangle 26" width="8.997" height="1.192" transform="translate(1094.027 787.632) rotate(-54.146)" fill="#c9c9c9"/>
        </g>
      </g>
      <g id="Group_230" data-name="Group 230">
        <g id="Group_216" data-name="Group 216">
          <path id="Path_620" data-name="Path 620" d="M1065.157,831.155c2.234-.876,5.76,2.786,7.874,8.179s2.018,10.476-.216,11.35-5.759-2.785-7.873-8.179S1062.924,832.03,1065.157,831.155Z" fill="#655353"/>
          <path id="Path_621" data-name="Path 621" d="M1067.432,840.655c1.8,4.586,4.613,7.909,6.79,8.266.689-2.125.3-5.775-1.191-9.587-1.8-4.586-4.613-7.908-6.789-8.265C1065.552,833.194,1065.937,836.844,1067.432,840.655Z" fill="#362c2c"/>
        </g>
        <g id="Group_217" data-name="Group 217">
          <path id="Path_622" data-name="Path 622" d="M1106.162,830.252c-2.234-.876-5.76,2.786-7.874,8.179s-2.018,10.475.216,11.35,5.759-2.785,7.873-8.179S1108.4,831.127,1106.162,830.252Z" fill="#655353"/>
          <path id="Path_623" data-name="Path 623" d="M1103.887,839.753c-1.8,4.585-4.613,7.908-6.789,8.266-.69-2.126-.305-5.776,1.19-9.588,1.8-4.586,4.613-7.908,6.789-8.265C1105.766,832.291,1105.381,835.94,1103.887,839.753Z" fill="#362c2c"/>
        </g>
        <ellipse id="Ellipse_3" data-name="Ellipse 3" cx="4.876" cy="4.476" rx="4.876" ry="4.476" transform="translate(1096.624 837.782)"/>
        <ellipse id="Ellipse_4" data-name="Ellipse 4" cx="5.57" cy="5.112" rx="5.57" ry="5.112" transform="translate(1063.417 838.291)"/>
        <path id="Path_624" data-name="Path 624" d="M1111.026,794.947a.805.805,0,0,1-.305.059.774.774,0,0,1,0-1.548c.027,0,.051.006.078.008-.242-1.547-.543-3.373-.745-4.27-.151-.677-.639-2.32-.864-3.068l.034-.929a1.3,1.3,0,0,0-1.252-1.3l-.063,0a1.282,1.282,0,0,0-.877.344,1.3,1.3,0,0,0-1.222-.835c-.036,0-.072,0-.112.005a1.219,1.219,0,0,1-2.2-.509c-.038,0-.078,0-.116.005a1.3,1.3,0,0,0-1.189,1.3c0,.022,0,.044,0,.066l-.416-1.331a.7.7,0,0,1-.727-.2,1.139,1.139,0,0,0-.51-.24,2.105,2.105,0,0,0-.688-.067.67.67,0,0,1-.581-.245,1.3,1.3,0,0,0-.189.668,1.318,1.318,0,0,0,.06.389l.812,2.6a.934.934,0,0,0-.016.168.642.642,0,0,0,.012.127,13.241,13.241,0,0,1,.243,1.712l-.008-.013a1.246,1.246,0,0,0-.988-.585c-.025,0-.049,0-.073,0a1.249,1.249,0,0,0-.524.115,1.283,1.283,0,0,0-.193.111l-.054.04c-.034.028-.069.057-.1.088a1.3,1.3,0,0,0-.322.525,1.606,1.606,0,0,0-.059.284l-.107.935-.1.951,0,.034a1.517,1.517,0,0,0,.42.963l2.223,2.321a9.421,9.421,0,0,0,.744,1.245c.222-.112.432-.247.647-.373a.781.781,0,0,1,1.058.278.754.754,0,0,1,.093.491.8.8,0,0,1-.077,1.4c.028.042.059.092.083.131a1.344,1.344,0,0,0,.9.757,6.841,6.841,0,0,0,.866.05h0a29.334,29.334,0,0,0,6.256-1.045l.363-.1-.055-.372C1111.187,796.021,1111.122,795.583,1111.026,794.947Z" fill="#8c675e"/>
        <g id="Group_224" data-name="Group 224">
          <path id="Path_625" data-name="Path 625" d="M1057.123,845.093s.043-3.223.154-4.3c.057-.557.378-2.22.378-2.22s1.209-.419,2.6-.825a.143.143,0,0,0,.207.113.23.23,0,0,0,.179-.223c.431-.123.863-.236,1.26-.328.011.072.04.271.149.343.185.122.533-.211.525-.311.364-.59,1.146.247,1.132.489a4.028,4.028,0,0,0,.534,2.7c.637.989-.461,2.985-1.344,3.716a.64.64,0,0,1-.071.051c-.165.108-.235.566-.544.645A21.6,21.6,0,0,1,1057.123,845.093Z" fill="#f1bfbe"/>
          <g id="Group_218" data-name="Group 218">
            <path id="Path_626" data-name="Path 626" d="M1058.274,839.427a.592.592,0,0,1-.578-.471l-.147-.715A.59.59,0,0,1,1058.7,838l.148.715a.59.59,0,0,1-.458.7A.56.56,0,0,1,1058.274,839.427Z" fill="#f6bfba"/>
          </g>
          <g id="Group_219" data-name="Group 219">
            <path id="Path_627" data-name="Path 627" d="M1059.681,839.488a.589.589,0,0,1-.589-.559l-.069-1.3a.59.59,0,1,1,1.178-.063l.069,1.3a.589.589,0,0,1-.558.62Z" fill="#f6bfba"/>
          </g>
          <g id="Group_220" data-name="Group 220">
            <path id="Path_628" data-name="Path 628" d="M1061.319,838.932a.589.589,0,0,1-.589-.558l-.071-1.3a.59.59,0,1,1,1.178-.064l.071,1.3a.588.588,0,0,1-.557.621Z" fill="#f6bfba"/>
          </g>
          <g id="Group_221" data-name="Group 221">
            <path id="Path_629" data-name="Path 629" d="M1062.93,838.7a.59.59,0,0,1-.562-.77l.319-1a.59.59,0,0,1,1.124.358l-.319,1A.591.591,0,0,1,1062.93,838.7Z" fill="#f6bfba"/>
          </g>
          <g id="Group_223" data-name="Group 223">
            <g id="Group_222" data-name="Group 222">
              <path id="Path_630" data-name="Path 630" d="M1062.555,841.983c.283-.389.59-.758.9-1.123s.63-.722.957-1.074l-.169.537c0-.182-.006-.366.006-.548,0-.091.012-.182.022-.272l.019-.127a.163.163,0,0,1,.011-.046l.009.016.006.008a.478.478,0,0,0,.018.052.59.59,0,0,0,.049.092.534.534,0,0,0,.153.154.575.575,0,0,0,.257.092.55.55,0,0,0,.557-.31c.072-.2.037-.137.046-.15v-.009a.208.208,0,0,0,0-.035.548.548,0,0,1-1.095-.042v-.088c.01-.015-.026.041.048-.158a.566.566,0,0,1,.23-.248.578.578,0,0,1,.331-.07.5.5,0,0,1,.26.1.55.55,0,0,1,.157.162.543.543,0,0,1,.05.1l.02.056.01.026.017.05.032.091.055.147c.031.095.06.187.082.281a4.865,4.865,0,0,1,.112.557.623.623,0,0,1-.12.47l-.05.066c-.29.382-.586.76-.9,1.126s-.618.732-.953,1.077a.74.74,0,0,1-1.129-.95Z" fill="#f6bfba"/>
            </g>
          </g>
        </g>
        <path id="Path_631" data-name="Path 631" d="M1109.165,785.389c-.429-.143-1.356-.391-2.084-.58l-.1-.207h0a1,1,0,0,0-.555-.392l-1.628-.439-.019-.01a.769.769,0,0,0-.361-.092l-.843-.227a7.929,7.929,0,0,0-1.1-.6c-.085.065-.348-.144-.348-.144a5.615,5.615,0,0,0-1.513-.391.872.872,0,0,0-.114,0c-.25.011-.732-.451-1.089-.293a5.455,5.455,0,0,0-.64.341,1.682,1.682,0,0,0-.078.5,1.73,1.73,0,0,0,.078.505s.785,2.79.8,2.865c.041.222.088.467.129.726a1.655,1.655,0,0,0-.493-.1l-.075,0a1.655,1.655,0,0,0-.69.151,1.63,1.63,0,0,0-.264.153l-.061.046a1.607,1.607,0,0,0-.132.115,1.7,1.7,0,0,0-.431.709,1.794,1.794,0,0,0-.072.357l-.054.452-.052.475-.008.091c.478.555.915,1.049,1.21,1.357.433.452,1.606,1.518,2.124,1.985l.416.748a.788.788,0,1,0,1.378-.766l-.138-.247.237-.087.427.582.007.008a.73.73,0,0,0,0,.093l0,.04c0,.026.009.053.016.081a.76.76,0,0,0,.157.3.835.835,0,0,0,.159.144l.04.031.1.079.171.133.329.251.656.489h0a.965.965,0,0,0,.665.088l2.841-.641a7.09,7.09,0,0,0,3.075-.363c-.254-1.632-.582-3.646-.8-4.6-.139-.621-.536-1.977-.852-3.031l.018-.532C1109.443,785.485,1109.293,785.432,1109.165,785.389Zm-5.532,8.348-.058-.013-.009,0-.018-.007c-.023-.009-.01-.005-.016-.009a.749.749,0,0,0,.127.035Zm1.51-.973-.337-.116-.366-.13a.777.777,0,0,0-.15-.475l-.2-.277a.223.223,0,0,1-.015-.109,5.72,5.72,0,0,1,1.363,1.04Z" fill="#d6a6a2"/>
        <path id="Path_632" data-name="Path 632" d="M1109.637,789.289c-.151-.678-.653-2.362-.877-3.1l.036-.954a.876.876,0,0,0-.844-.907.865.865,0,0,0-.908.843l-.011.316-.275-.054-.071-.8a.876.876,0,1,0-1.745.155l.033.379a.191.191,0,0,1-.241.178c-.074-.011-.217-.051-.281-.3l-.081-.918a.876.876,0,1,0-1.745.154l.056.641a.779.779,0,0,1-.125.46c-.113.122-.308.063-.474-.044l-.856-2.741a.876.876,0,0,0-1.673.522l.846,2.709a.559.559,0,0,0-.026.233,8.172,8.172,0,0,1,.044,3.877l-.234-.244-.084-.392-.089-.434-.041-.207c-.006-.029-.011-.059-.016-.075a.774.774,0,0,0-.01-.173c0-.028,0-.031-.011-.078l-.007-.034,0-.017-.023-.07c-.01-.027-.022-.053-.034-.079l-.02-.037-.017-.029a.81.81,0,0,0-.216-.232.822.822,0,0,0-.83-.081.818.818,0,0,0-.118.067l-.041.03c-.023.018-.047.039-.07.061a.852.852,0,0,0-.206.327,1.119,1.119,0,0,0-.05.243l-.006.057-.018.145-.029.242-.051.464-.091.917h0a1.094,1.094,0,0,0,.3.693l2.27,2.368a7.926,7.926,0,0,0,2.171,2.783.914.914,0,0,0,.108.067c.243.132.435.849.866.905,2.327.306,6.952-.982,6.952-.982S1110.018,790.984,1109.637,789.289Zm0,0c-.151-.678-.653-2.362-.877-3.1l.036-.954a.876.876,0,0,0-.844-.907.865.865,0,0,0-.908.843l-.011.316-.275-.054-.071-.8a.876.876,0,1,0-1.745.155l.033.379a.191.191,0,0,1-.241.178c-.074-.011-.217-.051-.281-.3l-.081-.918a.876.876,0,1,0-1.745.154l.056.641a.779.779,0,0,1-.125.46c-.113.122-.308.063-.474-.044l-.856-2.741a.876.876,0,0,0-1.673.522s.809,2.886.82,2.942a8.172,8.172,0,0,1,.044,3.877l-.234-.244-.084-.392-.089-.434-.041-.207c-.006-.029-.011-.059-.016-.075a.774.774,0,0,0-.01-.173c0-.028,0-.031-.011-.078l-.007-.034,0-.017-.023-.07c-.01-.027-.022-.053-.034-.079l-.02-.037-.017-.029a.81.81,0,0,0-.216-.232.822.822,0,0,0-.83-.081.818.818,0,0,0-.118.067l-.041.03c-.023.018-.047.039-.07.061a.852.852,0,0,0-.206.327,1.119,1.119,0,0,0-.05.243l-.006.057-.018.145-.029.242-.051.464-.091.917h0a1.094,1.094,0,0,0,.3.693l2.27,2.368a7.926,7.926,0,0,0,2.171,2.783.914.914,0,0,0,.108.067c.243.132.435.849.866.905,2.327.306,6.952-.982,6.952-.982S1110.018,790.984,1109.637,789.289Zm-11.289-.552,0-.01,0-.02c0-.029,0-.014,0-.022a.878.878,0,0,0,.04.146l-.013-.03Z" fill="#f6bfba"/>
        <g id="Group_228" data-name="Group 228">
          <path id="Path_633" data-name="Path 633" d="M1106.679,841.034c-4.869-2.374-12.246-3.887-20.5-3.887s-15.634,1.513-20.5,3.887c-7.368-2.633-12.079-4.345-12.079,1.858,0,9.27,10.518,17.049,24.708,19.186,2.523.379,5.16-.255,7.875-.255s5.358.634,7.879.253c14.188-2.138,24.7-9.918,24.7-19.184C1118.758,836.689,1114.047,838.4,1106.679,841.034Z" fill="#8a5430"/>
          <g id="Group_225" data-name="Group 225">
            <path id="Path_634" data-name="Path 634" d="M1100.29,844.176c0,2.007-.51,3.632-1.139,3.632s-1.141-1.625-1.141-3.632.512-3.631,1.141-3.631S1100.29,842.17,1100.29,844.176Z" fill="#e8baab"/>
            <path id="Path_635" data-name="Path 635" d="M1072.061,844.176c0,2.007.511,3.632,1.14,3.632s1.14-1.625,1.14-3.632-.511-3.631-1.14-3.631S1072.061,842.17,1072.061,844.176Z" fill="#e8baab"/>
            <path id="Path_636" data-name="Path 636" d="M1099.494,842.892c0,8.6-5.964,15.579-13.318,15.579s-13.317-6.975-13.317-15.579,5.962-15.578,13.317-15.578S1099.494,834.289,1099.494,842.892Z" fill="#341e11"/>
          </g>
          <g id="Group_227" data-name="Group 227">
            <g id="Group_226" data-name="Group 226">
              <path id="Path_637" data-name="Path 637" d="M1103.773,842.758l4.661-22.038.139,1.757-6.778-25.7,9.575-2.525,6.778,25.7a4.037,4.037,0,0,1,.133.966l.005.79.472,21.356Z" fill="#8a5430"/>
            </g>
          </g>
        </g>
        <g id="Group_229" data-name="Group 229">
          <rect id="Rectangle_27" data-name="Rectangle 27" width="9.958" height="1.192" transform="matrix(0.968, -0.25, 0.25, 0.968, 1101.761, 796.595)" fill="#c9c9c9"/>
        </g>
      </g>
    </g>
  </g>
</svg>
