<svg xmlns="http://www.w3.org/2000/svg" xmlns:xlink="http://www.w3.org/1999/xlink" width="267.193" height="68.266" viewBox="0 0 267.193 68.266"><defs><linearGradient id="a" y1="0.5" x2="1" y2="0.5" gradientUnits="objectBoundingBox"><stop offset="0" stop-color="#5982bd"/><stop offset="1" stop-color="#5982bd" stop-opacity="0"/></linearGradient></defs><g transform="translate(-1408.27 -514.847)"><rect width="267.193" height="68.266" rx="3.653" transform="translate(1408.27 514.847)" fill="#353445"/><path d="M1609.567,514.847s-10.748,68.266-82.386,68.266H1411.91a3.64,3.64,0,0,1-3.64-3.64V518.62a3.773,3.773,0,0,1,3.774-3.773h197.523Z" opacity="0.41" fill="url(#a)"/><line y2="43.163" transform="translate(1495.623 527.399)" fill="none" stroke="#71dfe2" stroke-miterlimit="10" stroke-width="4"/><path d="M1459.548,544.018a8.615,8.615,0,0,1-1.964-.294,9.783,9.783,0,0,1-3.578-1.832,9.948,9.948,0,0,1-.764-.691,8.656,8.656,0,0,1-.685-.789,6.717,6.717,0,0,1-1.034-1.886,4.635,4.635,0,0,1-.212-2.3,3.945,3.945,0,0,1,.4-1.151,4.252,4.252,0,0,1,.709-.965,5.235,5.235,0,0,1,.9-.716,4.477,4.477,0,0,1,1.058-.511,3.386,3.386,0,0,1,1.259-.154,3.239,3.239,0,0,1,1.22.334,4.363,4.363,0,0,1,.966.663,5.862,5.862,0,0,1,.737.8,9.732,9.732,0,0,1,1.064,1.755A18.73,18.73,0,0,1,1460.9,540c.149.63.277,1.264.376,1.9a18.526,18.526,0,0,1,.212,1.921A7.091,7.091,0,0,1,1459.548,544.018Zm.539-3.751a26.036,26.036,0,0,0-1.672-3.326c-.159-.259-.324-.51-.5-.748a8.105,8.105,0,0,0-.544-.68,3.724,3.724,0,0,0-1.222-.947,1.628,1.628,0,0,0-1.241-.04,2.752,2.752,0,0,0-.322.138c-.054.028-.108.057-.162.089l-.088.053-.08.051a3.476,3.476,0,0,0-.589.481,2.333,2.333,0,0,0-.659,1.209,3.056,3.056,0,0,0,.094,1.473,5.66,5.66,0,0,0,.71,1.5,7.456,7.456,0,0,0,.516.7,8.51,8.51,0,0,0,.593.653,10.4,10.4,0,0,0,2.953,2.049,9.921,9.921,0,0,0,1.739.62,10.03,10.03,0,0,0,1.873.285C1461.04,542.614,1460.586,541.426,1460.087,540.267Z" fill="#fff"/><path d="M1461.537,541.036a12.656,12.656,0,0,1,.875-2.78,14.345,14.345,0,0,1,3.474-4.768,14.671,14.671,0,0,1,1.177-.95,12.82,12.82,0,0,1,1.3-.812,9.839,9.839,0,0,1,2.971-1.068,6.8,6.8,0,0,1,3.379.218,5.761,5.761,0,0,1,1.575.841,6.149,6.149,0,0,1,1.237,1.249,7.62,7.62,0,0,1,.835,1.461,6.562,6.562,0,0,1,.5,1.65,4.979,4.979,0,0,1-.063,1.861,4.768,4.768,0,0,1-.764,1.691,6.356,6.356,0,0,1-1.181,1.249,8.6,8.6,0,0,1-1.331.886,14.335,14.335,0,0,1-2.786,1.141,27.408,27.408,0,0,1-5.675,1.007c-.949.073-1.9.113-2.842.111a27.339,27.339,0,0,1-2.833-.131A10.372,10.372,0,0,1,1461.537,541.036Zm5.315,1.638a38.307,38.307,0,0,0,5.2-1.663c.41-.171.812-.354,1.2-.553a11.9,11.9,0,0,0,1.109-.633,5.446,5.446,0,0,0,1.652-1.554,2.391,2.391,0,0,0,.342-1.79,4.135,4.135,0,0,0-.126-.5c-.028-.084-.059-.17-.092-.255l-.057-.139-.056-.128a5.044,5.044,0,0,0-.562-.964,3.426,3.426,0,0,0-1.6-1.231,4.486,4.486,0,0,0-2.156-.2,8.31,8.31,0,0,0-2.332.687,11.129,11.129,0,0,0-1.129.589,12.356,12.356,0,0,0-1.081.71,15.264,15.264,0,0,0-3.645,3.812,14.348,14.348,0,0,0-2.138,5.03C1463.231,543.52,1465.058,543.132,1466.852,542.674Z" fill="#fff"/><rect width="23.338" height="27.054" transform="matrix(0.008, -1, 1, 0.008, 1447.78, 567.205)" fill="#58595b"/><rect width="23.327" height="3.326" transform="matrix(0.008, -1, 1, 0.008, 1459.769, 567.286)" fill="#fff"/><path d="M1445.695,543.85l13.753.106-.062,8.093-14.511-.111.056-7.335A.759.759,0,0,1,1445.695,543.85Z" fill="#fff"/><path d="M1459.269,567.293l-12.019-.093a.758.758,0,0,1-.752-.764l.1-13.243,12.777.1Z" fill="#fff"/><path d="M1478.314,544.859l-.056,7.335-14.512-.112.062-8.093,13.754.106A.759.759,0,0,1,1478.314,544.859Z" fill="#fff"/><path d="M1476.413,566.666a.758.758,0,0,1-.764.752l-12.02-.092.108-14,12.778.1Z" fill="#fff"/><path d="M1430.53,545.235l-.014.04c3.293,0,5.308,2.007,7.729,3.7a10.9,10.9,0,0,0,6.57,2.289c1.275,0,2.358-.012,3.277-.038h6.694a1.773,1.773,0,0,0,0-3.545H1448.5a2.658,2.658,0,0,1-.853-4.956l2.444-.649c.827-.2,1.614-.41,2.349-.622l.16-.042c2.76-.73,5.732-1.512,6.27-1.639a3.3,3.3,0,0,1,.97.068l9.9,6.417,1.793,1.3v0a3.039,3.039,0,0,0,.682.323,2.557,2.557,0,0,0,.35.076,2.619,2.619,0,0,0,.388.032,2.573,2.573,0,0,0,.516-.052,2.849,2.849,0,0,0,2.614-2.834,2.812,2.812,0,0,0-.85-2.013l0,0-.014-.01a2.927,2.927,0,0,0-.7-.51l-.681-.5-15.519-11.25v0l-.19-.074a3.352,3.352,0,0,0-1.109-.2,3.482,3.482,0,0,0-.666.067l-.077.02c-5.257,1.338-16.121,4.1-21.2,5.353l-.367.135a20.658,20.658,0,0,1-4.175.713v.743h-.014l.014,1.02v6.642Z"/><path d="M1430.53,545.235l-.014.04c3.293,0,5.308,2.007,7.729,3.7a10.9,10.9,0,0,0,6.57,2.289c1.275,0,2.358-.012,3.277-.038h6.694a1.773,1.773,0,0,0,0-3.545H1448.5a2.658,2.658,0,0,1-.853-4.956l2.444-.649c.827-.2,1.614-.41,2.349-.622l.16-.042c2.76-.73,5.732-1.512,6.27-1.639a3.3,3.3,0,0,1,.97.068l9.9,6.417,1.793,1.3v0a3.039,3.039,0,0,0,.682.323,2.557,2.557,0,0,0,.35.076,2.619,2.619,0,0,0,.388.032,2.573,2.573,0,0,0,.516-.052,2.849,2.849,0,0,0,2.614-2.834,2.812,2.812,0,0,0-.85-2.013l0,0-.014-.01a2.927,2.927,0,0,0-.7-.51l-.681-.5-15.519-11.25v0l-.19-.074a3.352,3.352,0,0,0-1.109-.2,3.482,3.482,0,0,0-.666.067l-.077.02c-5.257,1.338-16.121,4.1-21.2,5.353l-.367.135a20.658,20.658,0,0,1-4.175.713v.743h-.014l.014,1.02v6.642Z" fill="#fff"/><rect width="23.338" height="11.182" transform="matrix(0.008, -1, 1, 0.008, 1463.71, 567.262)" fill="#58595b"/><path d="M1478.373,544.795l-.057,7.335-14.511-.112.062-8.093,13.753.106A.759.759,0,0,1,1478.373,544.795Z" fill="#fff"/><path d="M1476.472,566.6a.758.758,0,0,1-.764.752l-12.02-.092.107-14,12.778.1Z" fill="#fff"/></g></svg>