<svg xmlns="http://www.w3.org/2000/svg" xmlns:xlink="http://www.w3.org/1999/xlink" width="267.193" height="68.266" viewBox="0 0 267.193 68.266"><defs><linearGradient id="a" y1="0.5" x2="1" y2="0.5" gradientUnits="objectBoundingBox"><stop offset="0" stop-color="#5982bd"/><stop offset="1" stop-color="#5982bd" stop-opacity="0"/></linearGradient></defs><g transform="translate(-1408.27 -606.42)"><rect width="267.193" height="68.266" rx="3.653" transform="translate(1408.27 606.42)" fill="#353445"/><path d="M1609.567,606.42s-10.748,68.266-82.386,68.266H1411.938a3.668,3.668,0,0,1-3.668-3.668V610.089a3.669,3.669,0,0,1,3.668-3.669h197.629Z" opacity="0.41" fill="url(#a)"/><line y2="43.163" transform="translate(1495.623 618.972)" fill="none" stroke="#71dfe2" stroke-miterlimit="10" stroke-width="4"/><path d="M1451.805,630.3a8.494,8.494,0,0,1-1.945-.291,9.661,9.661,0,0,1-3.543-1.814,9.952,9.952,0,0,1-.757-.685,8.451,8.451,0,0,1-.678-.78,6.664,6.664,0,0,1-1.024-1.868,4.593,4.593,0,0,1-.21-2.275,3.924,3.924,0,0,1,.4-1.139,4.177,4.177,0,0,1,.7-.956,5.175,5.175,0,0,1,.886-.709,4.42,4.42,0,0,1,1.047-.505,3.363,3.363,0,0,1,1.247-.154,3.219,3.219,0,0,1,1.208.332,4.269,4.269,0,0,1,.956.655,5.783,5.783,0,0,1,.731.795,9.742,9.742,0,0,1,1.053,1.736,18.6,18.6,0,0,1,1.268,3.677c.148.625.274,1.252.373,1.883a18.663,18.663,0,0,1,.21,1.9A6.994,6.994,0,0,1,1451.805,630.3Zm.533-3.715a25.659,25.659,0,0,0-1.656-3.293c-.156-.256-.321-.5-.494-.741a8.24,8.24,0,0,0-.538-.672,3.666,3.666,0,0,0-1.21-.938,1.611,1.611,0,0,0-1.229-.04,2.714,2.714,0,0,0-.319.137c-.053.027-.107.056-.16.088l-.087.053-.079.05a3.409,3.409,0,0,0-.584.476,2.309,2.309,0,0,0-.652,1.2,3.018,3.018,0,0,0,.093,1.458,5.591,5.591,0,0,0,.7,1.483,7.6,7.6,0,0,0,.511.69,8.107,8.107,0,0,0,.587.646,10.313,10.313,0,0,0,2.923,2.029,9.691,9.691,0,0,0,3.578.9C1453.282,628.908,1452.832,627.731,1452.338,626.583Z" fill="#fff"/><path d="M1453.774,627.345a12.472,12.472,0,0,1,.867-2.752,14.2,14.2,0,0,1,3.439-4.722,14.373,14.373,0,0,1,1.166-.94,12.494,12.494,0,0,1,1.286-.8,9.768,9.768,0,0,1,2.942-1.058,6.737,6.737,0,0,1,3.346.216,5.709,5.709,0,0,1,1.56.833,6.106,6.106,0,0,1,1.225,1.237,7.566,7.566,0,0,1,.826,1.446,6.521,6.521,0,0,1,.493,1.634,4.942,4.942,0,0,1-.063,1.842,4.713,4.713,0,0,1-.756,1.675,6.292,6.292,0,0,1-1.17,1.237,8.5,8.5,0,0,1-1.318.877,14.182,14.182,0,0,1-2.759,1.13,27.262,27.262,0,0,1-5.619,1c-.939.072-1.877.111-2.814.109a27.086,27.086,0,0,1-2.806-.13A10.279,10.279,0,0,1,1453.774,627.345Zm5.263,1.622a37.728,37.728,0,0,0,5.153-1.647c.406-.169.8-.35,1.186-.547a11.519,11.519,0,0,0,1.1-.627,5.4,5.4,0,0,0,1.636-1.538,2.366,2.366,0,0,0,.339-1.773,4.009,4.009,0,0,0-.125-.494c-.028-.084-.058-.168-.091-.253l-.057-.138-.055-.126a4.976,4.976,0,0,0-.557-.954,3.384,3.384,0,0,0-1.586-1.22,4.425,4.425,0,0,0-2.135-.2,8.222,8.222,0,0,0-2.309.68,10.9,10.9,0,0,0-1.117.583,12.1,12.1,0,0,0-1.071.7,15.1,15.1,0,0,0-3.609,3.774,14.249,14.249,0,0,0-2.118,4.981C1455.452,629.8,1457.26,629.421,1459.037,628.967Z" fill="#fff"/><rect width="23.109" height="26.789" transform="matrix(0.008, -1, 1, 0.008, 1440.152, 653.258)" fill="#58595b"/><rect width="23.098" height="3.294" transform="matrix(0.008, -1, 1, 0.008, 1452.024, 653.338)" fill="#fff"/><path d="M1438.087,630.132l13.619.1-.062,8.014-14.369-.11.056-7.263A.751.751,0,0,1,1438.087,630.132Z" fill="#fff"/><path d="M1451.529,653.345l-11.9-.092a.749.749,0,0,1-.744-.756l.1-13.114,12.652.1Z" fill="#fff"/><path d="M1470.387,631.131l-.056,7.263-14.369-.111.061-8.013,13.619.1A.751.751,0,0,1,1470.387,631.131Z" fill="#fff"/><path d="M1468.505,652.724a.752.752,0,0,1-.757.745l-11.9-.091.106-13.865,12.653.1Z" fill="#fff"/><path d="M1477.262,649.6l.014-.039c-3.26,0-5.255-1.987-7.653-3.661a10.791,10.791,0,0,0-6.505-2.266c-1.263,0-2.335.011-3.245.037h-6.629a1.755,1.755,0,0,0,0,3.511h6.225a2.631,2.631,0,0,1,.844,4.907c-.2.053-1.149.306-2.419.642-.819.2-1.6.406-2.326.616l-.158.042c-2.733.723-5.676,1.5-6.21,1.623a3.272,3.272,0,0,1-.96-.067l-9.8-6.355-1.776-1.284v0a2.327,2.327,0,0,0-.265-.15,2.487,2.487,0,0,0-.41-.169,2.237,2.237,0,0,0-.346-.076,2.581,2.581,0,0,0-.385-.032,2.513,2.513,0,0,0-.51.052,2.821,2.821,0,0,0-2.589,2.806,2.788,2.788,0,0,0,.842,1.994l0,0,.014.01a2.91,2.91,0,0,0,.695.505l.676.491,15.366,11.14v0l.189.074a3.336,3.336,0,0,0,1.1.2,3.415,3.415,0,0,0,.66-.066l.076-.02c5.205-1.325,15.963-4.059,21-5.3l.363-.134a20.442,20.442,0,0,1,4.133-.706v-.735l.014,0-.014-1.01V649.6Z"/><path d="M1477.262,649.6l.014-.039c-3.26,0-5.255-1.987-7.653-3.661a10.791,10.791,0,0,0-6.505-2.266c-1.263,0-2.335.011-3.245.037h-6.629a1.755,1.755,0,0,0,0,3.511h6.225a2.631,2.631,0,0,1,.844,4.907c-.2.053-1.149.306-2.419.642-.819.2-1.6.406-2.326.616l-.158.042c-2.733.723-5.676,1.5-6.21,1.623a3.272,3.272,0,0,1-.96-.067l-9.8-6.355-1.776-1.284v0a2.327,2.327,0,0,0-.265-.15,2.487,2.487,0,0,0-.41-.169,2.237,2.237,0,0,0-.346-.076,2.581,2.581,0,0,0-.385-.032,2.513,2.513,0,0,0-.51.052,2.821,2.821,0,0,0-2.589,2.806,2.788,2.788,0,0,0,.842,1.994l0,0,.014.01a2.91,2.91,0,0,0,.695.505l.676.491,15.366,11.14v0l.189.074a3.336,3.336,0,0,0,1.1.2,3.415,3.415,0,0,0,.66-.066l.076-.02c5.205-1.325,15.963-4.059,21-5.3l.363-.134a20.442,20.442,0,0,1,4.133-.706v-.735l.014,0-.014-1.01V649.6Z" fill="#fff"/></g></svg>