<svg id="icon-attachments" xmlns="http://www.w3.org/2000/svg" width="44" height="44" viewBox="0 0 44 44">
  <rect id="Rectangle_124" data-name="Rectangle 124" width="44" height="44" fill="#353445" opacity="0"/>
  <path id="Icon_ionic-ios-attach" data-name="Icon ionic-ios-attach" d="M22.932,10.029a.944.944,0,0,0-.945.94V22.682a4.713,4.713,0,0,1-4.7,4.748h-.824a4.723,4.723,0,0,1-3.321-1.482A4.824,4.824,0,0,1,11.7,22.622V7.51a3.266,3.266,0,0,1,1.048-2.38,3.617,3.617,0,0,1,2.485-.982,3.421,3.421,0,0,1,2.412.976,3.349,3.349,0,0,1,.994,2.386V21.622a1.909,1.909,0,0,1-1.758,1.94,1.856,1.856,0,0,1-1.709-1.94v-8.05a.945.945,0,0,0-1.891,0v8.05a3.64,3.64,0,0,0,6.188,2.711,3.794,3.794,0,0,0,1.061-2.711V7.51a5.183,5.183,0,0,0-1.558-3.724,5.378,5.378,0,0,0-7.527,0,5.184,5.184,0,0,0-1.57,3.73V22.628a6.714,6.714,0,0,0,1.976,4.7A6.57,6.57,0,0,0,16.46,29.25h.824a6.639,6.639,0,0,0,4.6-1.934,6.768,6.768,0,0,0,1.448-2.085,6.277,6.277,0,0,0,.539-2.537V10.969A.935.935,0,0,0,22.932,10.029Z" transform="translate(5.128 6.75)" fill="#353445"/>
</svg>
