<svg xmlns="http://www.w3.org/2000/svg" xmlns:xlink="http://www.w3.org/1999/xlink" width="354.574" height="168.883" viewBox="0 0 354.574 168.883"><defs><linearGradient id="a" x1="0.2" y1="0.031" x2="0.626" y2="0.688" gradientUnits="objectBoundingBox"><stop offset="0" stop-color="#5982bd"/><stop offset="1" stop-color="#5982bd" stop-opacity="0"/></linearGradient><linearGradient id="b" x1="0.5" y1="1" x2="0.5" gradientUnits="objectBoundingBox"><stop offset="0" stop-color="#5d94fd"/><stop offset="1" stop-color="#ff1863"/></linearGradient><linearGradient id="d" x1="0.124" y1="0.856" x2="0.937" y2="0.071" gradientUnits="objectBoundingBox"><stop offset="0" stop-color="#ff1863"/><stop offset="1" stop-color="#5d94fd"/></linearGradient><linearGradient id="e" y1="0.5" x2="1" y2="0.5" gradientUnits="objectBoundingBox"><stop offset="0" stop-color="#5982bd" stop-opacity="0"/><stop offset="0.649" stop-color="#5982bd"/></linearGradient></defs><g transform="translate(-1237.734 -817.267)"><rect width="354.574" height="168.883" rx="8.91" transform="translate(1237.734 817.267)" fill="#353445"/><path d="M1572.027,817.267a5.251,5.251,0,0,1,5.068,6.653c-4.287,15.4-17.568,54.693-48.471,87.39-40.412,42.759-109.993,74.84-152.284,74.84H1247.234a9.5,9.5,0,0,1-9.5-9.5V826.922a9.656,9.656,0,0,1,9.656-9.655h324.637Z" opacity="0.41" fill="url(#a)"/><path d="M1532.857,967.433c37.851-1.2,53.635-40.084,49.991-84.062-2.216-26.746-14.2-51.488-36.017-65.716h-91.342a96.584,96.584,0,0,0-22.242,20.065c-22.543,27-25.4,72.625-5.026,96S1489.236,968.817,1532.857,967.433Z" opacity="0.25" fill="url(#b)" style="mix-blend-mode:multiply;isolation:isolate"/><path d="M1496.569,975.778c32.022,13.635,76.192,3.266,92.651-22.746q1.453-2.3,2.731-4.756V844.9c-.08-.243-.158-.485-.238-.727-4.237-12.728-12.27-21.386-22.707-26.521h-62.282q-4.5,1.444-9.017,3.22c-36.643,14.434-63.107,47.838-53.205,92.536C1453.159,952.484,1477.755,967.768,1496.569,975.778Z" opacity="0.25" fill="url(#b)" style="mix-blend-mode:multiply;isolation:isolate"/><path d="M1591.188,917.647q.387-1.077.763-2.172V862.15c-4.205-6.847-10.94-12.822-21.129-17.3-34.545-15.174-117.94-4.509-142.127,42.819-19.6,38.358,8.877,83.034,43.847,98.09h51.141C1556.26,973.431,1582.482,941.875,1591.188,917.647Z" opacity="0.25" fill="url(#d)" style="mix-blend-mode:multiply;isolation:isolate"/><path d="M1515.366,900.462s-.388-4.133,1.141-5.855,4.2-2.892,5.619-1.791,3,5.881,2.92,6.612S1515.366,900.462,1515.366,900.462Z" fill="#e49d6f"/><path d="M1514.16,899.418l1.525,19.322,12.6-1.308-1.905-19.243Z" fill="#fab886"/><path d="M1506.87,892.447s8.542-21.552,16.19-21.3c0,0,3.331,1.064-.143,4.409S1506.87,892.447,1506.87,892.447Z" fill="#94d29d"/><path d="M1507.322,892.816s13.956-11.078,17.036-8.7c0,0,1.74,1.161-.313,2.148S1513.893,888.554,1507.322,892.816Z" fill="#94d29d"/><path d="M1506.219,891.372c.085-.124,5.253-12.042,3.219-12.088S1506.219,891.372,1506.219,891.372Z" fill="#94d29d"/><path d="M1496.3,899.707c.044-.185,8.784-11.2,8.784-11.2s2.792.024,3.361,1.66,2.27,1.143,3.079,1.936L1500.9,904.479Z" fill="#fab886"/><rect width="15.925" height="8.046" rx="1.619" transform="translate(1526.218 919.917) rotate(-82.558)" fill="#449ff2"/><rect width="6.224" height="3.144" rx="0.633" transform="translate(1530.308 907.53) rotate(-82.569)" fill="#449ff2"/><rect width="5.226" height="8.046" transform="translate(1529.408 906.623) rotate(7.441)" fill="#ffa347"/><rect width="3.695" height="8.264" rx="0.79" transform="translate(1517.644 919.237) rotate(-86.966)" fill="#449ff2"/><rect width="1.388" height="3.104" rx="0.297" transform="translate(1520.38 916.378) rotate(-86.973)" fill="#449ff2"/><rect width="8.264" height="1.573" transform="matrix(0.999, 0.053, -0.053, 0.999, 1517.784, 916.595)" fill="#ffa347"/><rect width="24.214" height="34.091" transform="matrix(0.963, -0.271, 0.271, 0.963, 1471.781, 884.012)" fill="#449ff2"/><rect width="13.981" height="17.099" transform="matrix(0.999, 0.048, -0.048, 0.999, 1500.541, 900.949)" fill="#449ff2"/><rect width="9.375" height="3.3" transform="matrix(0.999, 0.048, -0.048, 0.999, 1489.736, 913.892)" fill="#449ff2"/><path d="M1544.658,942.8a7.039,7.039,0,1,0,7.039,7.039A7.039,7.039,0,0,0,1544.658,942.8Z" opacity="0.35" fill="url(#e)"/><path d="M1544.658,946.6a3.238,3.238,0,1,0,3.239,3.238A3.238,3.238,0,0,0,1544.658,946.6Z" fill="#fff"/><path d="M1488.524,942.8a7.039,7.039,0,1,0,7.039,7.039A7.04,7.04,0,0,0,1488.524,942.8Z" opacity="0.35" fill="url(#e)"/><path d="M1488.524,946.6a3.238,3.238,0,1,0,3.238,3.238A3.238,3.238,0,0,0,1488.524,946.6Z" fill="#fff"/><path d="M1558.678,867.872a1.055,1.055,0,0,0-1.492-.056l-9.01,8.361a1.048,1.048,0,0,0-.288.454l-1.145,3.6-75.608,3.585a1.056,1.056,0,0,0-1.005,1.106l1.549,31.815a1.056,1.056,0,0,0,.978,1l62.083,4.505c.026,0,.051,0,.077,0a1.055,1.055,0,0,0,1.005-.736l12.7-39.916c.006-.016.011-.032.016-.049l1.275-4.006,8.806-8.172A1.056,1.056,0,0,0,1558.678,867.872Zm-21.129,41.245-6.943-.266,2.9-11.718,7.874-.067Zm-8.811-.337-7.815-.3,2.641-11.263,8.057-.068Zm-10.269,10.162,2.028-8.646,7.791.3-2.206,8.9Zm-9.027-.655,1.553-8.356,7.639.293-2.013,8.584Zm-9.948-.722,1.214-8.028,8.438.324-1.541,8.293Zm-8.3-.6.586-7.768,7.088.272-1.2,7.965Zm-10.067-.731.482-7.426,8.341.319-.581,7.705Zm-8.262-18.586,7.639-.064-.606,9.326-6.594-.252Zm9.474-.08,8.488-.072-.739,9.8-8.36-.321Zm9.435-12.619-.808,10.716-8.508.072.674-10.378Zm10.881-.516-1.686,11.147-8.167.07.813-10.788Zm11.318-.536-2.154,11.592-9,.076,1.7-11.22Zm10.959-.52-2.82,12.024-8.429.072,2.168-11.665Zm-22.387,14.02,8.933-.075-1.992,10.722-8.5-.326Zm-3.4,10.251-7.226-.277.746-9.89,8.028-.068Zm14.2-10.342,8.34-.071-2.621,11.176-7.727-.3Zm10.653-1.921,2.837-12.1,8.324-.395-3.079,12.425Zm-42.7-9.939-.669,10.307-7.847.066-.484-9.946Zm-7.9,23.047,6.387.244-.479,7.365-5.557-.4Zm60.671,11.583-6.129-.445,2.222-8.964,6.818.262Zm7.906-24.843-8,.068,3.1-12.5,9-.427Z" fill="#fcecdb" stroke="#fff" stroke-miterlimit="10" stroke-width="1"/><path d="M1554.845,872.7a1.267,1.267,0,0,1-.839-2.217l4.608-4.066a1.267,1.267,0,0,1,1.676,1.9l-4.607,4.066A1.266,1.266,0,0,1,1554.845,872.7Z" fill="#e25345"/><path d="M1472.732,917.949a1.266,1.266,0,0,1-1.264-1.2l-1.548-31.816a1.267,1.267,0,1,1,2.531-.123L1474,916.62a1.267,1.267,0,0,1-1.2,1.328Z" fill="#ff9841"/><path d="M1544.871,949.347l-1.416-8.524a1.055,1.055,0,0,0,1.005-1.054V928.226a1.056,1.056,0,0,0-.387-.817l-8.587-7.039a1.056,1.056,0,0,0-1.339,1.634l8.2,6.721v10.008l-60.492,1.092-1.955-5.5a1.055,1.055,0,1,0-1.989.706l1.857,5.23-8.123,3.174a1.056,1.056,0,0,0,.768,1.967l8.834-3.451,1.267-.023,5.682,8.158c.293.421.841.136.817-.425l-.338-7.844,48.4-.874,7.161,8.763C1544.487,950.01,1544.939,949.756,1544.871,949.347Z" fill="#fcecdb" stroke="#fff" stroke-miterlimit="10" stroke-width="1"/></g></svg>