<svg xmlns="http://www.w3.org/2000/svg" xmlns:xlink="http://www.w3.org/1999/xlink" width="436.97" height="859.259" viewBox="0 0 436.97 859.259"><defs><clipPath id="a"><rect width="405.914" height="859.026" rx="24.048" transform="translate(1322.943 90.929)" fill="none"/></clipPath><linearGradient id="b" y1="0.5" x2="1" y2="0.5" gradientUnits="objectBoundingBox"><stop offset="0" stop-color="#5982bd"/><stop offset="1" stop-color="#5982bd" stop-opacity="0"/></linearGradient></defs><g transform="translate(-1422.943 -1299.929)"><rect width="436.97" height="859.259" rx="15.385" transform="translate(1422.943 1299.929)" fill="none"/><g transform="translate(100 1209)" clip-path="url(#a)"><path d="M1228.8,114.511s108.482-65.838,174.756,3.415c66.891,69.9,130.788,76.885,190.536,50.035S1645.38,30.938,1579.1-4.793s-319.54-71.966-356.228,0S1179.089,114.511,1228.8,114.511Z" opacity="0.41" fill="url(#b)"/><path d="M1449.828,505.348c65.824,22.2,128.853-21.925,154.374-91.423,11.3-30.78,13.262-59.641-6.817-89.991-46.4-70.14-122.57-16.636-200.164-116.171s-225.592-39.862-214.626,85.284,187.479,140.1,220.938,179.705C1410.5,481,1437.756,501.275,1449.828,505.348Z" opacity="0.41" fill="url(#b)"/><path d="M1648.244,15.367s48.6,87.431-3.953,155.091-148.776,56.781-194.4,24.988c-29.557-20.6-122.5-93.683-184.96-65.578" fill="none" stroke="#e8e6fe" stroke-miterlimit="10" stroke-width="1" opacity="0.1"/></g></g></svg>