<svg xmlns="http://www.w3.org/2000/svg" xmlns:xlink="http://www.w3.org/1999/xlink" width="267.193" height="68.266" viewBox="0 0 267.193 68.266"><defs><linearGradient id="a" y1="0.5" x2="1" y2="0.5" gradientUnits="objectBoundingBox"><stop offset="0" stop-color="#5982bd"/><stop offset="1" stop-color="#5982bd" stop-opacity="0"/></linearGradient></defs><g transform="translate(-1408.27 -789.567)"><rect width="267.193" height="68.266" rx="3.653" transform="translate(1408.27 789.567)" fill="#353445"/><path d="M1609.567,789.567s-10.748,68.266-82.386,68.266H1411.928a3.658,3.658,0,0,1-3.658-3.658v-60.95a3.658,3.658,0,0,1,3.658-3.658h197.639Z" opacity="0.41" fill="url(#a)"/><line y2="43.163" transform="translate(1495.623 802.119)" fill="none" stroke="#71dfe2" stroke-miterlimit="10" stroke-width="4"/><path d="M1461.822,821.368c5.7,0,8.587,4.96,10.29,10.364l1.406,4.293c.224.74-.666,1.407-1.406,1.407H1467.3l-.666-2.3c-1.482-4.515-3.848-9.029-8.069-10.732a7.406,7.406,0,0,0,2.591-3.036Zm5.923-2.96c5.477.147,8.364,5.033,10.067,10.363l1.331,4.219c.225.74-.665,1.481-1.4,1.481H1474.7l-1.038-3.258c-1.406-4.515-3.775-9.03-8.066-10.732a8.217,8.217,0,0,0,2.145-2.073Zm-33.089,16.063h-2.961c-.813,0-1.627-.667-1.4-1.481l1.332-4.219c1.7-5.33,4.59-10.216,10.067-10.363a6.925,6.925,0,0,0,2.073,2.073c-4.219,1.7-6.589,6.217-8.068,10.732Zm32.793-28.425a5.465,5.465,0,0,1,5.477,5.477,5.408,5.408,0,0,1-4.439,5.33,6.433,6.433,0,0,0,.443-2.369,7.151,7.151,0,0,0-5.33-6.884,5.361,5.361,0,0,1,3.849-1.554Zm-25.464,0a5.486,5.486,0,0,1,3.849,1.554,7.152,7.152,0,0,0-5.331,6.884,6.354,6.354,0,0,0,.447,2.369,5.451,5.451,0,0,1,1.035-10.807Zm12.733,0a5.546,5.546,0,0,1,4.218,1.925,7.247,7.247,0,0,0-3.257,2.887l-.3.443h-1.407l-.222-.443a7.632,7.632,0,0,0-3.257-2.887,5.548,5.548,0,0,1,4.221-1.925Zm0,19.245c5.7,0,8.586,4.961,10.361,10.364l1.334,4.293c.222.74-.666,1.407-1.408,1.407h-20.577c-.814,0-1.7-.667-1.408-1.407l1.334-4.293c1.7-5.4,4.664-10.364,10.364-10.364Zm0-12.361a5.478,5.478,0,1,1-5.477,5.478,5.466,5.466,0,0,1,5.477-5.478Zm-12.659,24.5h-4.738c-.813,0-1.627-.667-1.405-1.407l1.331-4.293c1.777-5.4,4.664-10.364,10.364-10.364h.665a6.906,6.906,0,0,0,2.592,3.036c-4.219,1.7-6.662,6.217-8.069,10.732Zm5.552-28.426a5.638,5.638,0,0,1,4.738,2.665,7.231,7.231,0,0,0-4.738,6.737,11.043,11.043,0,0,0,.148,1.554h-.148a5.478,5.478,0,0,1,0-10.956Zm14.211,0a5.478,5.478,0,1,1,0,10.956h-.221a5.629,5.629,0,0,0,.221-1.554,7.229,7.229,0,0,0-4.738-6.737,5.543,5.543,0,0,1,4.738-2.665Z" fill="#fff" fill-rule="evenodd"/></g></svg>